<!DOCTYPE svg  PUBLIC '-//W3C//DTD SVG 1.1//EN'  'http://www.w3.org/Graphics/SVG/1.1/DTD/svg11.dtd'>
<svg width="720pt" height="432pt" version="1.1" viewBox="0 0 720 432" xmlns="http://www.w3.org/2000/svg" xmlns:xlink="http://www.w3.org/1999/xlink"><defs><style type="text/css">*{stroke-linejoin: round; stroke-linecap: butt}</style></defs><g id="figure_1"><g id="patch_1"><path d="m0 432h720v-432h-720z"/></g><g id="axes_1"><g id="patch_2"><path d="m53.93 390.04h655.27v-357.16h-655.27z"/></g><g id="matplotlib.axis_1"><g id="xtick_1"><g id="line2d_1"><path d="m63.374 390.04v-357.16" clip-path="url(#p68cd63bb41)" fill="none" stroke="#808080" stroke-dasharray="1.85,0.8" stroke-opacity=".5" stroke-width=".5"/></g><g id="line2d_2"><defs><path id="me167884e16" d="m0 0v3.5" stroke="#808080" stroke-width=".8"/></defs><use x="63.374195" y="390.04" fill="#808080" stroke="#808080" stroke-width=".8" xlink:href="#me167884e16"/></g><g id="text_1"><!-- 0.0 --><g transform="translate(55.423 404.64) scale(.1 -.1)" fill="#808080"><defs><path id="DejaVuSans-30" transform="scale(.015625)" d="m2034 4250q-487 0-733-480-245-479-245-1442 0-959 245-1439 246-480 733-480 491 0 736 480 246 480 246 1439 0 963-246 1442-245 480-736 480zm0 500q785 0 1199-621 414-620 414-1801 0-1178-414-1799-414-620-1199-620-784 0-1198 620-414 621-414 1799 0 1181 414 1801 414 621 1198 621z"/><path id="DejaVuSans-2e" transform="scale(.015625)" d="m684 794h660v-794h-660v794z"/></defs><use xlink:href="#DejaVuSans-30"/><use transform="translate(63.623)" xlink:href="#DejaVuSans-2e"/><use transform="translate(95.41)" xlink:href="#DejaVuSans-30"/></g></g></g><g id="xtick_2"><g id="line2d_3"><path d="m186.28 390.04v-357.16" clip-path="url(#p68cd63bb41)" fill="none" stroke="#808080" stroke-dasharray="1.85,0.8" stroke-opacity=".5" stroke-width=".5"/></g><g id="line2d_4"><use x="186.277581" y="390.04" fill="#808080" stroke="#808080" stroke-width=".8" xlink:href="#me167884e16"/></g><g id="text_2"><!-- 0.2 --><g transform="translate(178.33 404.64) scale(.1 -.1)" fill="#808080"><defs><path id="DejaVuSans-32" transform="scale(.015625)" d="m1228 531h2203v-531h-2962v531q359 372 979 998 621 627 780 809 303 340 423 576 121 236 121 464 0 372-261 606-261 235-680 235-297 0-627-103-329-103-704-313v638q381 153 712 231 332 78 607 78 725 0 1156-363 431-362 431-968 0-288-108-546-107-257-392-607-78-91-497-524-418-433-1181-1211z"/></defs><use xlink:href="#DejaVuSans-30"/><use transform="translate(63.623)" xlink:href="#DejaVuSans-2e"/><use transform="translate(95.41)" xlink:href="#DejaVuSans-32"/></g></g></g><g id="xtick_3"><g id="line2d_5"><path d="m309.18 390.04v-357.16" clip-path="url(#p68cd63bb41)" fill="none" stroke="#808080" stroke-dasharray="1.85,0.8" stroke-opacity=".5" stroke-width=".5"/></g><g id="line2d_6"><use x="309.180968" y="390.04" fill="#808080" stroke="#808080" stroke-width=".8" xlink:href="#me167884e16"/></g><g id="text_3"><!-- 0.4 --><g transform="translate(301.23 404.64) scale(.1 -.1)" fill="#808080"><defs><path id="DejaVuSans-34" transform="scale(.015625)" d="m2419 4116-1594-2491h1594v2491zm-166 550h794v-3041h666v-525h-666v-1100h-628v1100h-2106v609l1940 2957z"/></defs><use xlink:href="#DejaVuSans-30"/><use transform="translate(63.623)" xlink:href="#DejaVuSans-2e"/><use transform="translate(95.41)" xlink:href="#DejaVuSans-34"/></g></g></g><g id="xtick_4"><g id="line2d_7"><path d="m432.08 390.04v-357.16" clip-path="url(#p68cd63bb41)" fill="none" stroke="#808080" stroke-dasharray="1.85,0.8" stroke-opacity=".5" stroke-width=".5"/></g><g id="line2d_8"><use x="432.084354" y="390.04" fill="#808080" stroke="#808080" stroke-width=".8" xlink:href="#me167884e16"/></g><g id="text_4"><!-- 0.6 --><g transform="translate(424.13 404.64) scale(.1 -.1)" fill="#808080"><defs><path id="DejaVuSans-36" transform="scale(.015625)" d="m2113 2584q-425 0-674-291-248-290-248-796 0-503 248-796 249-292 674-292t673 292q248 293 248 796 0 506-248 796-248 291-673 291zm1253 1979v-575q-238 112-480 171-242 60-480 60-625 0-955-422-329-422-376-1275 184 272 462 417 279 145 613 145 703 0 1111-427 408-426 408-1160 0-719-425-1154-425-434-1131-434-810 0-1238 620-428 621-428 1799 0 1106 525 1764t1409 658q238 0 480-47t505-140z"/></defs><use xlink:href="#DejaVuSans-30"/><use transform="translate(63.623)" xlink:href="#DejaVuSans-2e"/><use transform="translate(95.41)" xlink:href="#DejaVuSans-36"/></g></g></g><g id="xtick_5"><g id="line2d_9"><path d="m554.99 390.04v-357.16" clip-path="url(#p68cd63bb41)" fill="none" stroke="#808080" stroke-dasharray="1.85,0.8" stroke-opacity=".5" stroke-width=".5"/></g><g id="line2d_10"><use x="554.987741" y="390.04" fill="#808080" stroke="#808080" stroke-width=".8" xlink:href="#me167884e16"/></g><g id="text_5"><!-- 0.8 --><g transform="translate(547.04 404.64) scale(.1 -.1)" fill="#808080"><defs><path id="DejaVuSans-38" transform="scale(.015625)" d="m2034 2216q-450 0-708-241-257-241-257-662 0-422 257-663 258-241 708-241t709 242q260 243 260 662 0 421-258 662-257 241-711 241zm-631 268q-406 100-633 378-226 279-226 679 0 559 398 884 399 325 1092 325 697 0 1094-325t397-884q0-400-227-679-226-278-629-378 456-106 710-416 255-309 255-755 0-679-414-1042-414-362-1186-362-771 0-1186 362-414 363-414 1042 0 446 256 755 257 310 713 416zm-231 997q0-362 226-565 227-203 636-203 407 0 636 203 230 203 230 565 0 363-230 566-229 203-636 203-409 0-636-203-226-203-226-566z"/></defs><use xlink:href="#DejaVuSans-30"/><use transform="translate(63.623)" xlink:href="#DejaVuSans-2e"/><use transform="translate(95.41)" xlink:href="#DejaVuSans-38"/></g></g></g><g id="xtick_6"><g id="line2d_11"><path d="m677.89 390.04v-357.16" clip-path="url(#p68cd63bb41)" fill="none" stroke="#808080" stroke-dasharray="1.85,0.8" stroke-opacity=".5" stroke-width=".5"/></g><g id="line2d_12"><use x="677.891127" y="390.04" fill="#808080" stroke="#808080" stroke-width=".8" xlink:href="#me167884e16"/></g><g id="text_6"><!-- 1.0 --><g transform="translate(669.94 404.64) scale(.1 -.1)" fill="#808080"><defs><path id="DejaVuSans-31" transform="scale(.015625)" d="m794 531h1031v3560l-1122-225v575l1116 225h631v-4135h1031v-531h-2687v531z"/></defs><use xlink:href="#DejaVuSans-31"/><use transform="translate(63.623)" xlink:href="#DejaVuSans-2e"/><use transform="translate(95.41)" xlink:href="#DejaVuSans-30"/></g></g></g><g id="text_7"><!-- Output Filesize (MB) --><g transform="translate(321.36 418.37) scale(.1 -.1)" fill="#dcdcdc"><defs><path id="DejaVuSansMono-4f" transform="scale(.015625)" d="m2828 2328q0 1028-211 1469t-692 441q-478 0-689-441t-211-1469q0-1025 211-1466 211-440 689-440 481 0 692 439t211 1467zm660 0q0-1219-386-1819t-1177-600-1175 597-384 1822q0 1222 386 1822t1173 600q791 0 1177-600t386-1822z"/><path id="DejaVuSansMono-75" transform="scale(.015625)" d="m609 1325v2169h575v-2169q0-472 167-694 168-222 518-222 406 0 621 286 216 286 216 821v1978h578v-3494h-578v525q-153-303-417-460-264-156-617-156-538 0-801 352-262 352-262 1064z"/><path id="DejaVuSansMono-74" transform="scale(.015625)" d="m1919 4494v-994h1306v-447h-1306v-1900q0-387 147-541 147-153 512-153h647v-459h-703q-647 0-913 259-265 260-265 894v1900h-935v447h935v994h575z"/><path id="DejaVuSansMono-70" transform="scale(.015625)" d="m1172 441v-1772h-578v4831h578v-447q144 260 383 395 239 136 551 136 635 0 996-491 361-490 361-1359 0-853-363-1339-362-486-994-486-318 0-558 136-239 136-376 396zm1687 1306q0 669-211 1009-210 341-626 341-419 0-635-342-215-342-215-1008 0-663 215-1007 216-343 635-343 416 0 626 340 211 341 211 1010z"/><path id="DejaVuSansMono-46" transform="scale(.015625)" d="m728 4666h2747v-532h-2112v-1375h1915v-531h-1915v-2228h-635v4666z"/><path id="DejaVuSansMono-69" transform="scale(.015625)" d="m800 3500h1472v-3053h1141v-447h-2857v447h1141v2606h-897v447zm897 1363h575v-729h-575v729z"/><path id="DejaVuSansMono-6c" transform="scale(.015625)" d="m1997 1269q0-388 142-585 142-196 420-196h672v-488h-728q-515 0-798 331-283 332-283 938v3178h-922v450h1497v-3628z"/><path id="DejaVuSansMono-65" transform="scale(.015625)" d="m3475 1894v-281h-2491v-19q0-572 298-885 299-312 843-312 275 0 575 87 300 88 641 266v-572q-328-134-633-201-305-68-589-68-816 0-1276 489-459 490-459 1349 0 837 450 1337t1200 500q669 0 1055-453t386-1237zm-575 169q-12 506-239 770t-652 264q-415 0-684-275t-319-763l1894 4z"/><path id="DejaVuSansMono-73" transform="scale(.015625)" d="m3041 3378v-562q-247 143-497 215t-510 72q-390 0-583-127-192-126-192-385 0-235 144-351 144-115 716-224l231-44q428-81 648-325 221-244 221-634 0-519-369-812-369-292-1025-292-259 0-544 55-284 55-615 164v594q322-166 615-249 294-82 557-82 381 0 590 154 210 155 210 433 0 400-766 553l-25 7-216 43q-497 97-725 327t-228 626q0 504 340 777 341 273 973 273 281 0 540-52 260-51 510-154z"/><path id="DejaVuSansMono-7a" transform="scale(.015625)" d="m709 3506h2541v-525l-2009-2512h2009v-469h-2616v531l2010 2516h-1935v459z"/><path id="DejaVuSansMono-28" transform="scale(.015625)" d="m2766 4856q-416-712-621-1420-204-708-204-1427 0-715 204-1425 205-709 621-1428h-500q-472 744-704 1448-231 705-231 1405 0 697 231 1403 232 707 704 1444h500z"/><path id="DejaVuSansMono-4d" transform="scale(.015625)" d="m269 4666h844l806-2375 812 2375h847v-4666h-584v4122l-831-2459h-479l-834 2459v-4122h-581v4666z"/><path id="DejaVuSansMono-42" transform="scale(.015625)" d="m1153 2228v-1709h747q550 0 784 192 235 192 235 633 0 456-247 670t-772 214h-747zm0 1919v-1406h735q456 0 660 175 205 175 205 565 0 353-202 509-201 157-663 157h-735zm-634 519h1381q716 0 1103-310 388-309 388-875 0-428-205-675t-614-309q459-69 720-393 261-323 261-823 0-634-416-958-415-323-1237-323h-1381v4666z"/><path id="DejaVuSansMono-29" transform="scale(.015625)" d="m1088 4856h500q471-737 702-1444 232-706 232-1403 0-703-232-1409-231-706-702-1444h-500q415 725 620 1434 205 710 205 1419 0 713-205 1422-205 710-620 1425z"/></defs><use xlink:href="#DejaVuSansMono-4f"/><use transform="translate(60.205)" xlink:href="#DejaVuSansMono-75"/><use transform="translate(120.41)" xlink:href="#DejaVuSansMono-74"/><use transform="translate(180.62)" xlink:href="#DejaVuSansMono-70"/><use transform="translate(240.82)" xlink:href="#DejaVuSansMono-75"/><use transform="translate(301.03)" xlink:href="#DejaVuSansMono-74"/><use transform="translate(361.23)" xlink:href="#DejaVuSansMono-20"/><use transform="translate(421.44)" xlink:href="#DejaVuSansMono-46"/><use transform="translate(481.64)" xlink:href="#DejaVuSansMono-69"/><use transform="translate(541.85)" xlink:href="#DejaVuSansMono-6c"/><use transform="translate(602.05)" xlink:href="#DejaVuSansMono-65"/><use transform="translate(662.26)" xlink:href="#DejaVuSansMono-73"/><use transform="translate(722.46)" xlink:href="#DejaVuSansMono-69"/><use transform="translate(782.67)" xlink:href="#DejaVuSansMono-7a"/><use transform="translate(842.87)" xlink:href="#DejaVuSansMono-65"/><use transform="translate(903.08)" xlink:href="#DejaVuSansMono-20"/><use transform="translate(963.28)" xlink:href="#DejaVuSansMono-28"/><use transform="translate(1023.5)" xlink:href="#DejaVuSansMono-4d"/><use transform="translate(1083.7)" xlink:href="#DejaVuSansMono-42"/><use transform="translate(1143.9)" xlink:href="#DejaVuSansMono-29"/></g></g><g id="text_8"><!-- 1e8 --><g transform="translate(690.32 417.32) scale(.1 -.1)" fill="#808080"><defs><path id="DejaVuSans-65" transform="scale(.015625)" d="m3597 1894v-281h-2644q38-594 358-905t892-311q331 0 642 81t618 244v-544q-310-131-635-200t-659-69q-838 0-1327 487-489 488-489 1320 0 859 464 1363 464 505 1252 505 706 0 1117-455 411-454 411-1235zm-575 169q-6 471-264 752-258 282-683 282-481 0-770-272t-333-766l2050 4z"/></defs><use xlink:href="#DejaVuSans-31"/><use transform="translate(63.623)" xlink:href="#DejaVuSans-65"/><use transform="translate(125.15)" xlink:href="#DejaVuSans-38"/></g></g></g><g id="matplotlib.axis_2"><g id="ytick_1"><g id="line2d_13"><path d="m53.93 360.96h655.27" clip-path="url(#p68cd63bb41)" fill="none" stroke="#808080" stroke-dasharray="1.85,0.8" stroke-opacity=".5" stroke-width=".5"/></g><g id="line2d_14"><defs><path id="m39e6b56efe" d="m0 0h-3.5" stroke="#808080" stroke-width=".8"/></defs><use x="53.93" y="360.959058" fill="#808080" stroke="#808080" stroke-width=".8" xlink:href="#m39e6b56efe"/></g><g id="text_9"><!-- 27.5 --><g transform="translate(24.664 364.76) scale(.1 -.1)" fill="#808080"><defs><path id="DejaVuSans-37" transform="scale(.015625)" d="m525 4666h3e3v-269l-1694-4397h-659l1594 4134h-2241v532z"/><path id="DejaVuSans-35" transform="scale(.015625)" d="m691 4666h2478v-532h-1900v-1143q137 47 274 70 138 23 276 23 781 0 1237-428 457-428 457-1159 0-753-469-1171-469-417-1322-417-294 0-599 50-304 50-629 150v635q281-153 581-228t634-75q541 0 856 284 316 284 316 772 0 487-316 771-315 285-856 285-253 0-505-56-251-56-513-175v2344z"/></defs><use xlink:href="#DejaVuSans-32"/><use transform="translate(63.623)" xlink:href="#DejaVuSans-37"/><use transform="translate(127.25)" xlink:href="#DejaVuSans-2e"/><use transform="translate(159.03)" xlink:href="#DejaVuSans-35"/></g></g></g><g id="ytick_2"><g id="line2d_15"><path d="m53.93 312.43h655.27" clip-path="url(#p68cd63bb41)" fill="none" stroke="#808080" stroke-dasharray="1.85,0.8" stroke-opacity=".5" stroke-width=".5"/></g><g id="line2d_16"><use x="53.93" y="312.427147" fill="#808080" stroke="#808080" stroke-width=".8" xlink:href="#m39e6b56efe"/></g><g id="text_10"><!-- 30.0 --><g transform="translate(24.664 316.23) scale(.1 -.1)" fill="#808080"><defs><path id="DejaVuSans-33" transform="scale(.015625)" d="m2597 2516q453-97 707-404 255-306 255-756 0-690-475-1069-475-378-1350-378-293 0-604 58t-642 174v609q262-153 574-231 313-78 654-78 593 0 904 234t311 681q0 413-289 645-289 233-804 233h-544v519h569q465 0 712 186t247 536q0 359-255 551-254 193-729 193-260 0-557-57-297-56-653-174v562q360 100 674 150t592 50q719 0 1137-327 419-326 419-882 0-388-222-655t-631-370z"/></defs><use xlink:href="#DejaVuSans-33"/><use transform="translate(63.623)" xlink:href="#DejaVuSans-30"/><use transform="translate(127.25)" xlink:href="#DejaVuSans-2e"/><use transform="translate(159.03)" xlink:href="#DejaVuSans-30"/></g></g></g><g id="ytick_3"><g id="line2d_17"><path d="m53.93 263.9h655.27" clip-path="url(#p68cd63bb41)" fill="none" stroke="#808080" stroke-dasharray="1.85,0.8" stroke-opacity=".5" stroke-width=".5"/></g><g id="line2d_18"><use x="53.93" y="263.895236" fill="#808080" stroke="#808080" stroke-width=".8" xlink:href="#m39e6b56efe"/></g><g id="text_11"><!-- 32.5 --><g transform="translate(24.664 267.69) scale(.1 -.1)" fill="#808080"><use xlink:href="#DejaVuSans-33"/><use transform="translate(63.623)" xlink:href="#DejaVuSans-32"/><use transform="translate(127.25)" xlink:href="#DejaVuSans-2e"/><use transform="translate(159.03)" xlink:href="#DejaVuSans-35"/></g></g></g><g id="ytick_4"><g id="line2d_19"><path d="m53.93 215.36h655.27" clip-path="url(#p68cd63bb41)" fill="none" stroke="#808080" stroke-dasharray="1.85,0.8" stroke-opacity=".5" stroke-width=".5"/></g><g id="line2d_20"><use x="53.93" y="215.363325" fill="#808080" stroke="#808080" stroke-width=".8" xlink:href="#m39e6b56efe"/></g><g id="text_12"><!-- 35.0 --><g transform="translate(24.664 219.16) scale(.1 -.1)" fill="#808080"><use xlink:href="#DejaVuSans-33"/><use transform="translate(63.623)" xlink:href="#DejaVuSans-35"/><use transform="translate(127.25)" xlink:href="#DejaVuSans-2e"/><use transform="translate(159.03)" xlink:href="#DejaVuSans-30"/></g></g></g><g id="ytick_5"><g id="line2d_21"><path d="m53.93 166.83h655.27" clip-path="url(#p68cd63bb41)" fill="none" stroke="#808080" stroke-dasharray="1.85,0.8" stroke-opacity=".5" stroke-width=".5"/></g><g id="line2d_22"><use x="53.93" y="166.831413" fill="#808080" stroke="#808080" stroke-width=".8" xlink:href="#m39e6b56efe"/></g><g id="text_13"><!-- 37.5 --><g transform="translate(24.664 170.63) scale(.1 -.1)" fill="#808080"><use xlink:href="#DejaVuSans-33"/><use transform="translate(63.623)" xlink:href="#DejaVuSans-37"/><use transform="translate(127.25)" xlink:href="#DejaVuSans-2e"/><use transform="translate(159.03)" xlink:href="#DejaVuSans-35"/></g></g></g><g id="ytick_6"><g id="line2d_23"><path d="m53.93 118.3h655.27" clip-path="url(#p68cd63bb41)" fill="none" stroke="#808080" stroke-dasharray="1.85,0.8" stroke-opacity=".5" stroke-width=".5"/></g><g id="line2d_24"><use x="53.93" y="118.299502" fill="#808080" stroke="#808080" stroke-width=".8" xlink:href="#m39e6b56efe"/></g><g id="text_14"><!-- 40.0 --><g transform="translate(24.664 122.1) scale(.1 -.1)" fill="#808080"><use xlink:href="#DejaVuSans-34"/><use transform="translate(63.623)" xlink:href="#DejaVuSans-30"/><use transform="translate(127.25)" xlink:href="#DejaVuSans-2e"/><use transform="translate(159.03)" xlink:href="#DejaVuSans-30"/></g></g></g><g id="ytick_7"><g id="line2d_25"><path d="m53.93 69.768h655.27" clip-path="url(#p68cd63bb41)" fill="none" stroke="#808080" stroke-dasharray="1.85,0.8" stroke-opacity=".5" stroke-width=".5"/></g><g id="line2d_26"><use x="53.93" y="69.767591" fill="#808080" stroke="#808080" stroke-width=".8" xlink:href="#m39e6b56efe"/></g><g id="text_15"><!-- 42.5 --><g transform="translate(24.664 73.567) scale(.1 -.1)" fill="#808080"><use xlink:href="#DejaVuSans-34"/><use transform="translate(63.623)" xlink:href="#DejaVuSans-32"/><use transform="translate(127.25)" xlink:href="#DejaVuSans-2e"/><use transform="translate(159.03)" xlink:href="#DejaVuSans-35"/></g></g></g><g id="text_16"><!-- W-XPSNR --><g transform="translate(18.585 232.53) rotate(-90) scale(.1 -.1)" fill="#dcdcdc"><defs><path id="DejaVuSansMono-57" transform="scale(.015625)" d="m0 4666h616l447-3788 531 2506h659l538-2512 447 3794h615l-697-4666h-597l-634 2772-631-2772h-597l-697 4666z"/><path id="DejaVuSansMono-2d" transform="scale(.015625)" d="m1113 2009h1628v-512h-1628v512z"/><path id="DejaVuSansMono-58" transform="scale(.015625)" d="m269 4666h678l1025-1760 1044 1760h678l-1397-2194 1497-2472h-678l-1144 2009-1234-2009h-682l1563 2472-1350 2194z"/><path id="DejaVuSansMono-50" transform="scale(.015625)" d="m1247 4147v-1753h731q438 0 683 231t245 647-244 645q-243 230-684 230h-731zm-631 519h1362q781 0 1184-355 404-355 404-1039 0-691-402-1044-401-353-1186-353h-731v-1875h-631v4666z"/><path id="DejaVuSansMono-53" transform="scale(.015625)" d="m3163 4506v-640q-288 184-577 278t-583 94q-447 0-706-208t-259-561q0-310 170-473 170-162 636-271l331-75q656-153 956-481t300-894q0-666-413-1016-412-350-1199-350-328 0-660 71-331 70-665 211v672q359-229 679-335 321-106 646-106 478 0 743 214 266 214 266 598 0 350-183 534-182 185-636 285l-337 78q-650 147-944 444t-294 797q0 625 420 1001 421 377 1118 377 269 0 565-61 297-61 626-183z"/><path id="DejaVuSansMono-4e" transform="scale(.015625)" d="m434 4666h800l1575-3841v3841h610v-4666h-800l-1575 3841v-3841h-610v4666z"/><path id="DejaVuSansMono-52" transform="scale(.015625)" d="m2375 2203q244-62 416-236 172-173 428-692l634-1275h-678l-556 1178q-241 503-433 648-192 146-502 146h-603v-1972h-634v4666h1300q769 0 1178-347t409-1003q0-463-252-755-251-292-707-358zm-1294 1944v-1656h691q453 0 675 203t222 622q0 403-236 617t-686 214h-666z"/></defs><use xlink:href="#DejaVuSansMono-57"/><use transform="translate(60.205)" xlink:href="#DejaVuSansMono-2d"/><use transform="translate(120.41)" xlink:href="#DejaVuSansMono-58"/><use transform="translate(180.62)" xlink:href="#DejaVuSansMono-50"/><use transform="translate(240.82)" xlink:href="#DejaVuSansMono-53"/><use transform="translate(301.03)" xlink:href="#DejaVuSansMono-4e"/><use transform="translate(361.23)" xlink:href="#DejaVuSansMono-52"/></g></g></g><g id="line2d_27"><path d="m630.31 92.902-87.08 22.34-82.351 22.563-87.044 27.41-55.961 18.625-80.68 35.945-57.928 33.533-44.149 35.668-33.798 42.757-17.604 40.58" clip-path="url(#p68cd63bb41)" fill="none" stroke="#1f77b4" stroke-dasharray="9.6,2.4,1.5,2.4" stroke-width="1.5"/><defs><path id="mb328d688d8" d="m0 3c0.79561 0 1.5587-0.3161 2.1213-0.87868 0.56258-0.56258 0.87868-1.3257 0.87868-2.1213s-0.3161-1.5587-0.87868-2.1213c-0.56258-0.56258-1.3257-0.87868-2.1213-0.87868s-1.5587 0.3161-2.1213 0.87868c-0.56258 0.56258-0.87868 1.3257-0.87868 2.1213s0.3161 1.5587 0.87868 2.1213c0.56258 0.56258 1.3257 0.87868 2.1213 0.87868z" stroke="#1f77b4"/></defs><g clip-path="url(#p68cd63bb41)" fill="#1f77b4" stroke="#1f77b4"><use x="630.309542" y="92.902365" xlink:href="#mb328d688d8"/><use x="543.229205" y="115.242769" xlink:href="#mb328d688d8"/><use x="460.878405" y="137.805448" xlink:href="#mb328d688d8"/><use x="373.83438" y="165.215689" xlink:href="#mb328d688d8"/><use x="317.873285" y="183.841072" xlink:href="#mb328d688d8"/><use x="237.193314" y="219.786329" xlink:href="#mb328d688d8"/><use x="179.26558" y="253.318967" xlink:href="#mb328d688d8"/><use x="135.116853" y="288.986816" xlink:href="#mb328d688d8"/><use x="101.318507" y="331.743818" xlink:href="#mb328d688d8"/><use x="83.715" y="372.324261" xlink:href="#mb328d688d8"/></g></g><g id="line2d_28"><path d="m628.87 93.382-87.684 22.885-81.539 23.045-88.043 30.151-57.035 19.65-73.523 34.029-56.828 30.526-44.593 31.815-35.414 39.853-19.929 41.785" clip-path="url(#p68cd63bb41)" fill="none" stroke="#d62728" stroke-dasharray="9.6,2.4,1.5,2.4" stroke-width="1.5"/><defs><path id="m1fdf08e891" d="m0 3c0.79561 0 1.5587-0.3161 2.1213-0.87868 0.56258-0.56258 0.87868-1.3257 0.87868-2.1213s-0.3161-1.5587-0.87868-2.1213c-0.56258-0.56258-1.3257-0.87868-2.1213-0.87868s-1.5587 0.3161-2.1213 0.87868c-0.56258 0.56258-0.87868 1.3257-0.87868 2.1213s0.3161 1.5587 0.87868 2.1213c0.56258 0.56258 1.3257 0.87868 2.1213 0.87868z" stroke="#d62728"/></defs><g clip-path="url(#p68cd63bb41)" fill="#d62728" stroke="#d62728"><use x="628.870048" y="93.382249" xlink:href="#m1fdf08e891"/><use x="541.185709" y="116.267374" xlink:href="#m1fdf08e891"/><use x="459.646975" y="139.311879" xlink:href="#m1fdf08e891"/><use x="371.604243" y="169.462425" xlink:href="#m1fdf08e891"/><use x="314.568948" y="189.112414" xlink:href="#m1fdf08e891"/><use x="241.046003" y="223.141825" xlink:href="#m1fdf08e891"/><use x="184.217985" y="253.668009" xlink:href="#m1fdf08e891"/><use x="139.625293" y="285.483394" xlink:href="#m1fdf08e891"/><use x="104.211112" y="325.336247" xlink:href="#m1fdf08e891"/><use x="84.282119" y="367.12164" xlink:href="#m1fdf08e891"/></g></g><g id="line2d_29"><path d="m679.42 49.115-102.42 35.847-95.235 34.057-99.134 36.906-60.968 23.027-82.498 40.205-58.552 32.168-44.099 33.592-33.735 41.926-18.329 40.285" clip-path="url(#p68cd63bb41)" fill="none" stroke="#2ca02c" stroke-dasharray="9.6,2.4,1.5,2.4" stroke-width="1.5"/><defs><path id="me15f8c4bd6" d="m0 3c0.79561 0 1.5587-0.3161 2.1213-0.87868 0.56258-0.56258 0.87868-1.3257 0.87868-2.1213s-0.3161-1.5587-0.87868-2.1213c-0.56258-0.56258-1.3257-0.87868-2.1213-0.87868s-1.5587 0.3161-2.1213 0.87868c-0.56258 0.56258-0.87868 1.3257-0.87868 2.1213s0.3161 1.5587 0.87868 2.1213c0.56258 0.56258 1.3257 0.87868 2.1213 0.87868z" stroke="#2ca02c"/></defs><g clip-path="url(#p68cd63bb41)" fill="#2ca02c" stroke="#2ca02c"><use x="679.415" y="49.114545" xlink:href="#me15f8c4bd6"/><use x="576.996738" y="84.96138" xlink:href="#me15f8c4bd6"/><use x="481.761442" y="119.018551" xlink:href="#me15f8c4bd6"/><use x="382.627749" y="155.92474" xlink:href="#me15f8c4bd6"/><use x="321.659527" y="178.951579" xlink:href="#me15f8c4bd6"/><use x="239.161888" y="219.156385" xlink:href="#me15f8c4bd6"/><use x="180.610371" y="251.324694" xlink:href="#me15f8c4bd6"/><use x="136.510933" y="284.916542" xlink:href="#me15f8c4bd6"/><use x="102.776185" y="326.842289" xlink:href="#me15f8c4bd6"/><use x="84.446687" y="367.127269" xlink:href="#me15f8c4bd6"/></g></g><g id="line2d_30"><path d="m643.68 122.94-89.631 16.984-86.002 19.068-83.127 21.277-63.628 20.619-72.113 27.424-59.876 29.024-46.872 29.774-37.281 40.638-20.501 45.087" clip-path="url(#p68cd63bb41)" fill="none" stroke="#ff7f0e" stroke-dasharray="9.6,2.4,1.5,2.4" stroke-width="1.5"/><defs><path id="m6e7daef892" d="m0 3c0.79561 0 1.5587-0.3161 2.1213-0.87868 0.56258-0.56258 0.87868-1.3257 0.87868-2.1213s-0.3161-1.5587-0.87868-2.1213c-0.56258-0.56258-1.3257-0.87868-2.1213-0.87868s-1.5587 0.3161-2.1213 0.87868c-0.56258 0.56258-0.87868 1.3257-0.87868 2.1213s0.3161 1.5587 0.87868 2.1213c0.56258 0.56258 1.3257 0.87868 2.1213 0.87868z" stroke="#ff7f0e"/></defs><g clip-path="url(#p68cd63bb41)" fill="#ff7f0e" stroke="#ff7f0e"><use x="643.680226" y="122.936241" xlink:href="#m6e7daef892"/><use x="554.048906" y="139.920469" xlink:href="#m6e7daef892"/><use x="468.047163" y="158.988463" xlink:href="#m6e7daef892"/><use x="384.919676" y="180.265241" xlink:href="#m6e7daef892"/><use x="321.291849" y="200.883926" xlink:href="#m6e7daef892"/><use x="249.178711" y="228.307562" xlink:href="#m6e7daef892"/><use x="189.302344" y="257.331198" xlink:href="#m6e7daef892"/><use x="142.430255" y="287.105525" xlink:href="#m6e7daef892"/><use x="105.148877" y="327.744012" xlink:href="#m6e7daef892"/><use x="84.647683" y="372.830546" xlink:href="#m6e7daef892"/></g></g><g id="line2d_31"><path d="m645.27 122.38-89.471 17.158-86.479 19.618-88.866 24.865-57.155 17.152-71.903 27.845-62.186 30.214-47.728 30.339-37.235 40.52-20.39 43.712" clip-path="url(#p68cd63bb41)" fill="none" stroke="#9467bd" stroke-dasharray="9.6,2.4,1.5,2.4" stroke-width="1.5"/><defs><path id="m3f9d4ab0bc" d="m0 3c0.79561 0 1.5587-0.3161 2.1213-0.87868 0.56258-0.56258 0.87868-1.3257 0.87868-2.1213s-0.3161-1.5587-0.87868-2.1213c-0.56258-0.56258-1.3257-0.87868-2.1213-0.87868s-1.5587 0.3161-2.1213 0.87868c-0.56258 0.56258-0.87868 1.3257-0.87868 2.1213s0.3161 1.5587 0.87868 2.1213c0.56258 0.56258 1.3257 0.87868 2.1213 0.87868z" stroke="#9467bd"/></defs><g clip-path="url(#p68cd63bb41)" fill="#9467bd" stroke="#9467bd"><use x="645.273269" y="122.38356" xlink:href="#m3f9d4ab0bc"/><use x="555.801865" y="139.541726" xlink:href="#m3f9d4ab0bc"/><use x="469.322421" y="159.159489" xlink:href="#m3f9d4ab0bc"/><use x="380.455947" y="184.024522" xlink:href="#m3f9d4ab0bc"/><use x="323.301319" y="201.176282" xlink:href="#m3f9d4ab0bc"/><use x="251.39853" y="229.020981" xlink:href="#m3f9d4ab0bc"/><use x="189.212895" y="259.235396" xlink:href="#m3f9d4ab0bc"/><use x="141.484539" y="289.574052" xlink:href="#m3f9d4ab0bc"/><use x="104.249477" y="330.093927" xlink:href="#m3f9d4ab0bc"/><use x="83.859737" y="373.805455" xlink:href="#m3f9d4ab0bc"/></g></g><g id="patch_3"><path d="m53.93 390.04v-357.16" fill="none" stroke="#808080" stroke-linecap="square" stroke-width=".8"/></g><g id="patch_4"><path d="m709.2 390.04v-357.16" fill="none" stroke="#808080" stroke-linecap="square" stroke-width=".8"/></g><g id="patch_5"><path d="m53.93 390.04h655.27" fill="none" stroke="#808080" stroke-linecap="square" stroke-width=".8"/></g><g id="patch_6"><path d="m53.93 32.88h655.27" fill="none" stroke="#808080" stroke-linecap="square" stroke-width=".8"/></g><g id="text_17" fill="#fff"><path d="m625.22 77.605q-0.86 0-1.3662 0.64125-0.505 0.64-0.505 1.7462 0 1.1012 0.505 1.7425 0.50625 0.64 1.3662 0.64 0.85875 0 1.3612-0.64 0.5025-0.64125 0.5025-1.7425 0-1.1062-0.5025-1.7462-0.5025-0.64125-1.3612-0.64125zm1.105 5.1925 1.04 1.1362h-0.95375l-0.86375-0.93375q-0.12875 0.0075-0.1975 0.01125-0.0675 5e-3 -0.13 5e-3 -1.23 0-1.9675-0.8225-0.73625-0.8225-0.73625-2.2012 0-1.3825 0.73625-2.205 0.7375-0.8225 1.9675-0.8225 1.2262 0 1.96 0.8225 0.735 0.8225 0.735 2.205 0 1.015-0.40875 1.7388-0.4075 0.7225-1.1812 1.0662zm3.0319-0.55875h1.2888v-4.45l-1.4025 0.28125v-0.71875l1.395-0.28125h0.78875v5.1688h1.2888v0.66375h-3.3588v-0.66375zm6.6398-4.6488q-0.60875 0-0.91625 0.6-0.30625 0.59875-0.30625 1.8025 0 1.1988 0.30625 1.7988 0.3075 0.6 0.91625 0.6 0.61375 0 0.92-0.6 0.3075-0.6 0.3075-1.7988 0-1.2038-0.3075-1.8025-0.30625-0.6-0.92-0.6zm0-0.625q0.98125 0 1.4988 0.77625 0.5175 0.775 0.5175 2.2512 0 1.4725-0.5175 2.2488-0.5175 0.775-1.4988 0.775-0.98 0-1.4975-0.775-0.5175-0.77625-0.5175-2.2488 0-1.4762 0.5175-2.2512 0.5175-0.77625 1.4975-0.77625z" stroke="#000" stroke-width="2"/><path d="m625.22 77.605q-0.86 0-1.3662 0.64125-0.505 0.64-0.505 1.7462 0 1.1012 0.505 1.7425 0.50625 0.64 1.3662 0.64 0.85875 0 1.3612-0.64 0.5025-0.64125 0.5025-1.7425 0-1.1062-0.5025-1.7462-0.5025-0.64125-1.3612-0.64125zm1.105 5.1925 1.04 1.1362h-0.95375l-0.86375-0.93375q-0.12875 0.0075-0.1975 0.01125-0.0675 5e-3 -0.13 5e-3 -1.23 0-1.9675-0.8225-0.73625-0.8225-0.73625-2.2012 0-1.3825 0.73625-2.205 0.7375-0.8225 1.9675-0.8225 1.2262 0 1.96 0.8225 0.735 0.8225 0.735 2.205 0 1.015-0.40875 1.7388-0.4075 0.7225-1.1812 1.0662zm3.0319-0.55875h1.2888v-4.45l-1.4025 0.28125v-0.71875l1.395-0.28125h0.78875v5.1688h1.2888v0.66375h-3.3588v-0.66375zm6.6398-4.6488q-0.60875 0-0.91625 0.6-0.30625 0.59875-0.30625 1.8025 0 1.1988 0.30625 1.7988 0.3075 0.6 0.91625 0.6 0.61375 0 0.92-0.6 0.3075-0.6 0.3075-1.7988 0-1.2038-0.3075-1.8025-0.30625-0.6-0.92-0.6zm0-0.625q0.98125 0 1.4988 0.77625 0.5175 0.775 0.5175 2.2512 0 1.4725-0.5175 2.2488-0.5175 0.775-1.4988 0.775-0.98 0-1.4975-0.775-0.5175-0.77625-0.5175-2.2488 0-1.4762 0.5175-2.2512 0.5175-0.77625 1.4975-0.77625z"/></g><g id="text_18" fill="#fff"><path d="m538.14 99.945q-0.86 0-1.3662 0.64125-0.505 0.64-0.505 1.7462 0 1.1012 0.505 1.7425 0.50625 0.64 1.3662 0.64 0.85875 0 1.3612-0.64 0.5025-0.64125 0.5025-1.7425 0-1.1062-0.5025-1.7462-0.5025-0.64125-1.3612-0.64125zm1.105 5.1925 1.04 1.1362h-0.95375l-0.86375-0.93375q-0.12875 0.0075-0.1975 0.01125-0.0675 5e-3 -0.13 5e-3 -1.23 0-1.9675-0.8225-0.73625-0.8225-0.73625-2.2012 0-1.3825 0.73625-2.205 0.7375-0.8225 1.9675-0.8225 1.2262 0 1.96 0.8225 0.735 0.8225 0.735 2.205 0 1.015-0.40875 1.7388-0.4075 0.7225-1.1812 1.0662zm3.0319-0.55875h1.2888v-4.45l-1.4025 0.28125v-0.71875l1.395-0.28125h0.78875v5.1688h1.2888v0.66375h-3.3588v-0.66375zm5.6323 0h2.7538v0.66375h-3.7025v-0.66375q0.44875-0.465 1.2238-1.2475 0.77625-0.78375 0.975-1.0112 0.37875-0.425 0.52875-0.72 0.15125-0.295 0.15125-0.58 0-0.465-0.32625-0.7575-0.32625-0.29375-0.85-0.29375-0.37125 0-0.78375 0.12875-0.41125 0.12875-0.88 0.39125v-0.7975q0.47625-0.19125 0.89-0.28875 0.415-0.0975 0.75875-0.0975 0.90625 0 1.445 0.45375 0.53875 0.4525 0.53875 1.21 0 0.36-0.135 0.6825-0.13375 0.32125-0.49 0.75875-0.0975 0.11375-0.62125 0.655-0.5225 0.54125-1.4762 1.5138z" stroke="#000" stroke-width="2"/><path d="m538.14 99.945q-0.86 0-1.3662 0.64125-0.505 0.64-0.505 1.7462 0 1.1012 0.505 1.7425 0.50625 0.64 1.3662 0.64 0.85875 0 1.3612-0.64 0.5025-0.64125 0.5025-1.7425 0-1.1062-0.5025-1.7462-0.5025-0.64125-1.3612-0.64125zm1.105 5.1925 1.04 1.1362h-0.95375l-0.86375-0.93375q-0.12875 0.0075-0.1975 0.01125-0.0675 5e-3 -0.13 5e-3 -1.23 0-1.9675-0.8225-0.73625-0.8225-0.73625-2.2012 0-1.3825 0.73625-2.205 0.7375-0.8225 1.9675-0.8225 1.2262 0 1.96 0.8225 0.735 0.8225 0.735 2.205 0 1.015-0.40875 1.7388-0.4075 0.7225-1.1812 1.0662zm3.0319-0.55875h1.2888v-4.45l-1.4025 0.28125v-0.71875l1.395-0.28125h0.78875v5.1688h1.2888v0.66375h-3.3588v-0.66375zm5.6323 0h2.7538v0.66375h-3.7025v-0.66375q0.44875-0.465 1.2238-1.2475 0.77625-0.78375 0.975-1.0112 0.37875-0.425 0.52875-0.72 0.15125-0.295 0.15125-0.58 0-0.465-0.32625-0.7575-0.32625-0.29375-0.85-0.29375-0.37125 0-0.78375 0.12875-0.41125 0.12875-0.88 0.39125v-0.7975q0.47625-0.19125 0.89-0.28875 0.415-0.0975 0.75875-0.0975 0.90625 0 1.445 0.45375 0.53875 0.4525 0.53875 1.21 0 0.36-0.135 0.6825-0.13375 0.32125-0.49 0.75875-0.0975 0.11375-0.62125 0.655-0.5225 0.54125-1.4762 1.5138z"/></g><g id="text_19" fill="#fff"><path d="m455.79 122.51q-0.86 0-1.3662 0.64125-0.505 0.64-0.505 1.7462 0 1.1012 0.505 1.7425 0.50625 0.64 1.3662 0.64 0.85875 0 1.3612-0.64 0.5025-0.64125 0.5025-1.7425 0-1.1062-0.5025-1.7462-0.5025-0.64125-1.3612-0.64125zm1.105 5.1925 1.04 1.1362h-0.95375l-0.86375-0.93375q-0.12875 0.0075-0.1975 0.01125-0.0675 5e-3 -0.13 5e-3 -1.23 0-1.9675-0.8225-0.73625-0.8225-0.73625-2.2012 0-1.3825 0.73625-2.205 0.7375-0.8225 1.9675-0.8225 1.2262 0 1.96 0.8225 0.735 0.8225 0.735 2.205 0 1.015-0.40875 1.7388-0.4075 0.7225-1.1812 1.0662zm3.0319-0.55875h1.2888v-4.45l-1.4025 0.28125v-0.71875l1.395-0.28125h0.78875v5.1688h1.2888v0.66375h-3.3588v-0.66375zm4.9611-5.1688h3.0975v0.665h-2.375v1.4288q0.17125-0.05875 0.3425-0.0875 0.1725-0.02875 0.345-0.02875 0.97625 0 1.5462 0.535 0.57125 0.535 0.57125 1.4488 0 0.94125-0.58625 1.4638-0.58625 0.52125-1.6525 0.52125-0.3675 0-0.74875-0.0625-0.38-0.0625-0.78625-0.1875v-0.79375q0.35125 0.19125 0.72625 0.285t0.7925 0.09375q0.67625 0 1.07-0.355 0.395-0.355 0.395-0.965 0-0.60875-0.395-0.96375-0.39375-0.35625-1.07-0.35625-0.31625 0-0.63125 0.07-0.31375 0.07-0.64125 0.21875v-2.93z" stroke="#000" stroke-width="2"/><path d="m455.79 122.51q-0.86 0-1.3662 0.64125-0.505 0.64-0.505 1.7462 0 1.1012 0.505 1.7425 0.50625 0.64 1.3662 0.64 0.85875 0 1.3612-0.64 0.5025-0.64125 0.5025-1.7425 0-1.1062-0.5025-1.7462-0.5025-0.64125-1.3612-0.64125zm1.105 5.1925 1.04 1.1362h-0.95375l-0.86375-0.93375q-0.12875 0.0075-0.1975 0.01125-0.0675 5e-3 -0.13 5e-3 -1.23 0-1.9675-0.8225-0.73625-0.8225-0.73625-2.2012 0-1.3825 0.73625-2.205 0.7375-0.8225 1.9675-0.8225 1.2262 0 1.96 0.8225 0.735 0.8225 0.735 2.205 0 1.015-0.40875 1.7388-0.4075 0.7225-1.1812 1.0662zm3.0319-0.55875h1.2888v-4.45l-1.4025 0.28125v-0.71875l1.395-0.28125h0.78875v5.1688h1.2888v0.66375h-3.3588v-0.66375zm4.9611-5.1688h3.0975v0.665h-2.375v1.4288q0.17125-0.05875 0.3425-0.0875 0.1725-0.02875 0.345-0.02875 0.97625 0 1.5462 0.535 0.57125 0.535 0.57125 1.4488 0 0.94125-0.58625 1.4638-0.58625 0.52125-1.6525 0.52125-0.3675 0-0.74875-0.0625-0.38-0.0625-0.78625-0.1875v-0.79375q0.35125 0.19125 0.72625 0.285t0.7925 0.09375q0.67625 0 1.07-0.355 0.395-0.355 0.395-0.965 0-0.60875-0.395-0.96375-0.39375-0.35625-1.07-0.35625-0.31625 0-0.63125 0.07-0.31375 0.07-0.64125 0.21875v-2.93z"/></g><g id="text_20" fill="#fff"><path d="m368.75 149.92q-0.86 0-1.3662 0.64125-0.505 0.64-0.505 1.7462 0 1.1012 0.505 1.7425 0.50625 0.64 1.3662 0.64 0.85875 0 1.3612-0.64 0.5025-0.64125 0.5025-1.7425 0-1.1062-0.5025-1.7462-0.5025-0.64125-1.3612-0.64125zm1.105 5.1925 1.04 1.1362h-0.95375l-0.86375-0.93375q-0.12875 0.0075-0.1975 0.01125-0.0675 5e-3 -0.13 5e-3 -1.23 0-1.9675-0.8225-0.73625-0.8225-0.73625-2.2012 0-1.3825 0.73625-2.205 0.7375-0.8225 1.9675-0.8225 1.2262 0 1.96 0.8225 0.735 0.8225 0.735 2.205 0 1.015-0.40875 1.7388-0.4075 0.7225-1.1812 1.0662zm3.0319-0.55875h1.2888v-4.45l-1.4025 0.28125v-0.71875l1.395-0.28125h0.78875v5.1688h1.2888v0.66375h-3.3588v-0.66375zm4.9761 0.5425v-0.71875q0.2975 0.14125 0.60125 0.215 0.305 0.07375 0.59875 0.07375 0.78125 0 1.1925-0.525 0.4125-0.525 0.47125-1.5962-0.22625 0.33625-0.575 0.51625-0.3475 0.18-0.76875 0.18-0.875 0-1.385-0.52875-0.51-0.53-0.51-1.4488 0-0.8975 0.53125-1.44 0.53125-0.54375 1.4138-0.54375 1.0125 0 1.545 0.77625 0.53375 0.775 0.53375 2.2512 0 1.3788-0.655 2.2012-0.65375 0.8225-1.7588 0.8225-0.2975 0-0.6025-0.05875-0.30375-0.05875-0.6325-0.17625zm1.57-2.4725q0.53125 0 0.84125-0.3625 0.31125-0.36375 0.31125-0.9975 0-0.62875-0.31125-0.99375-0.31-0.365-0.84125-0.365t-0.84125 0.365-0.31 0.99375q0 0.63375 0.31 0.9975 0.31 0.3625 0.84125 0.3625z" stroke="#000" stroke-width="2"/><path d="m368.75 149.92q-0.86 0-1.3662 0.64125-0.505 0.64-0.505 1.7462 0 1.1012 0.505 1.7425 0.50625 0.64 1.3662 0.64 0.85875 0 1.3612-0.64 0.5025-0.64125 0.5025-1.7425 0-1.1062-0.5025-1.7462-0.5025-0.64125-1.3612-0.64125zm1.105 5.1925 1.04 1.1362h-0.95375l-0.86375-0.93375q-0.12875 0.0075-0.1975 0.01125-0.0675 5e-3 -0.13 5e-3 -1.23 0-1.9675-0.8225-0.73625-0.8225-0.73625-2.2012 0-1.3825 0.73625-2.205 0.7375-0.8225 1.9675-0.8225 1.2262 0 1.96 0.8225 0.735 0.8225 0.735 2.205 0 1.015-0.40875 1.7388-0.4075 0.7225-1.1812 1.0662zm3.0319-0.55875h1.2888v-4.45l-1.4025 0.28125v-0.71875l1.395-0.28125h0.78875v5.1688h1.2888v0.66375h-3.3588v-0.66375zm4.9761 0.5425v-0.71875q0.2975 0.14125 0.60125 0.215 0.305 0.07375 0.59875 0.07375 0.78125 0 1.1925-0.525 0.4125-0.525 0.47125-1.5962-0.22625 0.33625-0.575 0.51625-0.3475 0.18-0.76875 0.18-0.875 0-1.385-0.52875-0.51-0.53-0.51-1.4488 0-0.8975 0.53125-1.44 0.53125-0.54375 1.4138-0.54375 1.0125 0 1.545 0.77625 0.53375 0.775 0.53375 2.2512 0 1.3788-0.655 2.2012-0.65375 0.8225-1.7588 0.8225-0.2975 0-0.6025-0.05875-0.30375-0.05875-0.6325-0.17625zm1.57-2.4725q0.53125 0 0.84125-0.3625 0.31125-0.36375 0.31125-0.9975 0-0.62875-0.31125-0.99375-0.31-0.365-0.84125-0.365t-0.84125 0.365-0.31 0.99375q0 0.63375 0.31 0.9975 0.31 0.3625 0.84125 0.3625z"/></g><g id="text_21" fill="#fff"><path d="m312.79 168.54q-0.86 0-1.3662 0.64125-0.505 0.64-0.505 1.7462 0 1.1012 0.505 1.7425 0.50625 0.64 1.3662 0.64 0.85875 0 1.3612-0.64 0.5025-0.64125 0.5025-1.7425 0-1.1062-0.5025-1.7462-0.5025-0.64125-1.3612-0.64125zm1.105 5.1925 1.04 1.1362h-0.95375l-0.86375-0.93375q-0.12875 0.0075-0.1975 0.01125-0.0675 5e-3 -0.13 5e-3 -1.23 0-1.9675-0.8225-0.73625-0.8225-0.73625-2.2012 0-1.3825 0.73625-2.205 0.7375-0.8225 1.9675-0.8225 1.2262 0 1.96 0.8225 0.735 0.8225 0.735 2.205 0 1.015-0.40875 1.7388-0.4075 0.7225-1.1812 1.0662zm3.5744-0.55875h2.7538v0.66375h-3.7025v-0.66375q0.44875-0.465 1.2238-1.2475 0.77625-0.78375 0.975-1.0112 0.37875-0.425 0.52875-0.72 0.15125-0.295 0.15125-0.58 0-0.465-0.32625-0.7575-0.32625-0.29375-0.85-0.29375-0.37125 0-0.78375 0.12875-0.41125 0.12875-0.88 0.39125v-0.7975q0.47625-0.19125 0.89-0.28875 0.415-0.0975 0.75875-0.0975 0.90625 0 1.445 0.45375 0.53875 0.4525 0.53875 1.21 0 0.36-0.135 0.6825-0.13375 0.32125-0.49 0.75875-0.0975 0.11375-0.62125 0.655-0.5225 0.54125-1.4762 1.5138zm6.8011-2.4812q0.56625 0.12125 0.88375 0.505 0.31875 0.3825 0.31875 0.945 0 0.8625-0.59375 1.3362-0.59375 0.4725-1.6875 0.4725-0.36625 0-0.755-0.0725t-0.8025-0.2175v-0.76125q0.3275 0.19125 0.7175 0.28875 0.39125 0.0975 0.8175 0.0975 0.74125 0 1.13-0.2925t0.38875-0.85125q0-0.51625-0.36125-0.80625-0.36125-0.29125-1.005-0.29125h-0.68v-0.64875h0.71125q0.58125 0 0.89-0.2325t0.30875-0.67q0-0.44875-0.31875-0.68875-0.3175-0.24125-0.91125-0.24125-0.325 0-0.69625 0.07125-0.37125 0.07-0.81625 0.2175v-0.7025q0.45-0.125 0.8425-0.1875t0.74-0.0625q0.89875 0 1.4212 0.40875 0.52375 0.4075 0.52375 1.1025 0 0.485-0.2775 0.81875t-0.78875 0.4625z" stroke="#000" stroke-width="2"/><path d="m312.79 168.54q-0.86 0-1.3662 0.64125-0.505 0.64-0.505 1.7462 0 1.1012 0.505 1.7425 0.50625 0.64 1.3662 0.64 0.85875 0 1.3612-0.64 0.5025-0.64125 0.5025-1.7425 0-1.1062-0.5025-1.7462-0.5025-0.64125-1.3612-0.64125zm1.105 5.1925 1.04 1.1362h-0.95375l-0.86375-0.93375q-0.12875 0.0075-0.1975 0.01125-0.0675 5e-3 -0.13 5e-3 -1.23 0-1.9675-0.8225-0.73625-0.8225-0.73625-2.2012 0-1.3825 0.73625-2.205 0.7375-0.8225 1.9675-0.8225 1.2262 0 1.96 0.8225 0.735 0.8225 0.735 2.205 0 1.015-0.40875 1.7388-0.4075 0.7225-1.1812 1.0662zm3.5744-0.55875h2.7538v0.66375h-3.7025v-0.66375q0.44875-0.465 1.2238-1.2475 0.77625-0.78375 0.975-1.0112 0.37875-0.425 0.52875-0.72 0.15125-0.295 0.15125-0.58 0-0.465-0.32625-0.7575-0.32625-0.29375-0.85-0.29375-0.37125 0-0.78375 0.12875-0.41125 0.12875-0.88 0.39125v-0.7975q0.47625-0.19125 0.89-0.28875 0.415-0.0975 0.75875-0.0975 0.90625 0 1.445 0.45375 0.53875 0.4525 0.53875 1.21 0 0.36-0.135 0.6825-0.13375 0.32125-0.49 0.75875-0.0975 0.11375-0.62125 0.655-0.5225 0.54125-1.4762 1.5138zm6.8011-2.4812q0.56625 0.12125 0.88375 0.505 0.31875 0.3825 0.31875 0.945 0 0.8625-0.59375 1.3362-0.59375 0.4725-1.6875 0.4725-0.36625 0-0.755-0.0725t-0.8025-0.2175v-0.76125q0.3275 0.19125 0.7175 0.28875 0.39125 0.0975 0.8175 0.0975 0.74125 0 1.13-0.2925t0.38875-0.85125q0-0.51625-0.36125-0.80625-0.36125-0.29125-1.005-0.29125h-0.68v-0.64875h0.71125q0.58125 0 0.89-0.2325t0.30875-0.67q0-0.44875-0.31875-0.68875-0.3175-0.24125-0.91125-0.24125-0.325 0-0.69625 0.07125-0.37125 0.07-0.81625 0.2175v-0.7025q0.45-0.125 0.8425-0.1875t0.74-0.0625q0.89875 0 1.4212 0.40875 0.52375 0.4075 0.52375 1.1025 0 0.485-0.2775 0.81875t-0.78875 0.4625z"/></g><g id="text_22" fill="#fff"><path d="m232.11 204.49q-0.86 0-1.3662 0.64125-0.505 0.64-0.505 1.7462 0 1.1012 0.505 1.7425 0.50625 0.64 1.3662 0.64 0.85875 0 1.3612-0.64 0.5025-0.64125 0.5025-1.7425 0-1.1062-0.5025-1.7462-0.5025-0.64125-1.3612-0.64125zm1.105 5.1925 1.04 1.1362h-0.95375l-0.86375-0.93375q-0.12875 0.0075-0.1975 0.01125-0.0675 5e-3 -0.13 5e-3 -1.23 0-1.9675-0.8225-0.73625-0.8225-0.73625-2.2012 0-1.3825 0.73625-2.205 0.7375-0.8225 1.9675-0.8225 1.2262 0 1.96 0.8225 0.735 0.8225 0.735 2.205 0 1.015-0.40875 1.7388-0.4075 0.7225-1.1812 1.0662zm3.5744-0.55875h2.7538v0.66375h-3.7025v-0.66375q0.44875-0.465 1.2238-1.2475 0.77625-0.78375 0.975-1.0112 0.37875-0.425 0.52875-0.72 0.15125-0.295 0.15125-0.58 0-0.465-0.32625-0.7575-0.32625-0.29375-0.85-0.29375-0.37125 0-0.78375 0.12875-0.41125 0.12875-0.88 0.39125v-0.7975q0.47625-0.19125 0.89-0.28875 0.415-0.0975 0.75875-0.0975 0.90625 0 1.445 0.45375 0.53875 0.4525 0.53875 1.21 0 0.36-0.135 0.6825-0.13375 0.32125-0.49 0.75875-0.0975 0.11375-0.62125 0.655-0.5225 0.54125-1.4762 1.5138zm6.0973-2.1062q-0.5625 0-0.885 0.30125-0.32125 0.30125-0.32125 0.8275 0 0.5275 0.32125 0.82875 0.3225 0.30125 0.885 0.30125t0.88625-0.3025q0.325-0.30375 0.325-0.8275 0-0.52625-0.3225-0.8275-0.32125-0.30125-0.88875-0.30125zm-0.78875-0.335q-0.5075-0.125-0.79125-0.4725-0.2825-0.34875-0.2825-0.84875 0-0.69875 0.4975-1.105 0.49875-0.40625 1.365-0.40625 0.87125 0 1.3675 0.40625t0.49625 1.105q0 0.5-0.28375 0.84875-0.2825 0.3475-0.78625 0.4725 0.57 0.1325 0.8875 0.52 0.31875 0.38625 0.31875 0.94375 0 0.84875-0.5175 1.3025-0.5175 0.4525-1.4825 0.4525-0.96375 0-1.4825-0.4525-0.5175-0.45375-0.5175-1.3025 0-0.5575 0.32-0.94375 0.32125-0.3875 0.89125-0.52zm-0.28875-1.2462q0 0.4525 0.2825 0.70625 0.28375 0.25375 0.795 0.25375 0.50875 0 0.795-0.25375 0.2875-0.25375 0.2875-0.70625 0-0.45375-0.2875-0.7075-0.28625-0.25375-0.795-0.25375-0.51125 0-0.795 0.25375-0.2825 0.25375-0.2825 0.7075z" stroke="#000" stroke-width="2"/><path d="m232.11 204.49q-0.86 0-1.3662 0.64125-0.505 0.64-0.505 1.7462 0 1.1012 0.505 1.7425 0.50625 0.64 1.3662 0.64 0.85875 0 1.3612-0.64 0.5025-0.64125 0.5025-1.7425 0-1.1062-0.5025-1.7462-0.5025-0.64125-1.3612-0.64125zm1.105 5.1925 1.04 1.1362h-0.95375l-0.86375-0.93375q-0.12875 0.0075-0.1975 0.01125-0.0675 5e-3 -0.13 5e-3 -1.23 0-1.9675-0.8225-0.73625-0.8225-0.73625-2.2012 0-1.3825 0.73625-2.205 0.7375-0.8225 1.9675-0.8225 1.2262 0 1.96 0.8225 0.735 0.8225 0.735 2.205 0 1.015-0.40875 1.7388-0.4075 0.7225-1.1812 1.0662zm3.5744-0.55875h2.7538v0.66375h-3.7025v-0.66375q0.44875-0.465 1.2238-1.2475 0.77625-0.78375 0.975-1.0112 0.37875-0.425 0.52875-0.72 0.15125-0.295 0.15125-0.58 0-0.465-0.32625-0.7575-0.32625-0.29375-0.85-0.29375-0.37125 0-0.78375 0.12875-0.41125 0.12875-0.88 0.39125v-0.7975q0.47625-0.19125 0.89-0.28875 0.415-0.0975 0.75875-0.0975 0.90625 0 1.445 0.45375 0.53875 0.4525 0.53875 1.21 0 0.36-0.135 0.6825-0.13375 0.32125-0.49 0.75875-0.0975 0.11375-0.62125 0.655-0.5225 0.54125-1.4762 1.5138zm6.0973-2.1062q-0.5625 0-0.885 0.30125-0.32125 0.30125-0.32125 0.8275 0 0.5275 0.32125 0.82875 0.3225 0.30125 0.885 0.30125t0.88625-0.3025q0.325-0.30375 0.325-0.8275 0-0.52625-0.3225-0.8275-0.32125-0.30125-0.88875-0.30125zm-0.78875-0.335q-0.5075-0.125-0.79125-0.4725-0.2825-0.34875-0.2825-0.84875 0-0.69875 0.4975-1.105 0.49875-0.40625 1.365-0.40625 0.87125 0 1.3675 0.40625t0.49625 1.105q0 0.5-0.28375 0.84875-0.2825 0.3475-0.78625 0.4725 0.57 0.1325 0.8875 0.52 0.31875 0.38625 0.31875 0.94375 0 0.84875-0.5175 1.3025-0.5175 0.4525-1.4825 0.4525-0.96375 0-1.4825-0.4525-0.5175-0.45375-0.5175-1.3025 0-0.5575 0.32-0.94375 0.32125-0.3875 0.89125-0.52zm-0.28875-1.2462q0 0.4525 0.2825 0.70625 0.28375 0.25375 0.795 0.25375 0.50875 0 0.795-0.25375 0.2875-0.25375 0.2875-0.70625 0-0.45375-0.2875-0.7075-0.28625-0.25375-0.795-0.25375-0.51125 0-0.795 0.25375-0.2825 0.25375-0.2825 0.7075z"/></g><g id="text_23" fill="#fff"><path d="m174.18 238.02q-0.86 0-1.3662 0.64125-0.505 0.64-0.505 1.7462 0 1.1012 0.505 1.7425 0.50625 0.64 1.3662 0.64 0.85875 0 1.3612-0.64 0.5025-0.64125 0.5025-1.7425 0-1.1062-0.5025-1.7462-0.5025-0.64125-1.3612-0.64125zm1.105 5.1925 1.04 1.1362h-0.95375l-0.86375-0.93375q-0.12875 0.0075-0.1975 0.01125-0.0675 5e-3 -0.13 5e-3 -1.23 0-1.9675-0.8225-0.73625-0.8225-0.73625-2.2012 0-1.3825 0.73625-2.205 0.7375-0.8225 1.9675-0.8225 1.2262 0 1.96 0.8225 0.735 0.8225 0.735 2.205 0 1.015-0.40875 1.7388-0.4075 0.7225-1.1812 1.0662zm5.2856-3.04q0.56625 0.12125 0.88375 0.505 0.31875 0.3825 0.31875 0.945 0 0.8625-0.59375 1.3362-0.59375 0.4725-1.6875 0.4725-0.36625 0-0.755-0.0725t-0.8025-0.2175v-0.76125q0.3275 0.19125 0.7175 0.28875 0.39125 0.0975 0.8175 0.0975 0.74125 0 1.13-0.2925t0.38875-0.85125q0-0.51625-0.36125-0.80625-0.36125-0.29125-1.005-0.29125h-0.68v-0.64875h0.71125q0.58125 0 0.89-0.2325t0.30875-0.67q0-0.44875-0.31875-0.68875-0.3175-0.24125-0.91125-0.24125-0.325 0-0.69625 0.07125-0.37125 0.07-0.81625 0.2175v-0.7025q0.45-0.125 0.8425-0.1875t0.74-0.0625q0.89875 0 1.4212 0.40875 0.52375 0.4075 0.52375 1.1025 0 0.485-0.2775 0.81875t-0.78875 0.4625zm5.0898 0q0.56625 0.12125 0.88375 0.505 0.31875 0.3825 0.31875 0.945 0 0.8625-0.59375 1.3362-0.59375 0.4725-1.6875 0.4725-0.36625 0-0.755-0.0725t-0.8025-0.2175v-0.76125q0.3275 0.19125 0.7175 0.28875 0.39125 0.0975 0.8175 0.0975 0.74125 0 1.13-0.2925t0.38875-0.85125q0-0.51625-0.36125-0.80625-0.36125-0.29125-1.005-0.29125h-0.68v-0.64875h0.71125q0.58125 0 0.89-0.2325t0.30875-0.67q0-0.44875-0.31875-0.68875-0.3175-0.24125-0.91125-0.24125-0.325 0-0.69625 0.07125-0.37125 0.07-0.81625 0.2175v-0.7025q0.45-0.125 0.8425-0.1875t0.74-0.0625q0.89875 0 1.4212 0.40875 0.52375 0.4075 0.52375 1.1025 0 0.485-0.2775 0.81875t-0.78875 0.4625z" stroke="#000" stroke-width="2"/><path d="m174.18 238.02q-0.86 0-1.3662 0.64125-0.505 0.64-0.505 1.7462 0 1.1012 0.505 1.7425 0.50625 0.64 1.3662 0.64 0.85875 0 1.3612-0.64 0.5025-0.64125 0.5025-1.7425 0-1.1062-0.5025-1.7462-0.5025-0.64125-1.3612-0.64125zm1.105 5.1925 1.04 1.1362h-0.95375l-0.86375-0.93375q-0.12875 0.0075-0.1975 0.01125-0.0675 5e-3 -0.13 5e-3 -1.23 0-1.9675-0.8225-0.73625-0.8225-0.73625-2.2012 0-1.3825 0.73625-2.205 0.7375-0.8225 1.9675-0.8225 1.2262 0 1.96 0.8225 0.735 0.8225 0.735 2.205 0 1.015-0.40875 1.7388-0.4075 0.7225-1.1812 1.0662zm5.2856-3.04q0.56625 0.12125 0.88375 0.505 0.31875 0.3825 0.31875 0.945 0 0.8625-0.59375 1.3362-0.59375 0.4725-1.6875 0.4725-0.36625 0-0.755-0.0725t-0.8025-0.2175v-0.76125q0.3275 0.19125 0.7175 0.28875 0.39125 0.0975 0.8175 0.0975 0.74125 0 1.13-0.2925t0.38875-0.85125q0-0.51625-0.36125-0.80625-0.36125-0.29125-1.005-0.29125h-0.68v-0.64875h0.71125q0.58125 0 0.89-0.2325t0.30875-0.67q0-0.44875-0.31875-0.68875-0.3175-0.24125-0.91125-0.24125-0.325 0-0.69625 0.07125-0.37125 0.07-0.81625 0.2175v-0.7025q0.45-0.125 0.8425-0.1875t0.74-0.0625q0.89875 0 1.4212 0.40875 0.52375 0.4075 0.52375 1.1025 0 0.485-0.2775 0.81875t-0.78875 0.4625zm5.0898 0q0.56625 0.12125 0.88375 0.505 0.31875 0.3825 0.31875 0.945 0 0.8625-0.59375 1.3362-0.59375 0.4725-1.6875 0.4725-0.36625 0-0.755-0.0725t-0.8025-0.2175v-0.76125q0.3275 0.19125 0.7175 0.28875 0.39125 0.0975 0.8175 0.0975 0.74125 0 1.13-0.2925t0.38875-0.85125q0-0.51625-0.36125-0.80625-0.36125-0.29125-1.005-0.29125h-0.68v-0.64875h0.71125q0.58125 0 0.89-0.2325t0.30875-0.67q0-0.44875-0.31875-0.68875-0.3175-0.24125-0.91125-0.24125-0.325 0-0.69625 0.07125-0.37125 0.07-0.81625 0.2175v-0.7025q0.45-0.125 0.8425-0.1875t0.74-0.0625q0.89875 0 1.4212 0.40875 0.52375 0.4075 0.52375 1.1025 0 0.485-0.2775 0.81875t-0.78875 0.4625z"/></g><g id="text_24" fill="#fff"><path d="m130.03 273.69q-0.86 0-1.3662 0.64125-0.505 0.64-0.505 1.7462 0 1.1012 0.505 1.7425 0.50625 0.64 1.3662 0.64 0.85875 0 1.3612-0.64 0.5025-0.64125 0.5025-1.7425 0-1.1062-0.5025-1.7462-0.5025-0.64125-1.3612-0.64125zm1.105 5.1925 1.04 1.1362h-0.95375l-0.86375-0.93375q-0.12875 0.0075-0.1975 0.01125-0.0675 5e-3 -0.13 5e-3 -1.23 0-1.9675-0.8225-0.73625-0.8225-0.73625-2.2012 0-1.3825 0.73625-2.205 0.7375-0.8225 1.9675-0.8225 1.2262 0 1.96 0.8225 0.735 0.8225 0.735 2.205 0 1.015-0.40875 1.7388-0.4075 0.7225-1.1812 1.0662zm5.2856-3.04q0.56625 0.12125 0.88375 0.505 0.31875 0.3825 0.31875 0.945 0 0.8625-0.59375 1.3362-0.59375 0.4725-1.6875 0.4725-0.36625 0-0.755-0.0725t-0.8025-0.2175v-0.76125q0.3275 0.19125 0.7175 0.28875 0.39125 0.0975 0.8175 0.0975 0.74125 0 1.13-0.2925t0.38875-0.85125q0-0.51625-0.36125-0.80625-0.36125-0.29125-1.005-0.29125h-0.68v-0.64875h0.71125q0.58125 0 0.89-0.2325t0.30875-0.67q0-0.44875-0.31875-0.68875-0.3175-0.24125-0.91125-0.24125-0.325 0-0.69625 0.07125-0.37125 0.07-0.81625 0.2175v-0.7025q0.45-0.125 0.8425-0.1875t0.74-0.0625q0.89875 0 1.4212 0.40875 0.52375 0.4075 0.52375 1.1025 0 0.485-0.2775 0.81875t-0.78875 0.4625zm4.3861 0.375q-0.5625 0-0.885 0.30125-0.32125 0.30125-0.32125 0.8275 0 0.5275 0.32125 0.82875 0.3225 0.30125 0.885 0.30125t0.88625-0.3025q0.325-0.30375 0.325-0.8275 0-0.52625-0.3225-0.8275-0.32125-0.30125-0.88875-0.30125zm-0.78875-0.335q-0.5075-0.125-0.79125-0.4725-0.2825-0.34875-0.2825-0.84875 0-0.69875 0.4975-1.105 0.49875-0.40625 1.365-0.40625 0.87125 0 1.3675 0.40625t0.49625 1.105q0 0.5-0.28375 0.84875-0.2825 0.3475-0.78625 0.4725 0.57 0.1325 0.8875 0.52 0.31875 0.38625 0.31875 0.94375 0 0.84875-0.5175 1.3025-0.5175 0.4525-1.4825 0.4525-0.96375 0-1.4825-0.4525-0.5175-0.45375-0.5175-1.3025 0-0.5575 0.32-0.94375 0.32125-0.3875 0.89125-0.52zm-0.28875-1.2462q0 0.4525 0.2825 0.70625 0.28375 0.25375 0.795 0.25375 0.50875 0 0.795-0.25375 0.2875-0.25375 0.2875-0.70625 0-0.45375-0.2875-0.7075-0.28625-0.25375-0.795-0.25375-0.51125 0-0.795 0.25375-0.2825 0.25375-0.2825 0.7075z" stroke="#000" stroke-width="2"/><path d="m130.03 273.69q-0.86 0-1.3662 0.64125-0.505 0.64-0.505 1.7462 0 1.1012 0.505 1.7425 0.50625 0.64 1.3662 0.64 0.85875 0 1.3612-0.64 0.5025-0.64125 0.5025-1.7425 0-1.1062-0.5025-1.7462-0.5025-0.64125-1.3612-0.64125zm1.105 5.1925 1.04 1.1362h-0.95375l-0.86375-0.93375q-0.12875 0.0075-0.1975 0.01125-0.0675 5e-3 -0.13 5e-3 -1.23 0-1.9675-0.8225-0.73625-0.8225-0.73625-2.2012 0-1.3825 0.73625-2.205 0.7375-0.8225 1.9675-0.8225 1.2262 0 1.96 0.8225 0.735 0.8225 0.735 2.205 0 1.015-0.40875 1.7388-0.4075 0.7225-1.1812 1.0662zm5.2856-3.04q0.56625 0.12125 0.88375 0.505 0.31875 0.3825 0.31875 0.945 0 0.8625-0.59375 1.3362-0.59375 0.4725-1.6875 0.4725-0.36625 0-0.755-0.0725t-0.8025-0.2175v-0.76125q0.3275 0.19125 0.7175 0.28875 0.39125 0.0975 0.8175 0.0975 0.74125 0 1.13-0.2925t0.38875-0.85125q0-0.51625-0.36125-0.80625-0.36125-0.29125-1.005-0.29125h-0.68v-0.64875h0.71125q0.58125 0 0.89-0.2325t0.30875-0.67q0-0.44875-0.31875-0.68875-0.3175-0.24125-0.91125-0.24125-0.325 0-0.69625 0.07125-0.37125 0.07-0.81625 0.2175v-0.7025q0.45-0.125 0.8425-0.1875t0.74-0.0625q0.89875 0 1.4212 0.40875 0.52375 0.4075 0.52375 1.1025 0 0.485-0.2775 0.81875t-0.78875 0.4625zm4.3861 0.375q-0.5625 0-0.885 0.30125-0.32125 0.30125-0.32125 0.8275 0 0.5275 0.32125 0.82875 0.3225 0.30125 0.885 0.30125t0.88625-0.3025q0.325-0.30375 0.325-0.8275 0-0.52625-0.3225-0.8275-0.32125-0.30125-0.88875-0.30125zm-0.78875-0.335q-0.5075-0.125-0.79125-0.4725-0.2825-0.34875-0.2825-0.84875 0-0.69875 0.4975-1.105 0.49875-0.40625 1.365-0.40625 0.87125 0 1.3675 0.40625t0.49625 1.105q0 0.5-0.28375 0.84875-0.2825 0.3475-0.78625 0.4725 0.57 0.1325 0.8875 0.52 0.31875 0.38625 0.31875 0.94375 0 0.84875-0.5175 1.3025-0.5175 0.4525-1.4825 0.4525-0.96375 0-1.4825-0.4525-0.5175-0.45375-0.5175-1.3025 0-0.5575 0.32-0.94375 0.32125-0.3875 0.89125-0.52zm-0.28875-1.2462q0 0.4525 0.2825 0.70625 0.28375 0.25375 0.795 0.25375 0.50875 0 0.795-0.25375 0.2875-0.25375 0.2875-0.70625 0-0.45375-0.2875-0.7075-0.28625-0.25375-0.795-0.25375-0.51125 0-0.795 0.25375-0.2825 0.25375-0.2825 0.7075z"/></g><g id="text_25" fill="#fff"><path d="m96.232 316.45q-0.86 0-1.3662 0.64125-0.505 0.64-0.505 1.7462 0 1.1012 0.505 1.7425 0.50625 0.64 1.3662 0.64 0.85875 0 1.3612-0.64 0.5025-0.64125 0.5025-1.7425 0-1.1062-0.5025-1.7462-0.5025-0.64125-1.3612-0.64125zm1.105 5.1925 1.04 1.1362h-0.95375l-0.86375-0.93375q-0.12875 0.0075-0.1975 0.01125-0.0675 5e-3 -0.13 5e-3 -1.23 0-1.9675-0.8225-0.73625-0.8225-0.73625-2.2012 0-1.3825 0.73625-2.205 0.7375-0.8225 1.9675-0.8225 1.2262 0 1.96 0.8225 0.735 0.8225 0.735 2.205 0 1.015-0.40875 1.7388-0.4075 0.7225-1.1812 1.0662zm5.0631-5.04-1.9925 3.1138h1.9925v-3.1138zm-0.2075-0.6875h0.9925v3.8012h0.8325v0.65625h-0.8325v1.375h-0.785v-1.375h-2.6325v-0.76125l2.425-3.6962zm5.2973 0.6875-1.9925 3.1138h1.9925v-3.1138zm-0.2075-0.6875h0.9925v3.8012h0.8325v0.65625h-0.8325v1.375h-0.785v-1.375h-2.6325v-0.76125l2.425-3.6962z" stroke="#000" stroke-width="2"/><path d="m96.232 316.45q-0.86 0-1.3662 0.64125-0.505 0.64-0.505 1.7462 0 1.1012 0.505 1.7425 0.50625 0.64 1.3662 0.64 0.85875 0 1.3612-0.64 0.5025-0.64125 0.5025-1.7425 0-1.1062-0.5025-1.7462-0.5025-0.64125-1.3612-0.64125zm1.105 5.1925 1.04 1.1362h-0.95375l-0.86375-0.93375q-0.12875 0.0075-0.1975 0.01125-0.0675 5e-3 -0.13 5e-3 -1.23 0-1.9675-0.8225-0.73625-0.8225-0.73625-2.2012 0-1.3825 0.73625-2.205 0.7375-0.8225 1.9675-0.8225 1.2262 0 1.96 0.8225 0.735 0.8225 0.735 2.205 0 1.015-0.40875 1.7388-0.4075 0.7225-1.1812 1.0662zm5.0631-5.04-1.9925 3.1138h1.9925v-3.1138zm-0.2075-0.6875h0.9925v3.8012h0.8325v0.65625h-0.8325v1.375h-0.785v-1.375h-2.6325v-0.76125l2.425-3.6962zm5.2973 0.6875-1.9925 3.1138h1.9925v-3.1138zm-0.2075-0.6875h0.9925v3.8012h0.8325v0.65625h-0.8325v1.375h-0.785v-1.375h-2.6325v-0.76125l2.425-3.6962z"/></g><g id="text_26" fill="#fff"><path d="m78.629 357.03q-0.86 0-1.3662 0.64125-0.505 0.64-0.505 1.7462 0 1.1012 0.505 1.7425 0.50625 0.64 1.3662 0.64 0.85875 0 1.3612-0.64 0.5025-0.64125 0.5025-1.7425 0-1.1062-0.5025-1.7462-0.5025-0.64125-1.3612-0.64125zm1.105 5.1925 1.04 1.1362h-0.95375l-0.86375-0.93375q-0.12875 0.0075-0.1975 0.01125-0.0675 5e-3 -0.13 5e-3 -1.23 0-1.9675-0.8225-0.73625-0.8225-0.73625-2.2012 0-1.3825 0.73625-2.205 0.7375-0.8225 1.9675-0.8225 1.2262 0 1.96 0.8225 0.735 0.8225 0.735 2.205 0 1.015-0.40875 1.7388-0.4075 0.7225-1.1812 1.0662zm2.9031-5.7275h3.0975v0.665h-2.375v1.4288q0.17125-0.05875 0.3425-0.0875 0.1725-0.02875 0.345-0.02875 0.97625 0 1.5462 0.535 0.57125 0.535 0.57125 1.4488 0 0.94125-0.58625 1.4638-0.58625 0.52125-1.6525 0.52125-0.3675 0-0.74875-0.0625-0.38-0.0625-0.78625-0.1875v-0.79375q0.35125 0.19125 0.72625 0.285t0.7925 0.09375q0.67625 0 1.07-0.355 0.395-0.355 0.395-0.965 0-0.60875-0.395-0.96375-0.39375-0.35625-1.07-0.35625-0.31625 0-0.63125 0.07-0.31375 0.07-0.64125 0.21875v-2.93zm6.7686 0.52q-0.60875 0-0.91625 0.6-0.30625 0.59875-0.30625 1.8025 0 1.1988 0.30625 1.7988 0.3075 0.6 0.91625 0.6 0.61375 0 0.92-0.6 0.3075-0.6 0.3075-1.7988 0-1.2038-0.3075-1.8025-0.30625-0.6-0.92-0.6zm0-0.625q0.98125 0 1.4988 0.77625 0.5175 0.775 0.5175 2.2512 0 1.4725-0.5175 2.2488-0.5175 0.775-1.4988 0.775-0.98 0-1.4975-0.775-0.5175-0.77625-0.5175-2.2488 0-1.4762 0.5175-2.2512 0.5175-0.77625 1.4975-0.77625z" stroke="#000" stroke-width="2"/><path d="m78.629 357.03q-0.86 0-1.3662 0.64125-0.505 0.64-0.505 1.7462 0 1.1012 0.505 1.7425 0.50625 0.64 1.3662 0.64 0.85875 0 1.3612-0.64 0.5025-0.64125 0.5025-1.7425 0-1.1062-0.5025-1.7462-0.5025-0.64125-1.3612-0.64125zm1.105 5.1925 1.04 1.1362h-0.95375l-0.86375-0.93375q-0.12875 0.0075-0.1975 0.01125-0.0675 5e-3 -0.13 5e-3 -1.23 0-1.9675-0.8225-0.73625-0.8225-0.73625-2.2012 0-1.3825 0.73625-2.205 0.7375-0.8225 1.9675-0.8225 1.2262 0 1.96 0.8225 0.735 0.8225 0.735 2.205 0 1.015-0.40875 1.7388-0.4075 0.7225-1.1812 1.0662zm2.9031-5.7275h3.0975v0.665h-2.375v1.4288q0.17125-0.05875 0.3425-0.0875 0.1725-0.02875 0.345-0.02875 0.97625 0 1.5462 0.535 0.57125 0.535 0.57125 1.4488 0 0.94125-0.58625 1.4638-0.58625 0.52125-1.6525 0.52125-0.3675 0-0.74875-0.0625-0.38-0.0625-0.78625-0.1875v-0.79375q0.35125 0.19125 0.72625 0.285t0.7925 0.09375q0.67625 0 1.07-0.355 0.395-0.355 0.395-0.965 0-0.60875-0.395-0.96375-0.39375-0.35625-1.07-0.35625-0.31625 0-0.63125 0.07-0.31375 0.07-0.64125 0.21875v-2.93zm6.7686 0.52q-0.60875 0-0.91625 0.6-0.30625 0.59875-0.30625 1.8025 0 1.1988 0.30625 1.7988 0.3075 0.6 0.91625 0.6 0.61375 0 0.92-0.6 0.3075-0.6 0.3075-1.7988 0-1.2038-0.3075-1.8025-0.30625-0.6-0.92-0.6zm0-0.625q0.98125 0 1.4988 0.77625 0.5175 0.775 0.5175 2.2512 0 1.4725-0.5175 2.2488-0.5175 0.775-1.4988 0.775-0.98 0-1.4975-0.775-0.5175-0.77625-0.5175-2.2488 0-1.4762 0.5175-2.2512 0.5175-0.77625 1.4975-0.77625z"/></g><g id="text_27"><!-- Ducks Take Off - Efficiency Comparison: W-XPSNR vs Filesize --><g transform="translate(168.45 20.88) scale(.12 -.12)" fill="#fff"><defs><path id="DejaVuSansMono-44" transform="scale(.015625)" d="m1363 519q796 0 1112 392t316 1417q0 1035-314 1427t-1114 392h-300v-3628h300zm12 4147q1069 0 1575-569t506-1769q0-1194-506-1761t-1575-567h-947v4666h947z"/><path id="DejaVuSansMono-63" transform="scale(.015625)" d="m3316 178q-232-134-477-201-245-68-501-68-813 0-1271 487-458 488-458 1351 0 862 458 1349 458 488 1271 488 253 0 493-66 241-65 485-202v-603q-228 203-458 293-230 91-520 91-541 0-832-350-290-350-290-1e3 0-647 292-999 292-351 830-351 300 0 537 92 238 92 441 286v-597z"/><path id="DejaVuSansMono-6b" transform="scale(.015625)" d="m738 4863h593v-2816l1510 1453h700l-1378-1319 1593-2181h-703l-1294 1806-428-403v-1403h-593v4863z"/><path id="DejaVuSansMono-54" transform="scale(.015625)" d="m147 4666h3559v-532h-1459v-4134h-634v4134h-1466v532z"/><path id="DejaVuSansMono-61" transform="scale(.015625)" d="m2194 1759h-191q-503 0-758-177-254-176-254-526 0-315 190-490 191-175 528-175 475 0 747 329 272 330 275 911v128h-537zm1115 238v-1997h-578v519q-184-313-464-462-279-148-679-148-535 0-854 302-318 302-318 808 0 584 392 887t1151 303h772v91q-3 419-213 608-209 189-668 189-294 0-594-85-300-84-584-246v575q319 122 611 182 292 61 567 61 434 0 742-128t499-384q118-156 168-386t50-689z"/><path id="DejaVuSansMono-66" transform="scale(.015625)" d="m3322 4863v-479h-653q-310 0-430-127-120-126-120-448v-309h1203v-447h-1203v-3053h-575v3053h-935v447h935v244q0 575 264 847t823 272h691z"/><path id="DejaVuSansMono-45" transform="scale(.015625)" d="m616 4666h2768v-532h-2137v-1381h2044v-531h-2044v-1691h2197v-531h-2828v4666z"/><path id="DejaVuSansMono-6e" transform="scale(.015625)" d="m3284 2169v-2169h-578v2169q0 472-166 693-165 222-518 222-403 0-621-286-217-285-217-820v-1978h-575v3500h575v-525q154 300 416 454 263 155 622 155 534 0 798-352 264-351 264-1063z"/><path id="DejaVuSansMono-79" transform="scale(.015625)" d="m2681 1125q-143-366-365-962-310-826-416-1007-144-244-360-365-215-122-502-122h-463v481h341q253 0 396 147 144 147 366 759l-1353 3444h609l1038-2737 1022 2737h609l-922-2375z"/><path id="DejaVuSansMono-43" transform="scale(.015625)" d="m3353 166q-240-128-494-192-253-65-537-65-897 0-1393 634-495 635-495 1785 0 1144 498 1783 499 639 1390 639 284 0 537-64 254-64 494-192v-647q-231 191-497 291-265 100-534 100-616 0-922-475t-306-1435q0-956 306-1431t922-475q275 0 539 100t492 291v-647z"/><path id="DejaVuSansMono-6f" transform="scale(.015625)" d="m1925 3097q-437 0-662-341-225-340-225-1009 0-666 225-1008t662-342q441 0 666 342t225 1008q0 669-225 1009-225 341-666 341zm0 487q728 0 1114-472 386-471 386-1365 0-897-385-1368-384-470-1115-470-728 0-1113 470-384 471-384 1368 0 894 384 1365 385 472 1113 472z"/><path id="DejaVuSansMono-6d" transform="scale(.015625)" d="m2113 3144q106 225 270 332 164 108 395 108 422 0 595-327 174-326 174-1229v-2028h-525v2003q0 741-83 920-83 180-301 180-250 0-343-192-92-192-92-908v-2003h-525v2003q0 750-89 925t-320 175q-228 0-317-192t-89-908v-2003h-522v3500h522v-300q103 188 257 286 155 98 352 98 237 0 395-109t246-331z"/><path id="DejaVuSansMono-72" transform="scale(.015625)" d="m3609 2778q-184 144-375 209-190 66-418 66-538 0-823-338-284-337-284-974v-1741h-578v3500h578v-684q144 372 442 570 299 198 708 198 213 0 397-53 185-53 353-165v-588z"/><path id="DejaVuSansMono-3a" transform="scale(.015625)" d="m1528 3322h788v-947h-788v947zm0-2369h788v-953h-788v953z"/><path id="DejaVuSansMono-76" transform="scale(.015625)" d="m313 3500h596l1016-2937 1019 2937h597l-1244-3500h-741l-1243 3500z"/></defs><use xlink:href="#DejaVuSansMono-44"/><use transform="translate(60.205)" xlink:href="#DejaVuSansMono-75"/><use transform="translate(120.41)" xlink:href="#DejaVuSansMono-63"/><use transform="translate(180.62)" xlink:href="#DejaVuSansMono-6b"/><use transform="translate(240.82)" xlink:href="#DejaVuSansMono-73"/><use transform="translate(301.03)" xlink:href="#DejaVuSansMono-20"/><use transform="translate(361.23)" xlink:href="#DejaVuSansMono-54"/><use transform="translate(421.44)" xlink:href="#DejaVuSansMono-61"/><use transform="translate(481.64)" xlink:href="#DejaVuSansMono-6b"/><use transform="translate(541.85)" xlink:href="#DejaVuSansMono-65"/><use transform="translate(602.05)" xlink:href="#DejaVuSansMono-20"/><use transform="translate(662.26)" xlink:href="#DejaVuSansMono-4f"/><use transform="translate(722.46)" xlink:href="#DejaVuSansMono-66"/><use transform="translate(782.67)" xlink:href="#DejaVuSansMono-66"/><use transform="translate(842.87)" xlink:href="#DejaVuSansMono-20"/><use transform="translate(903.08)" xlink:href="#DejaVuSansMono-2d"/><use transform="translate(963.28)" xlink:href="#DejaVuSansMono-20"/><use transform="translate(1023.5)" xlink:href="#DejaVuSansMono-45"/><use transform="translate(1083.7)" xlink:href="#DejaVuSansMono-66"/><use transform="translate(1143.9)" xlink:href="#DejaVuSansMono-66"/><use transform="translate(1204.1)" xlink:href="#DejaVuSansMono-69"/><use transform="translate(1264.3)" xlink:href="#DejaVuSansMono-63"/><use transform="translate(1324.5)" xlink:href="#DejaVuSansMono-69"/><use transform="translate(1384.7)" xlink:href="#DejaVuSansMono-65"/><use transform="translate(1444.9)" xlink:href="#DejaVuSansMono-6e"/><use transform="translate(1505.1)" xlink:href="#DejaVuSansMono-63"/><use transform="translate(1565.3)" xlink:href="#DejaVuSansMono-79"/><use transform="translate(1625.5)" xlink:href="#DejaVuSansMono-20"/><use transform="translate(1685.7)" xlink:href="#DejaVuSansMono-43"/><use transform="translate(1745.9)" xlink:href="#DejaVuSansMono-6f"/><use transform="translate(1806.2)" xlink:href="#DejaVuSansMono-6d"/><use transform="translate(1866.4)" xlink:href="#DejaVuSansMono-70"/><use transform="translate(1926.6)" xlink:href="#DejaVuSansMono-61"/><use transform="translate(1986.8)" xlink:href="#DejaVuSansMono-72"/><use transform="translate(2047)" xlink:href="#DejaVuSansMono-69"/><use transform="translate(2107.2)" xlink:href="#DejaVuSansMono-73"/><use transform="translate(2167.4)" xlink:href="#DejaVuSansMono-6f"/><use transform="translate(2227.6)" xlink:href="#DejaVuSansMono-6e"/><use transform="translate(2287.8)" xlink:href="#DejaVuSansMono-3a"/><use transform="translate(2348)" xlink:href="#DejaVuSansMono-20"/><use transform="translate(2408.2)" xlink:href="#DejaVuSansMono-57"/><use transform="translate(2468.4)" xlink:href="#DejaVuSansMono-2d"/><use transform="translate(2528.6)" xlink:href="#DejaVuSansMono-58"/><use transform="translate(2588.8)" xlink:href="#DejaVuSansMono-50"/><use transform="translate(2649)" xlink:href="#DejaVuSansMono-53"/><use transform="translate(2709.2)" xlink:href="#DejaVuSansMono-4e"/><use transform="translate(2769.4)" xlink:href="#DejaVuSansMono-52"/><use transform="translate(2829.6)" xlink:href="#DejaVuSansMono-20"/><use transform="translate(2889.8)" xlink:href="#DejaVuSansMono-76"/><use transform="translate(2950)" xlink:href="#DejaVuSansMono-73"/><use transform="translate(3010.3)" xlink:href="#DejaVuSansMono-20"/><use transform="translate(3070.5)" xlink:href="#DejaVuSansMono-46"/><use transform="translate(3130.7)" xlink:href="#DejaVuSansMono-69"/><use transform="translate(3190.9)" xlink:href="#DejaVuSansMono-6c"/><use transform="translate(3251.1)" xlink:href="#DejaVuSansMono-65"/><use transform="translate(3311.3)" xlink:href="#DejaVuSansMono-73"/><use transform="translate(3371.5)" xlink:href="#DejaVuSansMono-69"/><use transform="translate(3431.7)" xlink:href="#DejaVuSansMono-7a"/><use transform="translate(3491.9)" xlink:href="#DejaVuSansMono-65"/></g></g><g id="legend_1"><g id="patch_7"><path d="m59.53 97.992h126.77q1.6 0 1.6-1.6v-57.912q0-1.6-1.6-1.6h-126.77q-1.6 0-1.6 1.6v57.912q0 1.6 1.6 1.6z" opacity=".5" stroke="#ccc"/></g><g id="line2d_32"><path d="m61.13 43.359h8 8" fill="none" stroke="#1f77b4" stroke-dasharray="9.6,2.4,1.5,2.4" stroke-width="1.5"/><use x="69.13" y="43.35875" fill="#1f77b4" stroke="#1f77b4" xlink:href="#mb328d688d8"/></g><g id="text_28"><!-- SVT-AV1 v2.0.0 preset 10 --><g transform="translate(83.53 46.159) scale(.08 -.08)" fill="#fff"><defs><path id="DejaVuSans-53" transform="scale(.015625)" d="m3425 4513v-616q-359 172-678 256-319 85-616 85-515 0-795-200t-280-569q0-310 186-468 186-157 705-254l381-78q706-135 1042-474t336-907q0-679-455-1029-454-350-1332-350-331 0-705 75-373 75-773 222v650q384-215 753-325 369-109 725-109 540 0 834 212 294 213 294 607 0 343-211 537t-692 291l-385 75q-706 140-1022 440-315 300-315 835 0 619 436 975t1201 356q329 0 669-60 341-59 697-177z"/><path id="DejaVuSans-56" transform="scale(.015625)" d="m1831 0-1781 4666h659l1479-3928 1481 3928h656l-1778-4666h-716z"/><path id="DejaVuSans-54" transform="scale(.015625)" d="m-19 4666h3947v-532h-1656v-4134h-634v4134h-1657v532z"/><path id="DejaVuSans-2d" transform="scale(.015625)" d="m313 2009h1684v-512h-1684v512z"/><path id="DejaVuSans-41" transform="scale(.015625)" d="m2188 4044-857-2322h1716l-859 2322zm-357 622h716l1778-4666h-656l-425 1197h-2103l-425-1197h-666l1781 4666z"/><path id="DejaVuSans-76" transform="scale(.015625)" d="m191 3500h609l1094-2937 1094 2937h609l-1313-3500h-781l-1312 3500z"/><path id="DejaVuSans-70" transform="scale(.015625)" d="m1159 525v-1856h-578v4831h578v-531q182 312 458 463 277 152 661 152 638 0 1036-506 399-506 399-1331t-399-1332q-398-506-1036-506-384 0-661 152-276 152-458 464zm1957 1222q0 634-261 995t-717 361q-457 0-718-361t-261-995 261-995 718-361q456 0 717 361t261 995z"/><path id="DejaVuSans-72" transform="scale(.015625)" d="m2631 2963q-97 56-211 82-114 27-251 27-488 0-749-317t-261-911v-1844h-578v3500h578v-544q182 319 472 473 291 155 707 155 59 0 131-8 72-7 159-23l3-590z"/><path id="DejaVuSans-73" transform="scale(.015625)" d="m2834 3397v-544q-243 125-506 187-262 63-544 63-428 0-642-131t-214-394q0-200 153-314t616-217l197-44q612-131 870-370t258-667q0-488-386-773-386-284-1061-284-281 0-586 55t-642 164v594q319-166 628-249 309-82 613-82 406 0 624 139 219 139 219 392 0 234-158 359-157 125-692 241l-200 47q-534 112-772 345-237 233-237 639 0 494 350 762 350 269 994 269 318 0 599-47 282-46 519-140z"/><path id="DejaVuSans-74" transform="scale(.015625)" d="m1172 4494v-994h1184v-447h-1184v-1900q0-428 117-550t477-122h590v-481h-590q-666 0-919 248-253 249-253 905v1900h-422v447h422v994h578z"/></defs><use xlink:href="#DejaVuSans-53"/><use transform="translate(63.477)" xlink:href="#DejaVuSans-56"/><use transform="translate(131.88)" xlink:href="#DejaVuSans-54"/><use transform="translate(183.84)" xlink:href="#DejaVuSans-2d"/><use transform="translate(217.68)" xlink:href="#DejaVuSans-41"/><use transform="translate(279.71)" xlink:href="#DejaVuSans-56"/><use transform="translate(348.12)" xlink:href="#DejaVuSans-31"/><use transform="translate(411.74)" xlink:href="#DejaVuSans-20"/><use transform="translate(443.53)" xlink:href="#DejaVuSans-76"/><use transform="translate(502.71)" xlink:href="#DejaVuSans-32"/><use transform="translate(566.33)" xlink:href="#DejaVuSans-2e"/><use transform="translate(598.12)" xlink:href="#DejaVuSans-30"/><use transform="translate(661.74)" xlink:href="#DejaVuSans-2e"/><use transform="translate(693.53)" xlink:href="#DejaVuSans-30"/><use transform="translate(757.15)" xlink:href="#DejaVuSans-20"/><use transform="translate(788.94)" xlink:href="#DejaVuSans-70"/><use transform="translate(852.42)" xlink:href="#DejaVuSans-72"/><use transform="translate(891.28)" xlink:href="#DejaVuSans-65"/><use transform="translate(952.8)" xlink:href="#DejaVuSans-73"/><use transform="translate(1004.9)" xlink:href="#DejaVuSans-65"/><use transform="translate(1066.4)" xlink:href="#DejaVuSans-74"/><use transform="translate(1105.6)" xlink:href="#DejaVuSans-20"/><use transform="translate(1137.4)" xlink:href="#DejaVuSans-31"/><use transform="translate(1201)" xlink:href="#DejaVuSans-30"/></g></g><g id="line2d_33"><path d="m61.13 55.101h8 8" fill="none" stroke="#d62728" stroke-dasharray="9.6,2.4,1.5,2.4" stroke-width="1.5"/><use x="69.13" y="55.10125" fill="#d62728" stroke="#d62728" xlink:href="#m1fdf08e891"/></g><g id="text_29"><!-- SVT-AV1 v2.1.2 preset 10 --><g transform="translate(83.53 57.901) scale(.08 -.08)" fill="#fff"><use xlink:href="#DejaVuSans-53"/><use transform="translate(63.477)" xlink:href="#DejaVuSans-56"/><use transform="translate(131.88)" xlink:href="#DejaVuSans-54"/><use transform="translate(183.84)" xlink:href="#DejaVuSans-2d"/><use transform="translate(217.68)" xlink:href="#DejaVuSans-41"/><use transform="translate(279.71)" xlink:href="#DejaVuSans-56"/><use transform="translate(348.12)" xlink:href="#DejaVuSans-31"/><use transform="translate(411.74)" xlink:href="#DejaVuSans-20"/><use transform="translate(443.53)" xlink:href="#DejaVuSans-76"/><use transform="translate(502.71)" xlink:href="#DejaVuSans-32"/><use transform="translate(566.33)" xlink:href="#DejaVuSans-2e"/><use transform="translate(598.12)" xlink:href="#DejaVuSans-31"/><use transform="translate(661.74)" xlink:href="#DejaVuSans-2e"/><use transform="translate(693.53)" xlink:href="#DejaVuSans-32"/><use transform="translate(757.15)" xlink:href="#DejaVuSans-20"/><use transform="translate(788.94)" xlink:href="#DejaVuSans-70"/><use transform="translate(852.42)" xlink:href="#DejaVuSans-72"/><use transform="translate(891.28)" xlink:href="#DejaVuSans-65"/><use transform="translate(952.8)" xlink:href="#DejaVuSans-73"/><use transform="translate(1004.9)" xlink:href="#DejaVuSans-65"/><use transform="translate(1066.4)" xlink:href="#DejaVuSans-74"/><use transform="translate(1105.6)" xlink:href="#DejaVuSans-20"/><use transform="translate(1137.4)" xlink:href="#DejaVuSans-31"/><use transform="translate(1201)" xlink:href="#DejaVuSans-30"/></g></g><g id="line2d_34"><path d="m61.13 66.844h8 8" fill="none" stroke="#2ca02c" stroke-dasharray="9.6,2.4,1.5,2.4" stroke-width="1.5"/><use x="69.13" y="66.84375" fill="#2ca02c" stroke="#2ca02c" xlink:href="#me15f8c4bd6"/></g><g id="text_30"><!-- SVT-AV1 v2.2.1 preset 10 --><g transform="translate(83.53 69.644) scale(.08 -.08)" fill="#fff"><use xlink:href="#DejaVuSans-53"/><use transform="translate(63.477)" xlink:href="#DejaVuSans-56"/><use transform="translate(131.88)" xlink:href="#DejaVuSans-54"/><use transform="translate(183.84)" xlink:href="#DejaVuSans-2d"/><use transform="translate(217.68)" xlink:href="#DejaVuSans-41"/><use transform="translate(279.71)" xlink:href="#DejaVuSans-56"/><use transform="translate(348.12)" xlink:href="#DejaVuSans-31"/><use transform="translate(411.74)" xlink:href="#DejaVuSans-20"/><use transform="translate(443.53)" xlink:href="#DejaVuSans-76"/><use transform="translate(502.71)" xlink:href="#DejaVuSans-32"/><use transform="translate(566.33)" xlink:href="#DejaVuSans-2e"/><use transform="translate(598.12)" xlink:href="#DejaVuSans-32"/><use transform="translate(661.74)" xlink:href="#DejaVuSans-2e"/><use transform="translate(693.53)" xlink:href="#DejaVuSans-31"/><use transform="translate(757.15)" xlink:href="#DejaVuSans-20"/><use transform="translate(788.94)" xlink:href="#DejaVuSans-70"/><use transform="translate(852.42)" xlink:href="#DejaVuSans-72"/><use transform="translate(891.28)" xlink:href="#DejaVuSans-65"/><use transform="translate(952.8)" xlink:href="#DejaVuSans-73"/><use transform="translate(1004.9)" xlink:href="#DejaVuSans-65"/><use transform="translate(1066.4)" xlink:href="#DejaVuSans-74"/><use transform="translate(1105.6)" xlink:href="#DejaVuSans-20"/><use transform="translate(1137.4)" xlink:href="#DejaVuSans-31"/><use transform="translate(1201)" xlink:href="#DejaVuSans-30"/></g></g><g id="line2d_35"><path d="m61.13 78.586h8 8" fill="none" stroke="#ff7f0e" stroke-dasharray="9.6,2.4,1.5,2.4" stroke-width="1.5"/><use x="69.13" y="78.58625" fill="#ff7f0e" stroke="#ff7f0e" xlink:href="#m6e7daef892"/></g><g id="text_31"><!-- SVT-AV1 v2.3.0 preset 10 --><g transform="translate(83.53 81.386) scale(.08 -.08)" fill="#fff"><use xlink:href="#DejaVuSans-53"/><use transform="translate(63.477)" xlink:href="#DejaVuSans-56"/><use transform="translate(131.88)" xlink:href="#DejaVuSans-54"/><use transform="translate(183.84)" xlink:href="#DejaVuSans-2d"/><use transform="translate(217.68)" xlink:href="#DejaVuSans-41"/><use transform="translate(279.71)" xlink:href="#DejaVuSans-56"/><use transform="translate(348.12)" xlink:href="#DejaVuSans-31"/><use transform="translate(411.74)" xlink:href="#DejaVuSans-20"/><use transform="translate(443.53)" xlink:href="#DejaVuSans-76"/><use transform="translate(502.71)" xlink:href="#DejaVuSans-32"/><use transform="translate(566.33)" xlink:href="#DejaVuSans-2e"/><use transform="translate(598.12)" xlink:href="#DejaVuSans-33"/><use transform="translate(661.74)" xlink:href="#DejaVuSans-2e"/><use transform="translate(693.53)" xlink:href="#DejaVuSans-30"/><use transform="translate(757.15)" xlink:href="#DejaVuSans-20"/><use transform="translate(788.94)" xlink:href="#DejaVuSans-70"/><use transform="translate(852.42)" xlink:href="#DejaVuSans-72"/><use transform="translate(891.28)" xlink:href="#DejaVuSans-65"/><use transform="translate(952.8)" xlink:href="#DejaVuSans-73"/><use transform="translate(1004.9)" xlink:href="#DejaVuSans-65"/><use transform="translate(1066.4)" xlink:href="#DejaVuSans-74"/><use transform="translate(1105.6)" xlink:href="#DejaVuSans-20"/><use transform="translate(1137.4)" xlink:href="#DejaVuSans-31"/><use transform="translate(1201)" xlink:href="#DejaVuSans-30"/></g></g><g id="line2d_36"><path d="m61.13 90.329h8 8" fill="none" stroke="#9467bd" stroke-dasharray="9.6,2.4,1.5,2.4" stroke-width="1.5"/><use x="69.13" y="90.32875" fill="#9467bd" stroke="#9467bd" xlink:href="#m3f9d4ab0bc"/></g><g id="text_32"><!-- SVT-AV1 v3.0.1 preset 10 --><g transform="translate(83.53 93.129) scale(.08 -.08)" fill="#fff"><use xlink:href="#DejaVuSans-53"/><use transform="translate(63.477)" xlink:href="#DejaVuSans-56"/><use transform="translate(131.88)" xlink:href="#DejaVuSans-54"/><use transform="translate(183.84)" xlink:href="#DejaVuSans-2d"/><use transform="translate(217.68)" xlink:href="#DejaVuSans-41"/><use transform="translate(279.71)" xlink:href="#DejaVuSans-56"/><use transform="translate(348.12)" xlink:href="#DejaVuSans-31"/><use transform="translate(411.74)" xlink:href="#DejaVuSans-20"/><use transform="translate(443.53)" xlink:href="#DejaVuSans-76"/><use transform="translate(502.71)" xlink:href="#DejaVuSans-33"/><use transform="translate(566.33)" xlink:href="#DejaVuSans-2e"/><use transform="translate(598.12)" xlink:href="#DejaVuSans-30"/><use transform="translate(661.74)" xlink:href="#DejaVuSans-2e"/><use transform="translate(693.53)" xlink:href="#DejaVuSans-31"/><use transform="translate(757.15)" xlink:href="#DejaVuSans-20"/><use transform="translate(788.94)" xlink:href="#DejaVuSans-70"/><use transform="translate(852.42)" xlink:href="#DejaVuSans-72"/><use transform="translate(891.28)" xlink:href="#DejaVuSans-65"/><use transform="translate(952.8)" xlink:href="#DejaVuSans-73"/><use transform="translate(1004.9)" xlink:href="#DejaVuSans-65"/><use transform="translate(1066.4)" xlink:href="#DejaVuSans-74"/><use transform="translate(1105.6)" xlink:href="#DejaVuSans-20"/><use transform="translate(1137.4)" xlink:href="#DejaVuSans-31"/><use transform="translate(1201)" xlink:href="#DejaVuSans-30"/></g></g></g></g></g><defs><clipPath id="p68cd63bb41"><rect x="53.93" y="32.88" width="655.27" height="357.16"/></clipPath></defs></svg>
