<!DOCTYPE svg  PUBLIC '-//W3C//DTD SVG 1.1//EN'  'http://www.w3.org/Graphics/SVG/1.1/DTD/svg11.dtd'>
<svg width="720pt" height="432pt" version="1.1" viewBox="0 0 720 432" xmlns="http://www.w3.org/2000/svg" xmlns:xlink="http://www.w3.org/1999/xlink"><defs><style type="text/css">*{stroke-linejoin: round; stroke-linecap: butt}</style></defs><g id="figure_1"><g id="patch_1"><path d="m0 432h720v-432h-720z"/></g><g id="axes_1"><g id="patch_2"><path d="m47.72 390.04h660.22v-357.16h-660.22z"/></g><g id="matplotlib.axis_1"><g id="xtick_1"><g id="line2d_1"><path d="m124.66 390.04v-357.16" clip-path="url(#p0cac5395cd)" fill="none" stroke="#808080" stroke-dasharray="1.85,0.8" stroke-opacity=".5" stroke-width=".5"/></g><g id="line2d_2"><defs><path id="m62a75ebb48" d="m0 0v3.5" stroke="#808080" stroke-width=".8"/></defs><use x="124.658251" y="390.04" fill="#808080" stroke="#808080" stroke-width=".8" xlink:href="#m62a75ebb48"/></g><g id="text_1"><!-- 0.5 --><g transform="translate(116.71 404.64) scale(.1 -.1)" fill="#808080"><defs><path id="DejaVuSans-30" transform="scale(.015625)" d="m2034 4250q-487 0-733-480-245-479-245-1442 0-959 245-1439 246-480 733-480 491 0 736 480 246 480 246 1439 0 963-246 1442-245 480-736 480zm0 500q785 0 1199-621 414-620 414-1801 0-1178-414-1799-414-620-1199-620-784 0-1198 620-414 621-414 1799 0 1181 414 1801 414 621 1198 621z"/><path id="DejaVuSans-2e" transform="scale(.015625)" d="m684 794h660v-794h-660v794z"/><path id="DejaVuSans-35" transform="scale(.015625)" d="m691 4666h2478v-532h-1900v-1143q137 47 274 70 138 23 276 23 781 0 1237-428 457-428 457-1159 0-753-469-1171-469-417-1322-417-294 0-599 50-304 50-629 150v635q281-153 581-228t634-75q541 0 856 284 316 284 316 772 0 487-316 771-315 285-856 285-253 0-505-56-251-56-513-175v2344z"/></defs><use xlink:href="#DejaVuSans-30"/><use transform="translate(63.623)" xlink:href="#DejaVuSans-2e"/><use transform="translate(95.41)" xlink:href="#DejaVuSans-35"/></g></g></g><g id="xtick_2"><g id="line2d_3"><path d="m239.75 390.04v-357.16" clip-path="url(#p0cac5395cd)" fill="none" stroke="#808080" stroke-dasharray="1.85,0.8" stroke-opacity=".5" stroke-width=".5"/></g><g id="line2d_4"><use x="239.74919" y="390.04" fill="#808080" stroke="#808080" stroke-width=".8" xlink:href="#m62a75ebb48"/></g><g id="text_2"><!-- 1.0 --><g transform="translate(231.8 404.64) scale(.1 -.1)" fill="#808080"><defs><path id="DejaVuSans-31" transform="scale(.015625)" d="m794 531h1031v3560l-1122-225v575l1116 225h631v-4135h1031v-531h-2687v531z"/></defs><use xlink:href="#DejaVuSans-31"/><use transform="translate(63.623)" xlink:href="#DejaVuSans-2e"/><use transform="translate(95.41)" xlink:href="#DejaVuSans-30"/></g></g></g><g id="xtick_3"><g id="line2d_5"><path d="m354.84 390.04v-357.16" clip-path="url(#p0cac5395cd)" fill="none" stroke="#808080" stroke-dasharray="1.85,0.8" stroke-opacity=".5" stroke-width=".5"/></g><g id="line2d_6"><use x="354.840129" y="390.04" fill="#808080" stroke="#808080" stroke-width=".8" xlink:href="#m62a75ebb48"/></g><g id="text_3"><!-- 1.5 --><g transform="translate(346.89 404.64) scale(.1 -.1)" fill="#808080"><use xlink:href="#DejaVuSans-31"/><use transform="translate(63.623)" xlink:href="#DejaVuSans-2e"/><use transform="translate(95.41)" xlink:href="#DejaVuSans-35"/></g></g></g><g id="xtick_4"><g id="line2d_7"><path d="m469.93 390.04v-357.16" clip-path="url(#p0cac5395cd)" fill="none" stroke="#808080" stroke-dasharray="1.85,0.8" stroke-opacity=".5" stroke-width=".5"/></g><g id="line2d_8"><use x="469.931068" y="390.04" fill="#808080" stroke="#808080" stroke-width=".8" xlink:href="#m62a75ebb48"/></g><g id="text_4"><!-- 2.0 --><g transform="translate(461.98 404.64) scale(.1 -.1)" fill="#808080"><defs><path id="DejaVuSans-32" transform="scale(.015625)" d="m1228 531h2203v-531h-2962v531q359 372 979 998 621 627 780 809 303 340 423 576 121 236 121 464 0 372-261 606-261 235-680 235-297 0-627-103-329-103-704-313v638q381 153 712 231 332 78 607 78 725 0 1156-363 431-362 431-968 0-288-108-546-107-257-392-607-78-91-497-524-418-433-1181-1211z"/></defs><use xlink:href="#DejaVuSans-32"/><use transform="translate(63.623)" xlink:href="#DejaVuSans-2e"/><use transform="translate(95.41)" xlink:href="#DejaVuSans-30"/></g></g></g><g id="xtick_5"><g id="line2d_9"><path d="m585.02 390.04v-357.16" clip-path="url(#p0cac5395cd)" fill="none" stroke="#808080" stroke-dasharray="1.85,0.8" stroke-opacity=".5" stroke-width=".5"/></g><g id="line2d_10"><use x="585.022006" y="390.04" fill="#808080" stroke="#808080" stroke-width=".8" xlink:href="#m62a75ebb48"/></g><g id="text_5"><!-- 2.5 --><g transform="translate(577.07 404.64) scale(.1 -.1)" fill="#808080"><use xlink:href="#DejaVuSans-32"/><use transform="translate(63.623)" xlink:href="#DejaVuSans-2e"/><use transform="translate(95.41)" xlink:href="#DejaVuSans-35"/></g></g></g><g id="xtick_6"><g id="line2d_11"><path d="m700.11 390.04v-357.16" clip-path="url(#p0cac5395cd)" fill="none" stroke="#808080" stroke-dasharray="1.85,0.8" stroke-opacity=".5" stroke-width=".5"/></g><g id="line2d_12"><use x="700.112945" y="390.04" fill="#808080" stroke="#808080" stroke-width=".8" xlink:href="#m62a75ebb48"/></g><g id="text_6"><!-- 3.0 --><g transform="translate(692.16 404.64) scale(.1 -.1)" fill="#808080"><defs><path id="DejaVuSans-33" transform="scale(.015625)" d="m2597 2516q453-97 707-404 255-306 255-756 0-690-475-1069-475-378-1350-378-293 0-604 58t-642 174v609q262-153 574-231 313-78 654-78 593 0 904 234t311 681q0 413-289 645-289 233-804 233h-544v519h569q465 0 712 186t247 536q0 359-255 551-254 193-729 193-260 0-557-57-297-56-653-174v562q360 100 674 150t592 50q719 0 1137-327 419-326 419-882 0-388-222-655t-631-370z"/></defs><use xlink:href="#DejaVuSans-33"/><use transform="translate(63.623)" xlink:href="#DejaVuSans-2e"/><use transform="translate(95.41)" xlink:href="#DejaVuSans-30"/></g></g></g><g id="text_7"><!-- Output Filesize (MB) --><g transform="translate(317.63 418.37) scale(.1 -.1)" fill="#dcdcdc"><defs><path id="DejaVuSansMono-4f" transform="scale(.015625)" d="m2828 2328q0 1028-211 1469t-692 441q-478 0-689-441t-211-1469q0-1025 211-1466 211-440 689-440 481 0 692 439t211 1467zm660 0q0-1219-386-1819t-1177-600-1175 597-384 1822q0 1222 386 1822t1173 600q791 0 1177-600t386-1822z"/><path id="DejaVuSansMono-75" transform="scale(.015625)" d="m609 1325v2169h575v-2169q0-472 167-694 168-222 518-222 406 0 621 286 216 286 216 821v1978h578v-3494h-578v525q-153-303-417-460-264-156-617-156-538 0-801 352-262 352-262 1064z"/><path id="DejaVuSansMono-74" transform="scale(.015625)" d="m1919 4494v-994h1306v-447h-1306v-1900q0-387 147-541 147-153 512-153h647v-459h-703q-647 0-913 259-265 260-265 894v1900h-935v447h935v994h575z"/><path id="DejaVuSansMono-70" transform="scale(.015625)" d="m1172 441v-1772h-578v4831h578v-447q144 260 383 395 239 136 551 136 635 0 996-491 361-490 361-1359 0-853-363-1339-362-486-994-486-318 0-558 136-239 136-376 396zm1687 1306q0 669-211 1009-210 341-626 341-419 0-635-342-215-342-215-1008 0-663 215-1007 216-343 635-343 416 0 626 340 211 341 211 1010z"/><path id="DejaVuSansMono-46" transform="scale(.015625)" d="m728 4666h2747v-532h-2112v-1375h1915v-531h-1915v-2228h-635v4666z"/><path id="DejaVuSansMono-69" transform="scale(.015625)" d="m800 3500h1472v-3053h1141v-447h-2857v447h1141v2606h-897v447zm897 1363h575v-729h-575v729z"/><path id="DejaVuSansMono-6c" transform="scale(.015625)" d="m1997 1269q0-388 142-585 142-196 420-196h672v-488h-728q-515 0-798 331-283 332-283 938v3178h-922v450h1497v-3628z"/><path id="DejaVuSansMono-65" transform="scale(.015625)" d="m3475 1894v-281h-2491v-19q0-572 298-885 299-312 843-312 275 0 575 87 300 88 641 266v-572q-328-134-633-201-305-68-589-68-816 0-1276 489-459 490-459 1349 0 837 450 1337t1200 500q669 0 1055-453t386-1237zm-575 169q-12 506-239 770t-652 264q-415 0-684-275t-319-763l1894 4z"/><path id="DejaVuSansMono-73" transform="scale(.015625)" d="m3041 3378v-562q-247 143-497 215t-510 72q-390 0-583-127-192-126-192-385 0-235 144-351 144-115 716-224l231-44q428-81 648-325 221-244 221-634 0-519-369-812-369-292-1025-292-259 0-544 55-284 55-615 164v594q322-166 615-249 294-82 557-82 381 0 590 154 210 155 210 433 0 400-766 553l-25 7-216 43q-497 97-725 327t-228 626q0 504 340 777 341 273 973 273 281 0 540-52 260-51 510-154z"/><path id="DejaVuSansMono-7a" transform="scale(.015625)" d="m709 3506h2541v-525l-2009-2512h2009v-469h-2616v531l2010 2516h-1935v459z"/><path id="DejaVuSansMono-28" transform="scale(.015625)" d="m2766 4856q-416-712-621-1420-204-708-204-1427 0-715 204-1425 205-709 621-1428h-500q-472 744-704 1448-231 705-231 1405 0 697 231 1403 232 707 704 1444h500z"/><path id="DejaVuSansMono-4d" transform="scale(.015625)" d="m269 4666h844l806-2375 812 2375h847v-4666h-584v4122l-831-2459h-479l-834 2459v-4122h-581v4666z"/><path id="DejaVuSansMono-42" transform="scale(.015625)" d="m1153 2228v-1709h747q550 0 784 192 235 192 235 633 0 456-247 670t-772 214h-747zm0 1919v-1406h735q456 0 660 175 205 175 205 565 0 353-202 509-201 157-663 157h-735zm-634 519h1381q716 0 1103-310 388-309 388-875 0-428-205-675t-614-309q459-69 720-393 261-323 261-823 0-634-416-958-415-323-1237-323h-1381v4666z"/><path id="DejaVuSansMono-29" transform="scale(.015625)" d="m1088 4856h500q471-737 702-1444 232-706 232-1403 0-703-232-1409-231-706-702-1444h-500q415 725 620 1434 205 710 205 1419 0 713-205 1422-205 710-620 1425z"/></defs><use xlink:href="#DejaVuSansMono-4f"/><use transform="translate(60.205)" xlink:href="#DejaVuSansMono-75"/><use transform="translate(120.41)" xlink:href="#DejaVuSansMono-74"/><use transform="translate(180.62)" xlink:href="#DejaVuSansMono-70"/><use transform="translate(240.82)" xlink:href="#DejaVuSansMono-75"/><use transform="translate(301.03)" xlink:href="#DejaVuSansMono-74"/><use transform="translate(361.23)" xlink:href="#DejaVuSansMono-20"/><use transform="translate(421.44)" xlink:href="#DejaVuSansMono-46"/><use transform="translate(481.64)" xlink:href="#DejaVuSansMono-69"/><use transform="translate(541.85)" xlink:href="#DejaVuSansMono-6c"/><use transform="translate(602.05)" xlink:href="#DejaVuSansMono-65"/><use transform="translate(662.26)" xlink:href="#DejaVuSansMono-73"/><use transform="translate(722.46)" xlink:href="#DejaVuSansMono-69"/><use transform="translate(782.67)" xlink:href="#DejaVuSansMono-7a"/><use transform="translate(842.87)" xlink:href="#DejaVuSansMono-65"/><use transform="translate(903.08)" xlink:href="#DejaVuSansMono-20"/><use transform="translate(963.28)" xlink:href="#DejaVuSansMono-28"/><use transform="translate(1023.5)" xlink:href="#DejaVuSansMono-4d"/><use transform="translate(1083.7)" xlink:href="#DejaVuSansMono-42"/><use transform="translate(1143.9)" xlink:href="#DejaVuSansMono-29"/></g></g><g id="text_8"><!-- 1e7 --><g transform="translate(689.06 417.32) scale(.1 -.1)" fill="#808080"><defs><path id="DejaVuSans-65" transform="scale(.015625)" d="m3597 1894v-281h-2644q38-594 358-905t892-311q331 0 642 81t618 244v-544q-310-131-635-200t-659-69q-838 0-1327 487-489 488-489 1320 0 859 464 1363 464 505 1252 505 706 0 1117-455 411-454 411-1235zm-575 169q-6 471-264 752-258 282-683 282-481 0-770-272t-333-766l2050 4z"/><path id="DejaVuSans-37" transform="scale(.015625)" d="m525 4666h3e3v-269l-1694-4397h-659l1594 4134h-2241v532z"/></defs><use xlink:href="#DejaVuSans-31"/><use transform="translate(63.623)" xlink:href="#DejaVuSans-65"/><use transform="translate(125.15)" xlink:href="#DejaVuSans-37"/></g></g></g><g id="matplotlib.axis_2"><g id="ytick_1"><g id="line2d_13"><path d="m47.72 343.11h660.22" clip-path="url(#p0cac5395cd)" fill="none" stroke="#808080" stroke-dasharray="1.85,0.8" stroke-opacity=".5" stroke-width=".5"/></g><g id="line2d_14"><defs><path id="maa72e8aa4f" d="m0 0h-3.5" stroke="#808080" stroke-width=".8"/></defs><use x="47.72" y="343.112687" fill="#808080" stroke="#808080" stroke-width=".8" xlink:href="#maa72e8aa4f"/></g><g id="text_9"><!-- 1.5 --><g transform="translate(24.817 346.91) scale(.1 -.1)" fill="#808080"><use xlink:href="#DejaVuSans-31"/><use transform="translate(63.623)" xlink:href="#DejaVuSans-2e"/><use transform="translate(95.41)" xlink:href="#DejaVuSans-35"/></g></g></g><g id="ytick_2"><g id="line2d_15"><path d="m47.72 280.5h660.22" clip-path="url(#p0cac5395cd)" fill="none" stroke="#808080" stroke-dasharray="1.85,0.8" stroke-opacity=".5" stroke-width=".5"/></g><g id="line2d_16"><use x="47.72" y="280.499943" fill="#808080" stroke="#808080" stroke-width=".8" xlink:href="#maa72e8aa4f"/></g><g id="text_10"><!-- 2.0 --><g transform="translate(24.817 284.3) scale(.1 -.1)" fill="#808080"><use xlink:href="#DejaVuSans-32"/><use transform="translate(63.623)" xlink:href="#DejaVuSans-2e"/><use transform="translate(95.41)" xlink:href="#DejaVuSans-30"/></g></g></g><g id="ytick_3"><g id="line2d_17"><path d="m47.72 217.89h660.22" clip-path="url(#p0cac5395cd)" fill="none" stroke="#808080" stroke-dasharray="1.85,0.8" stroke-opacity=".5" stroke-width=".5"/></g><g id="line2d_18"><use x="47.72" y="217.887198" fill="#808080" stroke="#808080" stroke-width=".8" xlink:href="#maa72e8aa4f"/></g><g id="text_11"><!-- 2.5 --><g transform="translate(24.817 221.69) scale(.1 -.1)" fill="#808080"><use xlink:href="#DejaVuSans-32"/><use transform="translate(63.623)" xlink:href="#DejaVuSans-2e"/><use transform="translate(95.41)" xlink:href="#DejaVuSans-35"/></g></g></g><g id="ytick_4"><g id="line2d_19"><path d="m47.72 155.27h660.22" clip-path="url(#p0cac5395cd)" fill="none" stroke="#808080" stroke-dasharray="1.85,0.8" stroke-opacity=".5" stroke-width=".5"/></g><g id="line2d_20"><use x="47.72" y="155.274454" fill="#808080" stroke="#808080" stroke-width=".8" xlink:href="#maa72e8aa4f"/></g><g id="text_12"><!-- 3.0 --><g transform="translate(24.817 159.07) scale(.1 -.1)" fill="#808080"><use xlink:href="#DejaVuSans-33"/><use transform="translate(63.623)" xlink:href="#DejaVuSans-2e"/><use transform="translate(95.41)" xlink:href="#DejaVuSans-30"/></g></g></g><g id="ytick_5"><g id="line2d_21"><path d="m47.72 92.662h660.22" clip-path="url(#p0cac5395cd)" fill="none" stroke="#808080" stroke-dasharray="1.85,0.8" stroke-opacity=".5" stroke-width=".5"/></g><g id="line2d_22"><use x="47.72" y="92.661709" fill="#808080" stroke="#808080" stroke-width=".8" xlink:href="#maa72e8aa4f"/></g><g id="text_13"><!-- 3.5 --><g transform="translate(24.817 96.461) scale(.1 -.1)" fill="#808080"><use xlink:href="#DejaVuSans-33"/><use transform="translate(63.623)" xlink:href="#DejaVuSans-2e"/><use transform="translate(95.41)" xlink:href="#DejaVuSans-35"/></g></g></g><g id="text_14"><!-- Butteraugli Distance --><g transform="translate(18.668 271.66) rotate(-90) scale(.1 -.1)" fill="#dcdcdc"><defs><path id="DejaVuSansMono-72" transform="scale(.015625)" d="m3609 2778q-184 144-375 209-190 66-418 66-538 0-823-338-284-337-284-974v-1741h-578v3500h578v-684q144 372 442 570 299 198 708 198 213 0 397-53 185-53 353-165v-588z"/><path id="DejaVuSansMono-61" transform="scale(.015625)" d="m2194 1759h-191q-503 0-758-177-254-176-254-526 0-315 190-490 191-175 528-175 475 0 747 329 272 330 275 911v128h-537zm1115 238v-1997h-578v519q-184-313-464-462-279-148-679-148-535 0-854 302-318 302-318 808 0 584 392 887t1151 303h772v91q-3 419-213 608-209 189-668 189-294 0-594-85-300-84-584-246v575q319 122 611 182 292 61 567 61 434 0 742-128t499-384q118-156 168-386t50-689z"/><path id="DejaVuSansMono-67" transform="scale(.015625)" d="m2681 1778q0 647-211 983t-614 336q-422 0-644-336-221-336-221-983t223-986q224-339 649-339 396 0 607 340 211 341 211 985zm575-1553q0-788-372-1194-371-406-1093-406-238 0-498 44-259 43-518 128v569q306-144 556-213t460-69q465 0 677 254 213 253 213 803v25 390q-137-293-375-437-237-144-578-144-612 0-978 490-366 491-366 1313 0 825 366 1315 366 491 978 491 338 0 572-134t381-416v454h575v-3263z"/><path id="DejaVuSansMono-44" transform="scale(.015625)" d="m1363 519q796 0 1112 392t316 1417q0 1035-314 1427t-1114 392h-300v-3628h300zm12 4147q1069 0 1575-569t506-1769q0-1194-506-1761t-1575-567h-947v4666h947z"/><path id="DejaVuSansMono-6e" transform="scale(.015625)" d="m3284 2169v-2169h-578v2169q0 472-166 693-165 222-518 222-403 0-621-286-217-285-217-820v-1978h-575v3500h575v-525q154 300 416 454 263 155 622 155 534 0 798-352 264-351 264-1063z"/><path id="DejaVuSansMono-63" transform="scale(.015625)" d="m3316 178q-232-134-477-201-245-68-501-68-813 0-1271 487-458 488-458 1351 0 862 458 1349 458 488 1271 488 253 0 493-66 241-65 485-202v-603q-228 203-458 293-230 91-520 91-541 0-832-350-290-350-290-1e3 0-647 292-999 292-351 830-351 300 0 537 92 238 92 441 286v-597z"/></defs><use xlink:href="#DejaVuSansMono-42"/><use transform="translate(60.205)" xlink:href="#DejaVuSansMono-75"/><use transform="translate(120.41)" xlink:href="#DejaVuSansMono-74"/><use transform="translate(180.62)" xlink:href="#DejaVuSansMono-74"/><use transform="translate(240.82)" xlink:href="#DejaVuSansMono-65"/><use transform="translate(301.03)" xlink:href="#DejaVuSansMono-72"/><use transform="translate(361.23)" xlink:href="#DejaVuSansMono-61"/><use transform="translate(421.44)" xlink:href="#DejaVuSansMono-75"/><use transform="translate(481.64)" xlink:href="#DejaVuSansMono-67"/><use transform="translate(541.85)" xlink:href="#DejaVuSansMono-6c"/><use transform="translate(602.05)" xlink:href="#DejaVuSansMono-69"/><use transform="translate(662.26)" xlink:href="#DejaVuSansMono-20"/><use transform="translate(722.46)" xlink:href="#DejaVuSansMono-44"/><use transform="translate(782.67)" xlink:href="#DejaVuSansMono-69"/><use transform="translate(842.87)" xlink:href="#DejaVuSansMono-73"/><use transform="translate(903.08)" xlink:href="#DejaVuSansMono-74"/><use transform="translate(963.28)" xlink:href="#DejaVuSansMono-61"/><use transform="translate(1023.5)" xlink:href="#DejaVuSansMono-6e"/><use transform="translate(1083.7)" xlink:href="#DejaVuSansMono-63"/><use transform="translate(1143.9)" xlink:href="#DejaVuSansMono-65"/></g></g></g><g id="line2d_23"><path d="m544.75 344.95-185.81-50.5-132.09-63.035-95.449-85.582-53.548-96.719" clip-path="url(#p0cac5395cd)" fill="none" stroke="#1f77b4" stroke-dasharray="9.6,2.4,1.5,2.4" stroke-width="1.5"/><defs><path id="me7281e02b2" d="m0 3c0.79561 0 1.5587-0.3161 2.1213-0.87868 0.56258-0.56258 0.87868-1.3257 0.87868-2.1213s-0.3161-1.5587-0.87868-2.1213c-0.56258-0.56258-1.3257-0.87868-2.1213-0.87868s-1.5587 0.3161-2.1213 0.87868c-0.56258 0.56258-0.87868 1.3257-0.87868 2.1213s0.3161 1.5587 0.87868 2.1213c0.56258 0.56258 1.3257 0.87868 2.1213 0.87868z" stroke="#1f77b4"/></defs><g clip-path="url(#p0cac5395cd)" fill="#1f77b4" stroke="#1f77b4"><use x="544.746646" y="344.949745" xlink:href="#me7281e02b2"/><use x="358.935778" y="294.450062" xlink:href="#me7281e02b2"/><use x="226.842317" y="231.415308" xlink:href="#me7281e02b2"/><use x="131.393787" y="145.833704" xlink:href="#me7281e02b2"/><use x="77.846232" y="49.114545" xlink:href="#me7281e02b2"/></g></g><g id="line2d_24"><path d="m677.93 373.81-213.49-39.968-158.74-51.862-121.79-73.268-72.516-85.697" clip-path="url(#p0cac5395cd)" fill="none" stroke="#d62728" stroke-dasharray="9.6,2.4,1.5,2.4" stroke-width="1.5"/><defs><path id="m08124e0db0" d="m0 3c0.79561 0 1.5587-0.3161 2.1213-0.87868 0.56258-0.56258 0.87868-1.3257 0.87868-2.1213s-0.3161-1.5587-0.87868-2.1213c-0.56258-0.56258-1.3257-0.87868-2.1213-0.87868s-1.5587 0.3161-2.1213 0.87868c-0.56258 0.56258-0.87868 1.3257-0.87868 2.1213s0.3161 1.5587 0.87868 2.1213c0.56258 0.56258 1.3257 0.87868 2.1213 0.87868z" stroke="#d62728"/></defs><g clip-path="url(#p0cac5395cd)" fill="#d62728" stroke="#d62728"><use x="677.931238" y="373.805455" xlink:href="#m08124e0db0"/><use x="464.440079" y="333.837235" xlink:href="#m08124e0db0"/><use x="305.697518" y="281.975099" xlink:href="#m08124e0db0"/><use x="183.912061" y="208.706918" xlink:href="#m08124e0db0"/><use x="111.396345" y="123.010106" xlink:href="#m08124e0db0"/></g></g><g id="line2d_25"><path d="m614.76 364.3-201.47-43.58-146.01-55.97-109-77.758-63.164-89.847" clip-path="url(#p0cac5395cd)" fill="none" stroke="#2ca02c" stroke-dasharray="9.6,2.4,1.5,2.4" stroke-width="1.5"/><defs><path id="me5cf87d2e8" d="m0 3c0.79561 0 1.5587-0.3161 2.1213-0.87868 0.56258-0.56258 0.87868-1.3257 0.87868-2.1213s-0.3161-1.5587-0.87868-2.1213c-0.56258-0.56258-1.3257-0.87868-2.1213-0.87868s-1.5587 0.3161-2.1213 0.87868c-0.56258 0.56258-0.87868 1.3257-0.87868 2.1213s0.3161 1.5587 0.87868 2.1213c0.56258 0.56258 1.3257 0.87868 2.1213 0.87868z" stroke="#2ca02c"/></defs><g clip-path="url(#p0cac5395cd)" fill="#2ca02c" stroke="#2ca02c"><use x="614.76215" y="364.304597" xlink:href="#me5cf87d2e8"/><use x="413.296359" y="320.724874" xlink:href="#me5cf87d2e8"/><use x="267.284306" y="264.755342" xlink:href="#me5cf87d2e8"/><use x="158.28902" y="186.997827" xlink:href="#me5cf87d2e8"/><use x="95.125295" y="97.151043" xlink:href="#me5cf87d2e8"/></g></g><g id="line2d_26"><path d="m583.21 358.43-193.57-45.576-139.35-58.175-103.31-80.043-59.05-92.346" clip-path="url(#p0cac5395cd)" fill="none" stroke="#ff7f0e" stroke-dasharray="9.6,2.4,1.5,2.4" stroke-width="1.5"/><defs><path id="m7fe571620c" d="m0 3c0.79561 0 1.5587-0.3161 2.1213-0.87868 0.56258-0.56258 0.87868-1.3257 0.87868-2.1213s-0.3161-1.5587-0.87868-2.1213c-0.56258-0.56258-1.3257-0.87868-2.1213-0.87868s-1.5587 0.3161-2.1213 0.87868c-0.56258 0.56258-0.87868 1.3257-0.87868 2.1213s0.3161 1.5587 0.87868 2.1213c0.56258 0.56258 1.3257 0.87868 2.1213 0.87868z" stroke="#ff7f0e"/></defs><g clip-path="url(#p0cac5395cd)" fill="#ff7f0e" stroke="#ff7f0e"><use x="583.207391" y="358.426512" xlink:href="#m7fe571620c"/><use x="389.636309" y="312.850696" xlink:href="#m7fe571620c"/><use x="250.281783" y="254.675942" xlink:href="#m7fe571620c"/><use x="146.973164" y="174.633062" xlink:href="#m7fe571620c"/><use x="87.923571" y="82.286777" xlink:href="#m7fe571620c"/></g></g><g id="line2d_27"><path d="m564.7 353.88-189.12-46.967-135.19-59.478-99.732-81.474-56.853-93.76" clip-path="url(#p0cac5395cd)" fill="none" stroke="#9467bd" stroke-dasharray="9.6,2.4,1.5,2.4" stroke-width="1.5"/><defs><path id="m4c38d339bc" d="m0 3c0.79561 0 1.5587-0.3161 2.1213-0.87868 0.56258-0.56258 0.87868-1.3257 0.87868-2.1213s-0.3161-1.5587-0.87868-2.1213c-0.56258-0.56258-1.3257-0.87868-2.1213-0.87868s-1.5587 0.3161-2.1213 0.87868c-0.56258 0.56258-0.87868 1.3257-0.87868 2.1213s0.3161 1.5587 0.87868 2.1213c0.56258 0.56258 1.3257 0.87868 2.1213 0.87868z" stroke="#9467bd"/></defs><g clip-path="url(#p0cac5395cd)" fill="#9467bd" stroke="#9467bd"><use x="564.698995" y="353.875818" xlink:href="#m4c38d339bc"/><use x="375.580989" y="306.908746" xlink:href="#m4c38d339bc"/><use x="240.39386" y="247.430396" xlink:href="#m4c38d339bc"/><use x="140.662107" y="165.956188" xlink:href="#m4c38d339bc"/><use x="83.808633" y="72.196108" xlink:href="#m4c38d339bc"/></g></g><g id="line2d_28"><path d="m551.97 350.16-185.17-48.085-132.85-60.484-97.245-82.522-55.531-95.022" clip-path="url(#p0cac5395cd)" fill="none" stroke="#8c564b" stroke-dasharray="9.6,2.4,1.5,2.4" stroke-width="1.5"/><defs><path id="mb2b08cfd02" d="m0 3c0.79561 0 1.5587-0.3161 2.1213-0.87868 0.56258-0.56258 0.87868-1.3257 0.87868-2.1213s-0.3161-1.5587-0.87868-2.1213c-0.56258-0.56258-1.3257-0.87868-2.1213-0.87868s-1.5587 0.3161-2.1213 0.87868c-0.56258 0.56258-0.87868 1.3257-0.87868 2.1213s0.3161 1.5587 0.87868 2.1213c0.56258 0.56258 1.3257 0.87868 2.1213 0.87868z" stroke="#8c564b"/></defs><g clip-path="url(#p0cac5395cd)" fill="#8c564b" stroke="#8c564b"><use x="551.972377" y="350.16163" xlink:href="#mb2b08cfd02"/><use x="366.803625" y="302.076294" xlink:href="#mb2b08cfd02"/><use x="233.950356" y="241.592383" xlink:href="#mb2b08cfd02"/><use x="136.705833" y="159.070038" xlink:href="#mb2b08cfd02"/><use x="81.174731" y="64.047685" xlink:href="#mb2b08cfd02"/></g></g><g id="line2d_29"><path d="m544.84 347.35-183.59-49.058-131.05-61.232-96.122-83.2-54.498-95.603" clip-path="url(#p0cac5395cd)" fill="none" stroke="#e377c2" stroke-dasharray="9.6,2.4,1.5,2.4" stroke-width="1.5"/><defs><path id="mfbfd09e920" d="m0 3c0.79561 0 1.5587-0.3161 2.1213-0.87868 0.56258-0.56258 0.87868-1.3257 0.87868-2.1213s-0.3161-1.5587-0.87868-2.1213c-0.56258-0.56258-1.3257-0.87868-2.1213-0.87868s-1.5587 0.3161-2.1213 0.87868c-0.56258 0.56258-0.87868 1.3257-0.87868 2.1213s0.3161 1.5587 0.87868 2.1213c0.56258 0.56258 1.3257 0.87868 2.1213 0.87868z" stroke="#e377c2"/></defs><g clip-path="url(#p0cac5395cd)" fill="#e377c2" stroke="#e377c2"><use x="544.836256" y="347.345309" xlink:href="#mfbfd09e920"/><use x="361.243397" y="298.286971" xlink:href="#mfbfd09e920"/><use x="230.196711" y="237.055464" xlink:href="#mfbfd09e920"/><use x="134.074462" y="153.855649" xlink:href="#mfbfd09e920"/><use x="79.5769" y="58.252249" xlink:href="#mfbfd09e920"/></g></g><g id="line2d_30"><path d="m540.04 344.94-182.36-49.689-130.55-62.005-95.04-83.944-53.605-95.403" clip-path="url(#p0cac5395cd)" fill="none" stroke="#7f7f7f" stroke-dasharray="9.6,2.4,1.5,2.4" stroke-width="1.5"/><defs><path id="maa9a0bf997" d="m0 3c0.79561 0 1.5587-0.3161 2.1213-0.87868 0.56258-0.56258 0.87868-1.3257 0.87868-2.1213s-0.3161-1.5587-0.87868-2.1213c-0.56258-0.56258-1.3257-0.87868-2.1213-0.87868s-1.5587 0.3161-2.1213 0.87868c-0.56258 0.56258-0.87868 1.3257-0.87868 2.1213s0.3161 1.5587 0.87868 2.1213c0.56258 0.56258 1.3257 0.87868 2.1213 0.87868z" stroke="#7f7f7f"/></defs><g clip-path="url(#p0cac5395cd)" fill="#7f7f7f" stroke="#7f7f7f"><use x="540.044491" y="344.940979" xlink:href="#maa9a0bf997"/><use x="357.682207" y="295.251505" xlink:href="#maa9a0bf997"/><use x="227.132622" y="233.246104" xlink:href="#maa9a0bf997"/><use x="132.092711" y="149.30245" xlink:href="#maa9a0bf997"/><use x="78.487887" y="53.899411" xlink:href="#maa9a0bf997"/></g></g><g id="line2d_31"><path d="m537.41 342.73-182.46-50.4-129.37-62.084-94.724-84.997-53.132-95.38" clip-path="url(#p0cac5395cd)" fill="none" stroke="#bcbd22" stroke-dasharray="9.6,2.4,1.5,2.4" stroke-width="1.5"/><defs><path id="m1a033e65fd" d="m0 3c0.79561 0 1.5587-0.3161 2.1213-0.87868 0.56258-0.56258 0.87868-1.3257 0.87868-2.1213s-0.3161-1.5587-0.87868-2.1213c-0.56258-0.56258-1.3257-0.87868-2.1213-0.87868s-1.5587 0.3161-2.1213 0.87868c-0.56258 0.56258-0.87868 1.3257-0.87868 2.1213s0.3161 1.5587 0.87868 2.1213c0.56258 0.56258 1.3257 0.87868 2.1213 0.87868z" stroke="#bcbd22"/></defs><g clip-path="url(#p0cac5395cd)" fill="#bcbd22" stroke="#bcbd22"><use x="537.412867" y="342.72574" xlink:href="#m1a033e65fd"/><use x="354.955979" y="292.326238" xlink:href="#m1a033e65fd"/><use x="225.585892" y="230.241945" xlink:href="#m1a033e65fd"/><use x="130.861699" y="145.245144" xlink:href="#m1a033e65fd"/><use x="77.730059" y="49.864646" xlink:href="#m1a033e65fd"/></g></g><g id="patch_3"><path d="m47.72 390.04v-357.16" fill="none" stroke="#808080" stroke-linecap="square" stroke-width=".8"/></g><g id="patch_4"><path d="m707.94 390.04v-357.16" fill="none" stroke="#808080" stroke-linecap="square" stroke-width=".8"/></g><g id="patch_5"><path d="m47.72 390.04h660.22" fill="none" stroke="#808080" stroke-linecap="square" stroke-width=".8"/></g><g id="patch_6"><path d="m47.72 32.88h660.22" fill="none" stroke="#808080" stroke-linecap="square" stroke-width=".8"/></g><g id="text_15" fill="#fff"><path d="m539.66 329.65q-0.86 0-1.3662 0.64125-0.505 0.64-0.505 1.7462 0 1.1012 0.505 1.7425 0.50625 0.64 1.3662 0.64 0.85875 0 1.3612-0.64 0.5025-0.64125 0.5025-1.7425 0-1.1062-0.5025-1.7462-0.5025-0.64125-1.3612-0.64125zm1.105 5.1925 1.04 1.1362h-0.95375l-0.86375-0.93375q-0.12875 0.0075-0.1975 0.01125-0.0675 5e-3 -0.13 5e-3 -1.23 0-1.9675-0.8225-0.73625-0.8225-0.73625-2.2012 0-1.3825 0.73625-2.205 0.7375-0.8225 1.9675-0.8225 1.2262 0 1.96 0.8225 0.735 0.8225 0.735 2.205 0 1.015-0.40875 1.7388-0.4075 0.7225-1.1812 1.0662zm3.5744-0.55875h2.7538v0.66375h-3.7025v-0.66375q0.44875-0.465 1.2238-1.2475 0.77625-0.78375 0.975-1.0112 0.37875-0.425 0.52875-0.72 0.15125-0.295 0.15125-0.58 0-0.465-0.32625-0.7575-0.32625-0.29375-0.85-0.29375-0.37125 0-0.78375 0.12875-0.41125 0.12875-0.88 0.39125v-0.7975q0.47625-0.19125 0.89-0.28875 0.415-0.0975 0.75875-0.0975 0.90625 0 1.445 0.45375 0.53875 0.4525 0.53875 1.21 0 0.36-0.135 0.6825-0.13375 0.32125-0.49 0.75875-0.0975 0.11375-0.62125 0.655-0.5225 0.54125-1.4762 1.5138zm6.0973-2.1062q-0.5625 0-0.885 0.30125-0.32125 0.30125-0.32125 0.8275 0 0.5275 0.32125 0.82875 0.3225 0.30125 0.885 0.30125t0.88625-0.3025q0.325-0.30375 0.325-0.8275 0-0.52625-0.3225-0.8275-0.32125-0.30125-0.88875-0.30125zm-0.78875-0.335q-0.5075-0.125-0.79125-0.4725-0.2825-0.34875-0.2825-0.84875 0-0.69875 0.4975-1.105 0.49875-0.40625 1.365-0.40625 0.87125 0 1.3675 0.40625t0.49625 1.105q0 0.5-0.28375 0.84875-0.2825 0.3475-0.78625 0.4725 0.57 0.1325 0.8875 0.52 0.31875 0.38625 0.31875 0.94375 0 0.84875-0.5175 1.3025-0.5175 0.4525-1.4825 0.4525-0.96375 0-1.4825-0.4525-0.5175-0.45375-0.5175-1.3025 0-0.5575 0.32-0.94375 0.32125-0.3875 0.89125-0.52zm-0.28875-1.2462q0 0.4525 0.2825 0.70625 0.28375 0.25375 0.795 0.25375 0.50875 0 0.795-0.25375 0.2875-0.25375 0.2875-0.70625 0-0.45375-0.2875-0.7075-0.28625-0.25375-0.795-0.25375-0.51125 0-0.795 0.25375-0.2825 0.25375-0.2825 0.7075z" stroke="#000" stroke-width="2"/><path d="m539.66 329.65q-0.86 0-1.3662 0.64125-0.505 0.64-0.505 1.7462 0 1.1012 0.505 1.7425 0.50625 0.64 1.3662 0.64 0.85875 0 1.3612-0.64 0.5025-0.64125 0.5025-1.7425 0-1.1062-0.5025-1.7462-0.5025-0.64125-1.3612-0.64125zm1.105 5.1925 1.04 1.1362h-0.95375l-0.86375-0.93375q-0.12875 0.0075-0.1975 0.01125-0.0675 5e-3 -0.13 5e-3 -1.23 0-1.9675-0.8225-0.73625-0.8225-0.73625-2.2012 0-1.3825 0.73625-2.205 0.7375-0.8225 1.9675-0.8225 1.2262 0 1.96 0.8225 0.735 0.8225 0.735 2.205 0 1.015-0.40875 1.7388-0.4075 0.7225-1.1812 1.0662zm3.5744-0.55875h2.7538v0.66375h-3.7025v-0.66375q0.44875-0.465 1.2238-1.2475 0.77625-0.78375 0.975-1.0112 0.37875-0.425 0.52875-0.72 0.15125-0.295 0.15125-0.58 0-0.465-0.32625-0.7575-0.32625-0.29375-0.85-0.29375-0.37125 0-0.78375 0.12875-0.41125 0.12875-0.88 0.39125v-0.7975q0.47625-0.19125 0.89-0.28875 0.415-0.0975 0.75875-0.0975 0.90625 0 1.445 0.45375 0.53875 0.4525 0.53875 1.21 0 0.36-0.135 0.6825-0.13375 0.32125-0.49 0.75875-0.0975 0.11375-0.62125 0.655-0.5225 0.54125-1.4762 1.5138zm6.0973-2.1062q-0.5625 0-0.885 0.30125-0.32125 0.30125-0.32125 0.8275 0 0.5275 0.32125 0.82875 0.3225 0.30125 0.885 0.30125t0.88625-0.3025q0.325-0.30375 0.325-0.8275 0-0.52625-0.3225-0.8275-0.32125-0.30125-0.88875-0.30125zm-0.78875-0.335q-0.5075-0.125-0.79125-0.4725-0.2825-0.34875-0.2825-0.84875 0-0.69875 0.4975-1.105 0.49875-0.40625 1.365-0.40625 0.87125 0 1.3675 0.40625t0.49625 1.105q0 0.5-0.28375 0.84875-0.2825 0.3475-0.78625 0.4725 0.57 0.1325 0.8875 0.52 0.31875 0.38625 0.31875 0.94375 0 0.84875-0.5175 1.3025-0.5175 0.4525-1.4825 0.4525-0.96375 0-1.4825-0.4525-0.5175-0.45375-0.5175-1.3025 0-0.5575 0.32-0.94375 0.32125-0.3875 0.89125-0.52zm-0.28875-1.2462q0 0.4525 0.2825 0.70625 0.28375 0.25375 0.795 0.25375 0.50875 0 0.795-0.25375 0.2875-0.25375 0.2875-0.70625 0-0.45375-0.2875-0.7075-0.28625-0.25375-0.795-0.25375-0.51125 0-0.795 0.25375-0.2825 0.25375-0.2825 0.7075z"/></g><g id="text_16" fill="#fff"><path d="m353.85 279.15q-0.86 0-1.3662 0.64125-0.505 0.64-0.505 1.7462 0 1.1012 0.505 1.7425 0.50625 0.64 1.3662 0.64 0.85875 0 1.3612-0.64 0.5025-0.64125 0.5025-1.7425 0-1.1062-0.5025-1.7462-0.5025-0.64125-1.3612-0.64125zm1.105 5.1925 1.04 1.1362h-0.95375l-0.86375-0.93375q-0.12875 0.0075-0.1975 0.01125-0.0675 5e-3 -0.13 5e-3 -1.23 0-1.9675-0.8225-0.73625-0.8225-0.73625-2.2012 0-1.3825 0.73625-2.205 0.7375-0.8225 1.9675-0.8225 1.2262 0 1.96 0.8225 0.735 0.8225 0.735 2.205 0 1.015-0.40875 1.7388-0.4075 0.7225-1.1812 1.0662zm5.2856-3.04q0.56625 0.12125 0.88375 0.505 0.31875 0.3825 0.31875 0.945 0 0.8625-0.59375 1.3362-0.59375 0.4725-1.6875 0.4725-0.36625 0-0.755-0.0725t-0.8025-0.2175v-0.76125q0.3275 0.19125 0.7175 0.28875 0.39125 0.0975 0.8175 0.0975 0.74125 0 1.13-0.2925t0.38875-0.85125q0-0.51625-0.36125-0.80625-0.36125-0.29125-1.005-0.29125h-0.68v-0.64875h0.71125q0.58125 0 0.89-0.2325t0.30875-0.67q0-0.44875-0.31875-0.68875-0.3175-0.24125-0.91125-0.24125-0.325 0-0.69625 0.07125-0.37125 0.07-0.81625 0.2175v-0.7025q0.45-0.125 0.8425-0.1875t0.74-0.0625q0.89875 0 1.4212 0.40875 0.52375 0.4075 0.52375 1.1025 0 0.485-0.2775 0.81875t-0.78875 0.4625zm5.0898 0q0.56625 0.12125 0.88375 0.505 0.31875 0.3825 0.31875 0.945 0 0.8625-0.59375 1.3362-0.59375 0.4725-1.6875 0.4725-0.36625 0-0.755-0.0725t-0.8025-0.2175v-0.76125q0.3275 0.19125 0.7175 0.28875 0.39125 0.0975 0.8175 0.0975 0.74125 0 1.13-0.2925t0.38875-0.85125q0-0.51625-0.36125-0.80625-0.36125-0.29125-1.005-0.29125h-0.68v-0.64875h0.71125q0.58125 0 0.89-0.2325t0.30875-0.67q0-0.44875-0.31875-0.68875-0.3175-0.24125-0.91125-0.24125-0.325 0-0.69625 0.07125-0.37125 0.07-0.81625 0.2175v-0.7025q0.45-0.125 0.8425-0.1875t0.74-0.0625q0.89875 0 1.4212 0.40875 0.52375 0.4075 0.52375 1.1025 0 0.485-0.2775 0.81875t-0.78875 0.4625z" stroke="#000" stroke-width="2"/><path d="m353.85 279.15q-0.86 0-1.3662 0.64125-0.505 0.64-0.505 1.7462 0 1.1012 0.505 1.7425 0.50625 0.64 1.3662 0.64 0.85875 0 1.3612-0.64 0.5025-0.64125 0.5025-1.7425 0-1.1062-0.5025-1.7462-0.5025-0.64125-1.3612-0.64125zm1.105 5.1925 1.04 1.1362h-0.95375l-0.86375-0.93375q-0.12875 0.0075-0.1975 0.01125-0.0675 5e-3 -0.13 5e-3 -1.23 0-1.9675-0.8225-0.73625-0.8225-0.73625-2.2012 0-1.3825 0.73625-2.205 0.7375-0.8225 1.9675-0.8225 1.2262 0 1.96 0.8225 0.735 0.8225 0.735 2.205 0 1.015-0.40875 1.7388-0.4075 0.7225-1.1812 1.0662zm5.2856-3.04q0.56625 0.12125 0.88375 0.505 0.31875 0.3825 0.31875 0.945 0 0.8625-0.59375 1.3362-0.59375 0.4725-1.6875 0.4725-0.36625 0-0.755-0.0725t-0.8025-0.2175v-0.76125q0.3275 0.19125 0.7175 0.28875 0.39125 0.0975 0.8175 0.0975 0.74125 0 1.13-0.2925t0.38875-0.85125q0-0.51625-0.36125-0.80625-0.36125-0.29125-1.005-0.29125h-0.68v-0.64875h0.71125q0.58125 0 0.89-0.2325t0.30875-0.67q0-0.44875-0.31875-0.68875-0.3175-0.24125-0.91125-0.24125-0.325 0-0.69625 0.07125-0.37125 0.07-0.81625 0.2175v-0.7025q0.45-0.125 0.8425-0.1875t0.74-0.0625q0.89875 0 1.4212 0.40875 0.52375 0.4075 0.52375 1.1025 0 0.485-0.2775 0.81875t-0.78875 0.4625zm5.0898 0q0.56625 0.12125 0.88375 0.505 0.31875 0.3825 0.31875 0.945 0 0.8625-0.59375 1.3362-0.59375 0.4725-1.6875 0.4725-0.36625 0-0.755-0.0725t-0.8025-0.2175v-0.76125q0.3275 0.19125 0.7175 0.28875 0.39125 0.0975 0.8175 0.0975 0.74125 0 1.13-0.2925t0.38875-0.85125q0-0.51625-0.36125-0.80625-0.36125-0.29125-1.005-0.29125h-0.68v-0.64875h0.71125q0.58125 0 0.89-0.2325t0.30875-0.67q0-0.44875-0.31875-0.68875-0.3175-0.24125-0.91125-0.24125-0.325 0-0.69625 0.07125-0.37125 0.07-0.81625 0.2175v-0.7025q0.45-0.125 0.8425-0.1875t0.74-0.0625q0.89875 0 1.4212 0.40875 0.52375 0.4075 0.52375 1.1025 0 0.485-0.2775 0.81875t-0.78875 0.4625z"/></g><g id="text_17" fill="#fff"><path d="m221.76 216.12q-0.86 0-1.3662 0.64125-0.505 0.64-0.505 1.7462 0 1.1012 0.505 1.7425 0.50625 0.64 1.3662 0.64 0.85875 0 1.3612-0.64 0.5025-0.64125 0.5025-1.7425 0-1.1062-0.5025-1.7462-0.5025-0.64125-1.3612-0.64125zm1.105 5.1925 1.04 1.1362h-0.95375l-0.86375-0.93375q-0.12875 0.0075-0.1975 0.01125-0.0675 5e-3 -0.13 5e-3 -1.23 0-1.9675-0.8225-0.73625-0.8225-0.73625-2.2012 0-1.3825 0.73625-2.205 0.7375-0.8225 1.9675-0.8225 1.2262 0 1.96 0.8225 0.735 0.8225 0.735 2.205 0 1.015-0.40875 1.7388-0.4075 0.7225-1.1812 1.0662zm5.2856-3.04q0.56625 0.12125 0.88375 0.505 0.31875 0.3825 0.31875 0.945 0 0.8625-0.59375 1.3362-0.59375 0.4725-1.6875 0.4725-0.36625 0-0.755-0.0725t-0.8025-0.2175v-0.76125q0.3275 0.19125 0.7175 0.28875 0.39125 0.0975 0.8175 0.0975 0.74125 0 1.13-0.2925t0.38875-0.85125q0-0.51625-0.36125-0.80625-0.36125-0.29125-1.005-0.29125h-0.68v-0.64875h0.71125q0.58125 0 0.89-0.2325t0.30875-0.67q0-0.44875-0.31875-0.68875-0.3175-0.24125-0.91125-0.24125-0.325 0-0.69625 0.07125-0.37125 0.07-0.81625 0.2175v-0.7025q0.45-0.125 0.8425-0.1875t0.74-0.0625q0.89875 0 1.4212 0.40875 0.52375 0.4075 0.52375 1.1025 0 0.485-0.2775 0.81875t-0.78875 0.4625zm4.3861 0.375q-0.5625 0-0.885 0.30125-0.32125 0.30125-0.32125 0.8275 0 0.5275 0.32125 0.82875 0.3225 0.30125 0.885 0.30125t0.88625-0.3025q0.325-0.30375 0.325-0.8275 0-0.52625-0.3225-0.8275-0.32125-0.30125-0.88875-0.30125zm-0.78875-0.335q-0.5075-0.125-0.79125-0.4725-0.2825-0.34875-0.2825-0.84875 0-0.69875 0.4975-1.105 0.49875-0.40625 1.365-0.40625 0.87125 0 1.3675 0.40625t0.49625 1.105q0 0.5-0.28375 0.84875-0.2825 0.3475-0.78625 0.4725 0.57 0.1325 0.8875 0.52 0.31875 0.38625 0.31875 0.94375 0 0.84875-0.5175 1.3025-0.5175 0.4525-1.4825 0.4525-0.96375 0-1.4825-0.4525-0.5175-0.45375-0.5175-1.3025 0-0.5575 0.32-0.94375 0.32125-0.3875 0.89125-0.52zm-0.28875-1.2462q0 0.4525 0.2825 0.70625 0.28375 0.25375 0.795 0.25375 0.50875 0 0.795-0.25375 0.2875-0.25375 0.2875-0.70625 0-0.45375-0.2875-0.7075-0.28625-0.25375-0.795-0.25375-0.51125 0-0.795 0.25375-0.2825 0.25375-0.2825 0.7075z" stroke="#000" stroke-width="2"/><path d="m221.76 216.12q-0.86 0-1.3662 0.64125-0.505 0.64-0.505 1.7462 0 1.1012 0.505 1.7425 0.50625 0.64 1.3662 0.64 0.85875 0 1.3612-0.64 0.5025-0.64125 0.5025-1.7425 0-1.1062-0.5025-1.7462-0.5025-0.64125-1.3612-0.64125zm1.105 5.1925 1.04 1.1362h-0.95375l-0.86375-0.93375q-0.12875 0.0075-0.1975 0.01125-0.0675 5e-3 -0.13 5e-3 -1.23 0-1.9675-0.8225-0.73625-0.8225-0.73625-2.2012 0-1.3825 0.73625-2.205 0.7375-0.8225 1.9675-0.8225 1.2262 0 1.96 0.8225 0.735 0.8225 0.735 2.205 0 1.015-0.40875 1.7388-0.4075 0.7225-1.1812 1.0662zm5.2856-3.04q0.56625 0.12125 0.88375 0.505 0.31875 0.3825 0.31875 0.945 0 0.8625-0.59375 1.3362-0.59375 0.4725-1.6875 0.4725-0.36625 0-0.755-0.0725t-0.8025-0.2175v-0.76125q0.3275 0.19125 0.7175 0.28875 0.39125 0.0975 0.8175 0.0975 0.74125 0 1.13-0.2925t0.38875-0.85125q0-0.51625-0.36125-0.80625-0.36125-0.29125-1.005-0.29125h-0.68v-0.64875h0.71125q0.58125 0 0.89-0.2325t0.30875-0.67q0-0.44875-0.31875-0.68875-0.3175-0.24125-0.91125-0.24125-0.325 0-0.69625 0.07125-0.37125 0.07-0.81625 0.2175v-0.7025q0.45-0.125 0.8425-0.1875t0.74-0.0625q0.89875 0 1.4212 0.40875 0.52375 0.4075 0.52375 1.1025 0 0.485-0.2775 0.81875t-0.78875 0.4625zm4.3861 0.375q-0.5625 0-0.885 0.30125-0.32125 0.30125-0.32125 0.8275 0 0.5275 0.32125 0.82875 0.3225 0.30125 0.885 0.30125t0.88625-0.3025q0.325-0.30375 0.325-0.8275 0-0.52625-0.3225-0.8275-0.32125-0.30125-0.88875-0.30125zm-0.78875-0.335q-0.5075-0.125-0.79125-0.4725-0.2825-0.34875-0.2825-0.84875 0-0.69875 0.4975-1.105 0.49875-0.40625 1.365-0.40625 0.87125 0 1.3675 0.40625t0.49625 1.105q0 0.5-0.28375 0.84875-0.2825 0.3475-0.78625 0.4725 0.57 0.1325 0.8875 0.52 0.31875 0.38625 0.31875 0.94375 0 0.84875-0.5175 1.3025-0.5175 0.4525-1.4825 0.4525-0.96375 0-1.4825-0.4525-0.5175-0.45375-0.5175-1.3025 0-0.5575 0.32-0.94375 0.32125-0.3875 0.89125-0.52zm-0.28875-1.2462q0 0.4525 0.2825 0.70625 0.28375 0.25375 0.795 0.25375 0.50875 0 0.795-0.25375 0.2875-0.25375 0.2875-0.70625 0-0.45375-0.2875-0.7075-0.28625-0.25375-0.795-0.25375-0.51125 0-0.795 0.25375-0.2825 0.25375-0.2825 0.7075z"/></g><g id="text_18" fill="#fff"><path d="m126.31 130.54q-0.86 0-1.3662 0.64125-0.505 0.64-0.505 1.7462 0 1.1012 0.505 1.7425 0.50625 0.64 1.3662 0.64 0.85875 0 1.3612-0.64 0.5025-0.64125 0.5025-1.7425 0-1.1062-0.5025-1.7462-0.5025-0.64125-1.3612-0.64125zm1.105 5.1925 1.04 1.1362h-0.95375l-0.86375-0.93375q-0.12875 0.0075-0.1975 0.01125-0.0675 5e-3 -0.13 5e-3 -1.23 0-1.9675-0.8225-0.73625-0.8225-0.73625-2.2012 0-1.3825 0.73625-2.205 0.7375-0.8225 1.9675-0.8225 1.2262 0 1.96 0.8225 0.735 0.8225 0.735 2.205 0 1.015-0.40875 1.7388-0.4075 0.7225-1.1812 1.0662zm5.0631-5.04-1.9925 3.1138h1.9925v-3.1138zm-0.2075-0.6875h0.9925v3.8012h0.8325v0.65625h-0.8325v1.375h-0.785v-1.375h-2.6325v-0.76125l2.425-3.6962zm5.2973 0.6875-1.9925 3.1138h1.9925v-3.1138zm-0.2075-0.6875h0.9925v3.8012h0.8325v0.65625h-0.8325v1.375h-0.785v-1.375h-2.6325v-0.76125l2.425-3.6962z" stroke="#000" stroke-width="2"/><path d="m126.31 130.54q-0.86 0-1.3662 0.64125-0.505 0.64-0.505 1.7462 0 1.1012 0.505 1.7425 0.50625 0.64 1.3662 0.64 0.85875 0 1.3612-0.64 0.5025-0.64125 0.5025-1.7425 0-1.1062-0.5025-1.7462-0.5025-0.64125-1.3612-0.64125zm1.105 5.1925 1.04 1.1362h-0.95375l-0.86375-0.93375q-0.12875 0.0075-0.1975 0.01125-0.0675 5e-3 -0.13 5e-3 -1.23 0-1.9675-0.8225-0.73625-0.8225-0.73625-2.2012 0-1.3825 0.73625-2.205 0.7375-0.8225 1.9675-0.8225 1.2262 0 1.96 0.8225 0.735 0.8225 0.735 2.205 0 1.015-0.40875 1.7388-0.4075 0.7225-1.1812 1.0662zm5.0631-5.04-1.9925 3.1138h1.9925v-3.1138zm-0.2075-0.6875h0.9925v3.8012h0.8325v0.65625h-0.8325v1.375h-0.785v-1.375h-2.6325v-0.76125l2.425-3.6962zm5.2973 0.6875-1.9925 3.1138h1.9925v-3.1138zm-0.2075-0.6875h0.9925v3.8012h0.8325v0.65625h-0.8325v1.375h-0.785v-1.375h-2.6325v-0.76125l2.425-3.6962z"/></g><g id="text_19" fill="#fff"><path d="m72.76 33.817q-0.86 0-1.3662 0.64125-0.505 0.64-0.505 1.7462 0 1.1012 0.505 1.7425 0.50625 0.64 1.3662 0.64 0.85875 0 1.3612-0.64 0.5025-0.64125 0.5025-1.7425 0-1.1062-0.5025-1.7462-0.5025-0.64125-1.3612-0.64125zm1.105 5.1925 1.04 1.1362h-0.95375l-0.86375-0.93375q-0.12875 0.0075-0.1975 0.01125-0.0675 5e-3 -0.13 5e-3 -1.23 0-1.9675-0.8225-0.73625-0.8225-0.73625-2.2012 0-1.3825 0.73625-2.205 0.7375-0.8225 1.9675-0.8225 1.2262 0 1.96 0.8225 0.735 0.8225 0.735 2.205 0 1.015-0.40875 1.7388-0.4075 0.7225-1.1812 1.0662zm2.9031-5.7275h3.0975v0.665h-2.375v1.4288q0.17125-0.05875 0.3425-0.0875 0.1725-0.02875 0.345-0.02875 0.97625 0 1.5462 0.535 0.57125 0.535 0.57125 1.4488 0 0.94125-0.58625 1.4638-0.58625 0.52125-1.6525 0.52125-0.3675 0-0.74875-0.0625-0.38-0.0625-0.78625-0.1875v-0.79375q0.35125 0.19125 0.72625 0.285t0.7925 0.09375q0.67625 0 1.07-0.355 0.395-0.355 0.395-0.965 0-0.60875-0.395-0.96375-0.39375-0.35625-1.07-0.35625-0.31625 0-0.63125 0.07-0.31375 0.07-0.64125 0.21875v-2.93zm6.7686 0.52q-0.60875 0-0.91625 0.6-0.30625 0.59875-0.30625 1.8025 0 1.1988 0.30625 1.7988 0.3075 0.6 0.91625 0.6 0.61375 0 0.92-0.6 0.3075-0.6 0.3075-1.7988 0-1.2038-0.3075-1.8025-0.30625-0.6-0.92-0.6zm0-0.625q0.98125 0 1.4988 0.77625 0.5175 0.775 0.5175 2.2512 0 1.4725-0.5175 2.2488-0.5175 0.775-1.4988 0.775-0.98 0-1.4975-0.775-0.5175-0.77625-0.5175-2.2488 0-1.4762 0.5175-2.2512 0.5175-0.77625 1.4975-0.77625z" stroke="#000" stroke-width="2"/><path d="m72.76 33.817q-0.86 0-1.3662 0.64125-0.505 0.64-0.505 1.7462 0 1.1012 0.505 1.7425 0.50625 0.64 1.3662 0.64 0.85875 0 1.3612-0.64 0.5025-0.64125 0.5025-1.7425 0-1.1062-0.5025-1.7462-0.5025-0.64125-1.3612-0.64125zm1.105 5.1925 1.04 1.1362h-0.95375l-0.86375-0.93375q-0.12875 0.0075-0.1975 0.01125-0.0675 5e-3 -0.13 5e-3 -1.23 0-1.9675-0.8225-0.73625-0.8225-0.73625-2.2012 0-1.3825 0.73625-2.205 0.7375-0.8225 1.9675-0.8225 1.2262 0 1.96 0.8225 0.735 0.8225 0.735 2.205 0 1.015-0.40875 1.7388-0.4075 0.7225-1.1812 1.0662zm2.9031-5.7275h3.0975v0.665h-2.375v1.4288q0.17125-0.05875 0.3425-0.0875 0.1725-0.02875 0.345-0.02875 0.97625 0 1.5462 0.535 0.57125 0.535 0.57125 1.4488 0 0.94125-0.58625 1.4638-0.58625 0.52125-1.6525 0.52125-0.3675 0-0.74875-0.0625-0.38-0.0625-0.78625-0.1875v-0.79375q0.35125 0.19125 0.72625 0.285t0.7925 0.09375q0.67625 0 1.07-0.355 0.395-0.355 0.395-0.965 0-0.60875-0.395-0.96375-0.39375-0.35625-1.07-0.35625-0.31625 0-0.63125 0.07-0.31375 0.07-0.64125 0.21875v-2.93zm6.7686 0.52q-0.60875 0-0.91625 0.6-0.30625 0.59875-0.30625 1.8025 0 1.1988 0.30625 1.7988 0.3075 0.6 0.91625 0.6 0.61375 0 0.92-0.6 0.3075-0.6 0.3075-1.7988 0-1.2038-0.3075-1.8025-0.30625-0.6-0.92-0.6zm0-0.625q0.98125 0 1.4988 0.77625 0.5175 0.775 0.5175 2.2512 0 1.4725-0.5175 2.2488-0.5175 0.775-1.4988 0.775-0.98 0-1.4975-0.775-0.5175-0.77625-0.5175-2.2488 0-1.4762 0.5175-2.2512 0.5175-0.77625 1.4975-0.77625z"/></g><g id="text_20"><!-- Ducks Take Off - Efficiency Comparison: Butteraugli Distance vs Filesize --><g transform="translate(117.75 20.88) scale(.12 -.12)" fill="#fff"><defs><path id="DejaVuSansMono-6b" transform="scale(.015625)" d="m738 4863h593v-2816l1510 1453h700l-1378-1319 1593-2181h-703l-1294 1806-428-403v-1403h-593v4863z"/><path id="DejaVuSansMono-54" transform="scale(.015625)" d="m147 4666h3559v-532h-1459v-4134h-634v4134h-1466v532z"/><path id="DejaVuSansMono-66" transform="scale(.015625)" d="m3322 4863v-479h-653q-310 0-430-127-120-126-120-448v-309h1203v-447h-1203v-3053h-575v3053h-935v447h935v244q0 575 264 847t823 272h691z"/><path id="DejaVuSansMono-2d" transform="scale(.015625)" d="m1113 2009h1628v-512h-1628v512z"/><path id="DejaVuSansMono-45" transform="scale(.015625)" d="m616 4666h2768v-532h-2137v-1381h2044v-531h-2044v-1691h2197v-531h-2828v4666z"/><path id="DejaVuSansMono-79" transform="scale(.015625)" d="m2681 1125q-143-366-365-962-310-826-416-1007-144-244-360-365-215-122-502-122h-463v481h341q253 0 396 147 144 147 366 759l-1353 3444h609l1038-2737 1022 2737h609l-922-2375z"/><path id="DejaVuSansMono-43" transform="scale(.015625)" d="m3353 166q-240-128-494-192-253-65-537-65-897 0-1393 634-495 635-495 1785 0 1144 498 1783 499 639 1390 639 284 0 537-64 254-64 494-192v-647q-231 191-497 291-265 100-534 100-616 0-922-475t-306-1435q0-956 306-1431t922-475q275 0 539 100t492 291v-647z"/><path id="DejaVuSansMono-6f" transform="scale(.015625)" d="m1925 3097q-437 0-662-341-225-340-225-1009 0-666 225-1008t662-342q441 0 666 342t225 1008q0 669-225 1009-225 341-666 341zm0 487q728 0 1114-472 386-471 386-1365 0-897-385-1368-384-470-1115-470-728 0-1113 470-384 471-384 1368 0 894 384 1365 385 472 1113 472z"/><path id="DejaVuSansMono-6d" transform="scale(.015625)" d="m2113 3144q106 225 270 332 164 108 395 108 422 0 595-327 174-326 174-1229v-2028h-525v2003q0 741-83 920-83 180-301 180-250 0-343-192-92-192-92-908v-2003h-525v2003q0 750-89 925t-320 175q-228 0-317-192t-89-908v-2003h-522v3500h522v-300q103 188 257 286 155 98 352 98 237 0 395-109t246-331z"/><path id="DejaVuSansMono-3a" transform="scale(.015625)" d="m1528 3322h788v-947h-788v947zm0-2369h788v-953h-788v953z"/><path id="DejaVuSansMono-76" transform="scale(.015625)" d="m313 3500h596l1016-2937 1019 2937h597l-1244-3500h-741l-1243 3500z"/></defs><use xlink:href="#DejaVuSansMono-44"/><use transform="translate(60.205)" xlink:href="#DejaVuSansMono-75"/><use transform="translate(120.41)" xlink:href="#DejaVuSansMono-63"/><use transform="translate(180.62)" xlink:href="#DejaVuSansMono-6b"/><use transform="translate(240.82)" xlink:href="#DejaVuSansMono-73"/><use transform="translate(301.03)" xlink:href="#DejaVuSansMono-20"/><use transform="translate(361.23)" xlink:href="#DejaVuSansMono-54"/><use transform="translate(421.44)" xlink:href="#DejaVuSansMono-61"/><use transform="translate(481.64)" xlink:href="#DejaVuSansMono-6b"/><use transform="translate(541.85)" xlink:href="#DejaVuSansMono-65"/><use transform="translate(602.05)" xlink:href="#DejaVuSansMono-20"/><use transform="translate(662.26)" xlink:href="#DejaVuSansMono-4f"/><use transform="translate(722.46)" xlink:href="#DejaVuSansMono-66"/><use transform="translate(782.67)" xlink:href="#DejaVuSansMono-66"/><use transform="translate(842.87)" xlink:href="#DejaVuSansMono-20"/><use transform="translate(903.08)" xlink:href="#DejaVuSansMono-2d"/><use transform="translate(963.28)" xlink:href="#DejaVuSansMono-20"/><use transform="translate(1023.5)" xlink:href="#DejaVuSansMono-45"/><use transform="translate(1083.7)" xlink:href="#DejaVuSansMono-66"/><use transform="translate(1143.9)" xlink:href="#DejaVuSansMono-66"/><use transform="translate(1204.1)" xlink:href="#DejaVuSansMono-69"/><use transform="translate(1264.3)" xlink:href="#DejaVuSansMono-63"/><use transform="translate(1324.5)" xlink:href="#DejaVuSansMono-69"/><use transform="translate(1384.7)" xlink:href="#DejaVuSansMono-65"/><use transform="translate(1444.9)" xlink:href="#DejaVuSansMono-6e"/><use transform="translate(1505.1)" xlink:href="#DejaVuSansMono-63"/><use transform="translate(1565.3)" xlink:href="#DejaVuSansMono-79"/><use transform="translate(1625.5)" xlink:href="#DejaVuSansMono-20"/><use transform="translate(1685.7)" xlink:href="#DejaVuSansMono-43"/><use transform="translate(1745.9)" xlink:href="#DejaVuSansMono-6f"/><use transform="translate(1806.2)" xlink:href="#DejaVuSansMono-6d"/><use transform="translate(1866.4)" xlink:href="#DejaVuSansMono-70"/><use transform="translate(1926.6)" xlink:href="#DejaVuSansMono-61"/><use transform="translate(1986.8)" xlink:href="#DejaVuSansMono-72"/><use transform="translate(2047)" xlink:href="#DejaVuSansMono-69"/><use transform="translate(2107.2)" xlink:href="#DejaVuSansMono-73"/><use transform="translate(2167.4)" xlink:href="#DejaVuSansMono-6f"/><use transform="translate(2227.6)" xlink:href="#DejaVuSansMono-6e"/><use transform="translate(2287.8)" xlink:href="#DejaVuSansMono-3a"/><use transform="translate(2348)" xlink:href="#DejaVuSansMono-20"/><use transform="translate(2408.2)" xlink:href="#DejaVuSansMono-42"/><use transform="translate(2468.4)" xlink:href="#DejaVuSansMono-75"/><use transform="translate(2528.6)" xlink:href="#DejaVuSansMono-74"/><use transform="translate(2588.8)" xlink:href="#DejaVuSansMono-74"/><use transform="translate(2649)" xlink:href="#DejaVuSansMono-65"/><use transform="translate(2709.2)" xlink:href="#DejaVuSansMono-72"/><use transform="translate(2769.4)" xlink:href="#DejaVuSansMono-61"/><use transform="translate(2829.6)" xlink:href="#DejaVuSansMono-75"/><use transform="translate(2889.8)" xlink:href="#DejaVuSansMono-67"/><use transform="translate(2950)" xlink:href="#DejaVuSansMono-6c"/><use transform="translate(3010.3)" xlink:href="#DejaVuSansMono-69"/><use transform="translate(3070.5)" xlink:href="#DejaVuSansMono-20"/><use transform="translate(3130.7)" xlink:href="#DejaVuSansMono-44"/><use transform="translate(3190.9)" xlink:href="#DejaVuSansMono-69"/><use transform="translate(3251.1)" xlink:href="#DejaVuSansMono-73"/><use transform="translate(3311.3)" xlink:href="#DejaVuSansMono-74"/><use transform="translate(3371.5)" xlink:href="#DejaVuSansMono-61"/><use transform="translate(3431.7)" xlink:href="#DejaVuSansMono-6e"/><use transform="translate(3491.9)" xlink:href="#DejaVuSansMono-63"/><use transform="translate(3552.1)" xlink:href="#DejaVuSansMono-65"/><use transform="translate(3612.3)" xlink:href="#DejaVuSansMono-20"/><use transform="translate(3672.5)" xlink:href="#DejaVuSansMono-76"/><use transform="translate(3732.7)" xlink:href="#DejaVuSansMono-73"/><use transform="translate(3792.9)" xlink:href="#DejaVuSansMono-20"/><use transform="translate(3853.1)" xlink:href="#DejaVuSansMono-46"/><use transform="translate(3913.3)" xlink:href="#DejaVuSansMono-69"/><use transform="translate(3973.5)" xlink:href="#DejaVuSansMono-6c"/><use transform="translate(4033.7)" xlink:href="#DejaVuSansMono-65"/><use transform="translate(4093.9)" xlink:href="#DejaVuSansMono-73"/><use transform="translate(4154.2)" xlink:href="#DejaVuSansMono-69"/><use transform="translate(4214.4)" xlink:href="#DejaVuSansMono-7a"/><use transform="translate(4274.6)" xlink:href="#DejaVuSansMono-65"/></g></g><g id="legend_1"><g id="patch_7"><path d="m549.06 144.96h153.28q1.6 0 1.6-1.6v-104.88q0-1.6-1.6-1.6h-153.28q-1.6 0-1.6 1.6v104.88q0 1.6 1.6 1.6z" opacity=".5" stroke="#ccc"/></g><g id="line2d_32"><path d="m550.66 43.359h8 8" fill="none" stroke="#1f77b4" stroke-dasharray="9.6,2.4,1.5,2.4" stroke-width="1.5"/><use x="558.660047" y="43.35875" fill="#1f77b4" stroke="#1f77b4" xlink:href="#me7281e02b2"/></g><g id="text_21"><!-- SVT-AV1 v3.0.1 preset 4 vb0 --><g transform="translate(573.06 46.159) scale(.08 -.08)" fill="#fff"><defs><path id="DejaVuSans-53" transform="scale(.015625)" d="m3425 4513v-616q-359 172-678 256-319 85-616 85-515 0-795-200t-280-569q0-310 186-468 186-157 705-254l381-78q706-135 1042-474t336-907q0-679-455-1029-454-350-1332-350-331 0-705 75-373 75-773 222v650q384-215 753-325 369-109 725-109 540 0 834 212 294 213 294 607 0 343-211 537t-692 291l-385 75q-706 140-1022 440-315 300-315 835 0 619 436 975t1201 356q329 0 669-60 341-59 697-177z"/><path id="DejaVuSans-56" transform="scale(.015625)" d="m1831 0-1781 4666h659l1479-3928 1481 3928h656l-1778-4666h-716z"/><path id="DejaVuSans-54" transform="scale(.015625)" d="m-19 4666h3947v-532h-1656v-4134h-634v4134h-1657v532z"/><path id="DejaVuSans-2d" transform="scale(.015625)" d="m313 2009h1684v-512h-1684v512z"/><path id="DejaVuSans-41" transform="scale(.015625)" d="m2188 4044-857-2322h1716l-859 2322zm-357 622h716l1778-4666h-656l-425 1197h-2103l-425-1197h-666l1781 4666z"/><path id="DejaVuSans-76" transform="scale(.015625)" d="m191 3500h609l1094-2937 1094 2937h609l-1313-3500h-781l-1312 3500z"/><path id="DejaVuSans-70" transform="scale(.015625)" d="m1159 525v-1856h-578v4831h578v-531q182 312 458 463 277 152 661 152 638 0 1036-506 399-506 399-1331t-399-1332q-398-506-1036-506-384 0-661 152-276 152-458 464zm1957 1222q0 634-261 995t-717 361q-457 0-718-361t-261-995 261-995 718-361q456 0 717 361t261 995z"/><path id="DejaVuSans-72" transform="scale(.015625)" d="m2631 2963q-97 56-211 82-114 27-251 27-488 0-749-317t-261-911v-1844h-578v3500h578v-544q182 319 472 473 291 155 707 155 59 0 131-8 72-7 159-23l3-590z"/><path id="DejaVuSans-73" transform="scale(.015625)" d="m2834 3397v-544q-243 125-506 187-262 63-544 63-428 0-642-131t-214-394q0-200 153-314t616-217l197-44q612-131 870-370t258-667q0-488-386-773-386-284-1061-284-281 0-586 55t-642 164v594q319-166 628-249 309-82 613-82 406 0 624 139 219 139 219 392 0 234-158 359-157 125-692 241l-200 47q-534 112-772 345-237 233-237 639 0 494 350 762 350 269 994 269 318 0 599-47 282-46 519-140z"/><path id="DejaVuSans-74" transform="scale(.015625)" d="m1172 4494v-994h1184v-447h-1184v-1900q0-428 117-550t477-122h590v-481h-590q-666 0-919 248-253 249-253 905v1900h-422v447h422v994h578z"/><path id="DejaVuSans-34" transform="scale(.015625)" d="m2419 4116-1594-2491h1594v2491zm-166 550h794v-3041h666v-525h-666v-1100h-628v1100h-2106v609l1940 2957z"/><path id="DejaVuSans-62" transform="scale(.015625)" d="m3116 1747q0 634-261 995t-717 361q-457 0-718-361t-261-995 261-995 718-361q456 0 717 361t261 995zm-1957 1222q182 312 458 463 277 152 661 152 638 0 1036-506 399-506 399-1331t-399-1332q-398-506-1036-506-384 0-661 152-276 152-458 464v-525h-578v4863h578v-1894z"/></defs><use xlink:href="#DejaVuSans-53"/><use transform="translate(63.477)" xlink:href="#DejaVuSans-56"/><use transform="translate(131.88)" xlink:href="#DejaVuSans-54"/><use transform="translate(183.84)" xlink:href="#DejaVuSans-2d"/><use transform="translate(217.68)" xlink:href="#DejaVuSans-41"/><use transform="translate(279.71)" xlink:href="#DejaVuSans-56"/><use transform="translate(348.12)" xlink:href="#DejaVuSans-31"/><use transform="translate(411.74)" xlink:href="#DejaVuSans-20"/><use transform="translate(443.53)" xlink:href="#DejaVuSans-76"/><use transform="translate(502.71)" xlink:href="#DejaVuSans-33"/><use transform="translate(566.33)" xlink:href="#DejaVuSans-2e"/><use transform="translate(598.12)" xlink:href="#DejaVuSans-30"/><use transform="translate(661.74)" xlink:href="#DejaVuSans-2e"/><use transform="translate(693.53)" xlink:href="#DejaVuSans-31"/><use transform="translate(757.15)" xlink:href="#DejaVuSans-20"/><use transform="translate(788.94)" xlink:href="#DejaVuSans-70"/><use transform="translate(852.42)" xlink:href="#DejaVuSans-72"/><use transform="translate(891.28)" xlink:href="#DejaVuSans-65"/><use transform="translate(952.8)" xlink:href="#DejaVuSans-73"/><use transform="translate(1004.9)" xlink:href="#DejaVuSans-65"/><use transform="translate(1066.4)" xlink:href="#DejaVuSans-74"/><use transform="translate(1105.6)" xlink:href="#DejaVuSans-20"/><use transform="translate(1137.4)" xlink:href="#DejaVuSans-34"/><use transform="translate(1201)" xlink:href="#DejaVuSans-20"/><use transform="translate(1232.8)" xlink:href="#DejaVuSans-76"/><use transform="translate(1292)" xlink:href="#DejaVuSans-62"/><use transform="translate(1355.5)" xlink:href="#DejaVuSans-30"/></g></g><g id="line2d_33"><path d="m550.66 55.101h8 8" fill="none" stroke="#d62728" stroke-dasharray="9.6,2.4,1.5,2.4" stroke-width="1.5"/><use x="558.660047" y="55.10125" fill="#d62728" stroke="#d62728" xlink:href="#m08124e0db0"/></g><g id="text_22"><!-- SVT-AV1 v3.0.1 preset 4 vbs3o1 --><g transform="translate(573.06 57.901) scale(.08 -.08)" fill="#fff"><defs><path id="DejaVuSans-6f" transform="scale(.015625)" d="m1959 3097q-462 0-731-361t-269-989 267-989q268-361 733-361 460 0 728 362 269 363 269 988 0 622-269 986-268 364-728 364zm0 487q750 0 1178-488 429-487 429-1349 0-859-429-1349-428-489-1178-489-753 0-1180 489-426 490-426 1349 0 862 426 1349 427 488 1180 488z"/></defs><use xlink:href="#DejaVuSans-53"/><use transform="translate(63.477)" xlink:href="#DejaVuSans-56"/><use transform="translate(131.88)" xlink:href="#DejaVuSans-54"/><use transform="translate(183.84)" xlink:href="#DejaVuSans-2d"/><use transform="translate(217.68)" xlink:href="#DejaVuSans-41"/><use transform="translate(279.71)" xlink:href="#DejaVuSans-56"/><use transform="translate(348.12)" xlink:href="#DejaVuSans-31"/><use transform="translate(411.74)" xlink:href="#DejaVuSans-20"/><use transform="translate(443.53)" xlink:href="#DejaVuSans-76"/><use transform="translate(502.71)" xlink:href="#DejaVuSans-33"/><use transform="translate(566.33)" xlink:href="#DejaVuSans-2e"/><use transform="translate(598.12)" xlink:href="#DejaVuSans-30"/><use transform="translate(661.74)" xlink:href="#DejaVuSans-2e"/><use transform="translate(693.53)" xlink:href="#DejaVuSans-31"/><use transform="translate(757.15)" xlink:href="#DejaVuSans-20"/><use transform="translate(788.94)" xlink:href="#DejaVuSans-70"/><use transform="translate(852.42)" xlink:href="#DejaVuSans-72"/><use transform="translate(891.28)" xlink:href="#DejaVuSans-65"/><use transform="translate(952.8)" xlink:href="#DejaVuSans-73"/><use transform="translate(1004.9)" xlink:href="#DejaVuSans-65"/><use transform="translate(1066.4)" xlink:href="#DejaVuSans-74"/><use transform="translate(1105.6)" xlink:href="#DejaVuSans-20"/><use transform="translate(1137.4)" xlink:href="#DejaVuSans-34"/><use transform="translate(1201)" xlink:href="#DejaVuSans-20"/><use transform="translate(1232.8)" xlink:href="#DejaVuSans-76"/><use transform="translate(1292)" xlink:href="#DejaVuSans-62"/><use transform="translate(1355.5)" xlink:href="#DejaVuSans-73"/><use transform="translate(1407.6)" xlink:href="#DejaVuSans-33"/><use transform="translate(1471.2)" xlink:href="#DejaVuSans-6f"/><use transform="translate(1532.4)" xlink:href="#DejaVuSans-31"/></g></g><g id="line2d_34"><path d="m550.66 66.844h8 8" fill="none" stroke="#2ca02c" stroke-dasharray="9.6,2.4,1.5,2.4" stroke-width="1.5"/><use x="558.660047" y="66.84375" fill="#2ca02c" stroke="#2ca02c" xlink:href="#me5cf87d2e8"/></g><g id="text_23"><!-- SVT-AV1 v3.0.1 preset 4 vbs3o2 --><g transform="translate(573.06 69.644) scale(.08 -.08)" fill="#fff"><use xlink:href="#DejaVuSans-53"/><use transform="translate(63.477)" xlink:href="#DejaVuSans-56"/><use transform="translate(131.88)" xlink:href="#DejaVuSans-54"/><use transform="translate(183.84)" xlink:href="#DejaVuSans-2d"/><use transform="translate(217.68)" xlink:href="#DejaVuSans-41"/><use transform="translate(279.71)" xlink:href="#DejaVuSans-56"/><use transform="translate(348.12)" xlink:href="#DejaVuSans-31"/><use transform="translate(411.74)" xlink:href="#DejaVuSans-20"/><use transform="translate(443.53)" xlink:href="#DejaVuSans-76"/><use transform="translate(502.71)" xlink:href="#DejaVuSans-33"/><use transform="translate(566.33)" xlink:href="#DejaVuSans-2e"/><use transform="translate(598.12)" xlink:href="#DejaVuSans-30"/><use transform="translate(661.74)" xlink:href="#DejaVuSans-2e"/><use transform="translate(693.53)" xlink:href="#DejaVuSans-31"/><use transform="translate(757.15)" xlink:href="#DejaVuSans-20"/><use transform="translate(788.94)" xlink:href="#DejaVuSans-70"/><use transform="translate(852.42)" xlink:href="#DejaVuSans-72"/><use transform="translate(891.28)" xlink:href="#DejaVuSans-65"/><use transform="translate(952.8)" xlink:href="#DejaVuSans-73"/><use transform="translate(1004.9)" xlink:href="#DejaVuSans-65"/><use transform="translate(1066.4)" xlink:href="#DejaVuSans-74"/><use transform="translate(1105.6)" xlink:href="#DejaVuSans-20"/><use transform="translate(1137.4)" xlink:href="#DejaVuSans-34"/><use transform="translate(1201)" xlink:href="#DejaVuSans-20"/><use transform="translate(1232.8)" xlink:href="#DejaVuSans-76"/><use transform="translate(1292)" xlink:href="#DejaVuSans-62"/><use transform="translate(1355.5)" xlink:href="#DejaVuSans-73"/><use transform="translate(1407.6)" xlink:href="#DejaVuSans-33"/><use transform="translate(1471.2)" xlink:href="#DejaVuSans-6f"/><use transform="translate(1532.4)" xlink:href="#DejaVuSans-32"/></g></g><g id="line2d_35"><path d="m550.66 78.586h8 8" fill="none" stroke="#ff7f0e" stroke-dasharray="9.6,2.4,1.5,2.4" stroke-width="1.5"/><use x="558.660047" y="78.58625" fill="#ff7f0e" stroke="#ff7f0e" xlink:href="#m7fe571620c"/></g><g id="text_24"><!-- SVT-AV1 v3.0.1 preset 4 vbs3o3 --><g transform="translate(573.06 81.386) scale(.08 -.08)" fill="#fff"><use xlink:href="#DejaVuSans-53"/><use transform="translate(63.477)" xlink:href="#DejaVuSans-56"/><use transform="translate(131.88)" xlink:href="#DejaVuSans-54"/><use transform="translate(183.84)" xlink:href="#DejaVuSans-2d"/><use transform="translate(217.68)" xlink:href="#DejaVuSans-41"/><use transform="translate(279.71)" xlink:href="#DejaVuSans-56"/><use transform="translate(348.12)" xlink:href="#DejaVuSans-31"/><use transform="translate(411.74)" xlink:href="#DejaVuSans-20"/><use transform="translate(443.53)" xlink:href="#DejaVuSans-76"/><use transform="translate(502.71)" xlink:href="#DejaVuSans-33"/><use transform="translate(566.33)" xlink:href="#DejaVuSans-2e"/><use transform="translate(598.12)" xlink:href="#DejaVuSans-30"/><use transform="translate(661.74)" xlink:href="#DejaVuSans-2e"/><use transform="translate(693.53)" xlink:href="#DejaVuSans-31"/><use transform="translate(757.15)" xlink:href="#DejaVuSans-20"/><use transform="translate(788.94)" xlink:href="#DejaVuSans-70"/><use transform="translate(852.42)" xlink:href="#DejaVuSans-72"/><use transform="translate(891.28)" xlink:href="#DejaVuSans-65"/><use transform="translate(952.8)" xlink:href="#DejaVuSans-73"/><use transform="translate(1004.9)" xlink:href="#DejaVuSans-65"/><use transform="translate(1066.4)" xlink:href="#DejaVuSans-74"/><use transform="translate(1105.6)" xlink:href="#DejaVuSans-20"/><use transform="translate(1137.4)" xlink:href="#DejaVuSans-34"/><use transform="translate(1201)" xlink:href="#DejaVuSans-20"/><use transform="translate(1232.8)" xlink:href="#DejaVuSans-76"/><use transform="translate(1292)" xlink:href="#DejaVuSans-62"/><use transform="translate(1355.5)" xlink:href="#DejaVuSans-73"/><use transform="translate(1407.6)" xlink:href="#DejaVuSans-33"/><use transform="translate(1471.2)" xlink:href="#DejaVuSans-6f"/><use transform="translate(1532.4)" xlink:href="#DejaVuSans-33"/></g></g><g id="line2d_36"><path d="m550.66 90.329h8 8" fill="none" stroke="#9467bd" stroke-dasharray="9.6,2.4,1.5,2.4" stroke-width="1.5"/><use x="558.660047" y="90.32875" fill="#9467bd" stroke="#9467bd" xlink:href="#m4c38d339bc"/></g><g id="text_25"><!-- SVT-AV1 v3.0.1 preset 4 vbs3o4 --><g transform="translate(573.06 93.129) scale(.08 -.08)" fill="#fff"><use xlink:href="#DejaVuSans-53"/><use transform="translate(63.477)" xlink:href="#DejaVuSans-56"/><use transform="translate(131.88)" xlink:href="#DejaVuSans-54"/><use transform="translate(183.84)" xlink:href="#DejaVuSans-2d"/><use transform="translate(217.68)" xlink:href="#DejaVuSans-41"/><use transform="translate(279.71)" xlink:href="#DejaVuSans-56"/><use transform="translate(348.12)" xlink:href="#DejaVuSans-31"/><use transform="translate(411.74)" xlink:href="#DejaVuSans-20"/><use transform="translate(443.53)" xlink:href="#DejaVuSans-76"/><use transform="translate(502.71)" xlink:href="#DejaVuSans-33"/><use transform="translate(566.33)" xlink:href="#DejaVuSans-2e"/><use transform="translate(598.12)" xlink:href="#DejaVuSans-30"/><use transform="translate(661.74)" xlink:href="#DejaVuSans-2e"/><use transform="translate(693.53)" xlink:href="#DejaVuSans-31"/><use transform="translate(757.15)" xlink:href="#DejaVuSans-20"/><use transform="translate(788.94)" xlink:href="#DejaVuSans-70"/><use transform="translate(852.42)" xlink:href="#DejaVuSans-72"/><use transform="translate(891.28)" xlink:href="#DejaVuSans-65"/><use transform="translate(952.8)" xlink:href="#DejaVuSans-73"/><use transform="translate(1004.9)" xlink:href="#DejaVuSans-65"/><use transform="translate(1066.4)" xlink:href="#DejaVuSans-74"/><use transform="translate(1105.6)" xlink:href="#DejaVuSans-20"/><use transform="translate(1137.4)" xlink:href="#DejaVuSans-34"/><use transform="translate(1201)" xlink:href="#DejaVuSans-20"/><use transform="translate(1232.8)" xlink:href="#DejaVuSans-76"/><use transform="translate(1292)" xlink:href="#DejaVuSans-62"/><use transform="translate(1355.5)" xlink:href="#DejaVuSans-73"/><use transform="translate(1407.6)" xlink:href="#DejaVuSans-33"/><use transform="translate(1471.2)" xlink:href="#DejaVuSans-6f"/><use transform="translate(1532.4)" xlink:href="#DejaVuSans-34"/></g></g><g id="line2d_37"><path d="m550.66 102.07h8 8" fill="none" stroke="#8c564b" stroke-dasharray="9.6,2.4,1.5,2.4" stroke-width="1.5"/><use x="558.660047" y="102.07125" fill="#8c564b" stroke="#8c564b" xlink:href="#mb2b08cfd02"/></g><g id="text_26"><!-- SVT-AV1 v3.0.1 preset 4 vbs3o5 --><g transform="translate(573.06 104.87) scale(.08 -.08)" fill="#fff"><use xlink:href="#DejaVuSans-53"/><use transform="translate(63.477)" xlink:href="#DejaVuSans-56"/><use transform="translate(131.88)" xlink:href="#DejaVuSans-54"/><use transform="translate(183.84)" xlink:href="#DejaVuSans-2d"/><use transform="translate(217.68)" xlink:href="#DejaVuSans-41"/><use transform="translate(279.71)" xlink:href="#DejaVuSans-56"/><use transform="translate(348.12)" xlink:href="#DejaVuSans-31"/><use transform="translate(411.74)" xlink:href="#DejaVuSans-20"/><use transform="translate(443.53)" xlink:href="#DejaVuSans-76"/><use transform="translate(502.71)" xlink:href="#DejaVuSans-33"/><use transform="translate(566.33)" xlink:href="#DejaVuSans-2e"/><use transform="translate(598.12)" xlink:href="#DejaVuSans-30"/><use transform="translate(661.74)" xlink:href="#DejaVuSans-2e"/><use transform="translate(693.53)" xlink:href="#DejaVuSans-31"/><use transform="translate(757.15)" xlink:href="#DejaVuSans-20"/><use transform="translate(788.94)" xlink:href="#DejaVuSans-70"/><use transform="translate(852.42)" xlink:href="#DejaVuSans-72"/><use transform="translate(891.28)" xlink:href="#DejaVuSans-65"/><use transform="translate(952.8)" xlink:href="#DejaVuSans-73"/><use transform="translate(1004.9)" xlink:href="#DejaVuSans-65"/><use transform="translate(1066.4)" xlink:href="#DejaVuSans-74"/><use transform="translate(1105.6)" xlink:href="#DejaVuSans-20"/><use transform="translate(1137.4)" xlink:href="#DejaVuSans-34"/><use transform="translate(1201)" xlink:href="#DejaVuSans-20"/><use transform="translate(1232.8)" xlink:href="#DejaVuSans-76"/><use transform="translate(1292)" xlink:href="#DejaVuSans-62"/><use transform="translate(1355.5)" xlink:href="#DejaVuSans-73"/><use transform="translate(1407.6)" xlink:href="#DejaVuSans-33"/><use transform="translate(1471.2)" xlink:href="#DejaVuSans-6f"/><use transform="translate(1532.4)" xlink:href="#DejaVuSans-35"/></g></g><g id="line2d_38"><path d="m550.66 113.81h8 8" fill="none" stroke="#e377c2" stroke-dasharray="9.6,2.4,1.5,2.4" stroke-width="1.5"/><use x="558.660047" y="113.81375" fill="#e377c2" stroke="#e377c2" xlink:href="#mfbfd09e920"/></g><g id="text_27"><!-- SVT-AV1 v3.0.1 preset 4 vbs3o6 --><g transform="translate(573.06 116.61) scale(.08 -.08)" fill="#fff"><defs><path id="DejaVuSans-36" transform="scale(.015625)" d="m2113 2584q-425 0-674-291-248-290-248-796 0-503 248-796 249-292 674-292t673 292q248 293 248 796 0 506-248 796-248 291-673 291zm1253 1979v-575q-238 112-480 171-242 60-480 60-625 0-955-422-329-422-376-1275 184 272 462 417 279 145 613 145 703 0 1111-427 408-426 408-1160 0-719-425-1154-425-434-1131-434-810 0-1238 620-428 621-428 1799 0 1106 525 1764t1409 658q238 0 480-47t505-140z"/></defs><use xlink:href="#DejaVuSans-53"/><use transform="translate(63.477)" xlink:href="#DejaVuSans-56"/><use transform="translate(131.88)" xlink:href="#DejaVuSans-54"/><use transform="translate(183.84)" xlink:href="#DejaVuSans-2d"/><use transform="translate(217.68)" xlink:href="#DejaVuSans-41"/><use transform="translate(279.71)" xlink:href="#DejaVuSans-56"/><use transform="translate(348.12)" xlink:href="#DejaVuSans-31"/><use transform="translate(411.74)" xlink:href="#DejaVuSans-20"/><use transform="translate(443.53)" xlink:href="#DejaVuSans-76"/><use transform="translate(502.71)" xlink:href="#DejaVuSans-33"/><use transform="translate(566.33)" xlink:href="#DejaVuSans-2e"/><use transform="translate(598.12)" xlink:href="#DejaVuSans-30"/><use transform="translate(661.74)" xlink:href="#DejaVuSans-2e"/><use transform="translate(693.53)" xlink:href="#DejaVuSans-31"/><use transform="translate(757.15)" xlink:href="#DejaVuSans-20"/><use transform="translate(788.94)" xlink:href="#DejaVuSans-70"/><use transform="translate(852.42)" xlink:href="#DejaVuSans-72"/><use transform="translate(891.28)" xlink:href="#DejaVuSans-65"/><use transform="translate(952.8)" xlink:href="#DejaVuSans-73"/><use transform="translate(1004.9)" xlink:href="#DejaVuSans-65"/><use transform="translate(1066.4)" xlink:href="#DejaVuSans-74"/><use transform="translate(1105.6)" xlink:href="#DejaVuSans-20"/><use transform="translate(1137.4)" xlink:href="#DejaVuSans-34"/><use transform="translate(1201)" xlink:href="#DejaVuSans-20"/><use transform="translate(1232.8)" xlink:href="#DejaVuSans-76"/><use transform="translate(1292)" xlink:href="#DejaVuSans-62"/><use transform="translate(1355.5)" xlink:href="#DejaVuSans-73"/><use transform="translate(1407.6)" xlink:href="#DejaVuSans-33"/><use transform="translate(1471.2)" xlink:href="#DejaVuSans-6f"/><use transform="translate(1532.4)" xlink:href="#DejaVuSans-36"/></g></g><g id="line2d_39"><path d="m550.66 125.56h8 8" fill="none" stroke="#7f7f7f" stroke-dasharray="9.6,2.4,1.5,2.4" stroke-width="1.5"/><use x="558.660047" y="125.55625" fill="#7f7f7f" stroke="#7f7f7f" xlink:href="#maa9a0bf997"/></g><g id="text_28"><!-- SVT-AV1 v3.0.1 preset 4 vbs3o7 --><g transform="translate(573.06 128.36) scale(.08 -.08)" fill="#fff"><use xlink:href="#DejaVuSans-53"/><use transform="translate(63.477)" xlink:href="#DejaVuSans-56"/><use transform="translate(131.88)" xlink:href="#DejaVuSans-54"/><use transform="translate(183.84)" xlink:href="#DejaVuSans-2d"/><use transform="translate(217.68)" xlink:href="#DejaVuSans-41"/><use transform="translate(279.71)" xlink:href="#DejaVuSans-56"/><use transform="translate(348.12)" xlink:href="#DejaVuSans-31"/><use transform="translate(411.74)" xlink:href="#DejaVuSans-20"/><use transform="translate(443.53)" xlink:href="#DejaVuSans-76"/><use transform="translate(502.71)" xlink:href="#DejaVuSans-33"/><use transform="translate(566.33)" xlink:href="#DejaVuSans-2e"/><use transform="translate(598.12)" xlink:href="#DejaVuSans-30"/><use transform="translate(661.74)" xlink:href="#DejaVuSans-2e"/><use transform="translate(693.53)" xlink:href="#DejaVuSans-31"/><use transform="translate(757.15)" xlink:href="#DejaVuSans-20"/><use transform="translate(788.94)" xlink:href="#DejaVuSans-70"/><use transform="translate(852.42)" xlink:href="#DejaVuSans-72"/><use transform="translate(891.28)" xlink:href="#DejaVuSans-65"/><use transform="translate(952.8)" xlink:href="#DejaVuSans-73"/><use transform="translate(1004.9)" xlink:href="#DejaVuSans-65"/><use transform="translate(1066.4)" xlink:href="#DejaVuSans-74"/><use transform="translate(1105.6)" xlink:href="#DejaVuSans-20"/><use transform="translate(1137.4)" xlink:href="#DejaVuSans-34"/><use transform="translate(1201)" xlink:href="#DejaVuSans-20"/><use transform="translate(1232.8)" xlink:href="#DejaVuSans-76"/><use transform="translate(1292)" xlink:href="#DejaVuSans-62"/><use transform="translate(1355.5)" xlink:href="#DejaVuSans-73"/><use transform="translate(1407.6)" xlink:href="#DejaVuSans-33"/><use transform="translate(1471.2)" xlink:href="#DejaVuSans-6f"/><use transform="translate(1532.4)" xlink:href="#DejaVuSans-37"/></g></g><g id="line2d_40"><path d="m550.66 137.3h8 8" fill="none" stroke="#bcbd22" stroke-dasharray="9.6,2.4,1.5,2.4" stroke-width="1.5"/><use x="558.660047" y="137.29875" fill="#bcbd22" stroke="#bcbd22" xlink:href="#m1a033e65fd"/></g><g id="text_29"><!-- SVT-AV1 v3.0.1 preset 4 vbs3o8 --><g transform="translate(573.06 140.1) scale(.08 -.08)" fill="#fff"><defs><path id="DejaVuSans-38" transform="scale(.015625)" d="m2034 2216q-450 0-708-241-257-241-257-662 0-422 257-663 258-241 708-241t709 242q260 243 260 662 0 421-258 662-257 241-711 241zm-631 268q-406 100-633 378-226 279-226 679 0 559 398 884 399 325 1092 325 697 0 1094-325t397-884q0-400-227-679-226-278-629-378 456-106 710-416 255-309 255-755 0-679-414-1042-414-362-1186-362-771 0-1186 362-414 363-414 1042 0 446 256 755 257 310 713 416zm-231 997q0-362 226-565 227-203 636-203 407 0 636 203 230 203 230 565 0 363-230 566-229 203-636 203-409 0-636-203-226-203-226-566z"/></defs><use xlink:href="#DejaVuSans-53"/><use transform="translate(63.477)" xlink:href="#DejaVuSans-56"/><use transform="translate(131.88)" xlink:href="#DejaVuSans-54"/><use transform="translate(183.84)" xlink:href="#DejaVuSans-2d"/><use transform="translate(217.68)" xlink:href="#DejaVuSans-41"/><use transform="translate(279.71)" xlink:href="#DejaVuSans-56"/><use transform="translate(348.12)" xlink:href="#DejaVuSans-31"/><use transform="translate(411.74)" xlink:href="#DejaVuSans-20"/><use transform="translate(443.53)" xlink:href="#DejaVuSans-76"/><use transform="translate(502.71)" xlink:href="#DejaVuSans-33"/><use transform="translate(566.33)" xlink:href="#DejaVuSans-2e"/><use transform="translate(598.12)" xlink:href="#DejaVuSans-30"/><use transform="translate(661.74)" xlink:href="#DejaVuSans-2e"/><use transform="translate(693.53)" xlink:href="#DejaVuSans-31"/><use transform="translate(757.15)" xlink:href="#DejaVuSans-20"/><use transform="translate(788.94)" xlink:href="#DejaVuSans-70"/><use transform="translate(852.42)" xlink:href="#DejaVuSans-72"/><use transform="translate(891.28)" xlink:href="#DejaVuSans-65"/><use transform="translate(952.8)" xlink:href="#DejaVuSans-73"/><use transform="translate(1004.9)" xlink:href="#DejaVuSans-65"/><use transform="translate(1066.4)" xlink:href="#DejaVuSans-74"/><use transform="translate(1105.6)" xlink:href="#DejaVuSans-20"/><use transform="translate(1137.4)" xlink:href="#DejaVuSans-34"/><use transform="translate(1201)" xlink:href="#DejaVuSans-20"/><use transform="translate(1232.8)" xlink:href="#DejaVuSans-76"/><use transform="translate(1292)" xlink:href="#DejaVuSans-62"/><use transform="translate(1355.5)" xlink:href="#DejaVuSans-73"/><use transform="translate(1407.6)" xlink:href="#DejaVuSans-33"/><use transform="translate(1471.2)" xlink:href="#DejaVuSans-6f"/><use transform="translate(1532.4)" xlink:href="#DejaVuSans-38"/></g></g></g></g></g><defs><clipPath id="p0cac5395cd"><rect x="47.72" y="32.88" width="660.22" height="357.16"/></clipPath></defs></svg>
