<!DOCTYPE svg  PUBLIC '-//W3C//DTD SVG 1.1//EN'  'http://www.w3.org/Graphics/SVG/1.1/DTD/svg11.dtd'>
<svg width="720pt" height="432pt" version="1.1" viewBox="0 0 720 432" xmlns="http://www.w3.org/2000/svg" xmlns:xlink="http://www.w3.org/1999/xlink"><defs><style type="text/css">*{stroke-linejoin: round; stroke-linecap: butt}</style></defs><g id="figure_1"><g id="patch_1"><path d="m0 432h720v-432h-720z"/></g><g id="axes_1"><g id="patch_2"><path d="m62.28 375.8h642.83v-342.92h-642.83z"/></g><g id="matplotlib.axis_1"><g id="xtick_1"><g id="line2d_1"><path d="m231.65 375.8v-342.92" clip-path="url(#p1ddd2aba57)" fill="none" stroke="#808080" stroke-dasharray="1.85,0.8" stroke-opacity=".5" stroke-width=".5"/></g><g id="line2d_2"><defs><path id="m88b90e8c67" d="m0 0v3.5" stroke="#808080" stroke-width=".8"/></defs><use x="231.651844" y="375.7968" fill="#808080" stroke="#808080" stroke-width=".8" xlink:href="#m88b90e8c67"/></g><g id="text_1"><!-- $\mathdefault{10^{1}}$ --><g transform="translate(222.85 390.4) scale(.1 -.1)" fill="#808080"><defs><path id="DejaVuSans-31" transform="scale(.015625)" d="m794 531h1031v3560l-1122-225v575l1116 225h631v-4135h1031v-531h-2687v531z"/><path id="DejaVuSans-30" transform="scale(.015625)" d="m2034 4250q-487 0-733-480-245-479-245-1442 0-959 245-1439 246-480 733-480 491 0 736 480 246 480 246 1439 0 963-246 1442-245 480-736 480zm0 500q785 0 1199-621 414-620 414-1801 0-1178-414-1799-414-620-1199-620-784 0-1198 620-414 621-414 1799 0 1181 414 1801 414 621 1198 621z"/></defs><use transform="translate(0 .68438)" xlink:href="#DejaVuSans-31"/><use transform="translate(63.623 .68438)" xlink:href="#DejaVuSans-30"/><use transform="translate(128.2 38.966) scale(.7)" xlink:href="#DejaVuSans-31"/></g></g></g><g id="xtick_2"><g id="line2d_3"><path d="m465.52 375.8v-342.92" clip-path="url(#p1ddd2aba57)" fill="none" stroke="#808080" stroke-dasharray="1.85,0.8" stroke-opacity=".5" stroke-width=".5"/></g><g id="line2d_4"><use x="465.516968" y="375.7968" fill="#808080" stroke="#808080" stroke-width=".8" xlink:href="#m88b90e8c67"/></g><g id="text_2"><!-- $\mathdefault{10^{2}}$ --><g transform="translate(456.72 390.4) scale(.1 -.1)" fill="#808080"><defs><path id="DejaVuSans-32" transform="scale(.015625)" d="m1228 531h2203v-531h-2962v531q359 372 979 998 621 627 780 809 303 340 423 576 121 236 121 464 0 372-261 606-261 235-680 235-297 0-627-103-329-103-704-313v638q381 153 712 231 332 78 607 78 725 0 1156-363 431-362 431-968 0-288-108-546-107-257-392-607-78-91-497-524-418-433-1181-1211z"/></defs><use transform="translate(0 .76562)" xlink:href="#DejaVuSans-31"/><use transform="translate(63.623 .76562)" xlink:href="#DejaVuSans-30"/><use transform="translate(128.2 39.047) scale(.7)" xlink:href="#DejaVuSans-32"/></g></g></g><g id="xtick_3"><g id="line2d_5"><path d="m699.38 375.8v-342.92" clip-path="url(#p1ddd2aba57)" fill="none" stroke="#808080" stroke-dasharray="1.85,0.8" stroke-opacity=".5" stroke-width=".5"/></g><g id="line2d_6"><use x="699.382092" y="375.7968" fill="#808080" stroke="#808080" stroke-width=".8" xlink:href="#m88b90e8c67"/></g><g id="text_3"><!-- $\mathdefault{10^{3}}$ --><g transform="translate(690.58 390.4) scale(.1 -.1)" fill="#808080"><defs><path id="DejaVuSans-33" transform="scale(.015625)" d="m2597 2516q453-97 707-404 255-306 255-756 0-690-475-1069-475-378-1350-378-293 0-604 58t-642 174v609q262-153 574-231 313-78 654-78 593 0 904 234t311 681q0 413-289 645-289 233-804 233h-544v519h569q465 0 712 186t247 536q0 359-255 551-254 193-729 193-260 0-557-57-297-56-653-174v562q360 100 674 150t592 50q719 0 1137-327 419-326 419-882 0-388-222-655t-631-370z"/></defs><use transform="translate(0 .76562)" xlink:href="#DejaVuSans-31"/><use transform="translate(63.623 .76562)" xlink:href="#DejaVuSans-30"/><use transform="translate(128.2 39.047) scale(.7)" xlink:href="#DejaVuSans-33"/></g></g></g><g id="xtick_4"><g id="line2d_7"><defs><path id="m0a1f223478" d="m0 0v2" stroke="#000" stroke-width=".6"/></defs><use x="68.187138" y="375.7968" stroke="#000000" stroke-width=".6" xlink:href="#m0a1f223478"/></g></g><g id="xtick_5"><g id="line2d_8"><use x="109.368742" y="375.7968" stroke="#000000" stroke-width=".6" xlink:href="#m0a1f223478"/></g></g><g id="xtick_6"><g id="line2d_9"><use x="138.587555" y="375.7968" stroke="#000000" stroke-width=".6" xlink:href="#m0a1f223478"/></g></g><g id="xtick_7"><g id="line2d_10"><use x="161.251427" y="375.7968" stroke="#000000" stroke-width=".6" xlink:href="#m0a1f223478"/></g></g><g id="xtick_8"><g id="line2d_11"><use x="179.769159" y="375.7968" stroke="#000000" stroke-width=".6" xlink:href="#m0a1f223478"/></g></g><g id="xtick_9"><g id="line2d_12"><use x="195.425678" y="375.7968" stroke="#000000" stroke-width=".6" xlink:href="#m0a1f223478"/></g></g><g id="xtick_10"><g id="line2d_13"><use x="208.987972" y="375.7968" stroke="#000000" stroke-width=".6" xlink:href="#m0a1f223478"/></g></g><g id="xtick_11"><g id="line2d_14"><use x="220.950763" y="375.7968" stroke="#000000" stroke-width=".6" xlink:href="#m0a1f223478"/></g></g><g id="xtick_12"><g id="line2d_15"><use x="302.052261" y="375.7968" stroke="#000000" stroke-width=".6" xlink:href="#m0a1f223478"/></g></g><g id="xtick_13"><g id="line2d_16"><use x="343.233866" y="375.7968" stroke="#000000" stroke-width=".6" xlink:href="#m0a1f223478"/></g></g><g id="xtick_14"><g id="line2d_17"><use x="372.452679" y="375.7968" stroke="#000000" stroke-width=".6" xlink:href="#m0a1f223478"/></g></g><g id="xtick_15"><g id="line2d_18"><use x="395.116551" y="375.7968" stroke="#000000" stroke-width=".6" xlink:href="#m0a1f223478"/></g></g><g id="xtick_16"><g id="line2d_19"><use x="413.634283" y="375.7968" stroke="#000000" stroke-width=".6" xlink:href="#m0a1f223478"/></g></g><g id="xtick_17"><g id="line2d_20"><use x="429.290802" y="375.7968" stroke="#000000" stroke-width=".6" xlink:href="#m0a1f223478"/></g></g><g id="xtick_18"><g id="line2d_21"><use x="442.853096" y="375.7968" stroke="#000000" stroke-width=".6" xlink:href="#m0a1f223478"/></g></g><g id="xtick_19"><g id="line2d_22"><use x="454.815887" y="375.7968" stroke="#000000" stroke-width=".6" xlink:href="#m0a1f223478"/></g></g><g id="xtick_20"><g id="line2d_23"><use x="535.917385" y="375.7968" stroke="#000000" stroke-width=".6" xlink:href="#m0a1f223478"/></g></g><g id="xtick_21"><g id="line2d_24"><use x="577.098989" y="375.7968" stroke="#000000" stroke-width=".6" xlink:href="#m0a1f223478"/></g></g><g id="xtick_22"><g id="line2d_25"><use x="606.317802" y="375.7968" stroke="#000000" stroke-width=".6" xlink:href="#m0a1f223478"/></g></g><g id="xtick_23"><g id="line2d_26"><use x="628.981675" y="375.7968" stroke="#000000" stroke-width=".6" xlink:href="#m0a1f223478"/></g></g><g id="xtick_24"><g id="line2d_27"><use x="647.499407" y="375.7968" stroke="#000000" stroke-width=".6" xlink:href="#m0a1f223478"/></g></g><g id="xtick_25"><g id="line2d_28"><use x="663.155926" y="375.7968" stroke="#000000" stroke-width=".6" xlink:href="#m0a1f223478"/></g></g><g id="xtick_26"><g id="line2d_29"><use x="676.71822" y="375.7968" stroke="#000000" stroke-width=".6" xlink:href="#m0a1f223478"/></g></g><g id="xtick_27"><g id="line2d_30"><use x="688.681011" y="375.7968" stroke="#000000" stroke-width=".6" xlink:href="#m0a1f223478"/></g></g><g id="text_4"><!-- Average Encode Time (ms) --><g transform="translate(311.45 404.07) scale(.1 -.1)" fill="#dcdcdc"><defs><path id="DejaVuSansMono-41" transform="scale(.015625)" d="m1925 4109-666-2387h1332l-666 2387zm-381 557h765l1429-4666h-654l-343 1216h-1635l-337-1216h-653l1428 4666z"/><path id="DejaVuSansMono-76" transform="scale(.015625)" d="m313 3500h596l1016-2937 1019 2937h597l-1244-3500h-741l-1243 3500z"/><path id="DejaVuSansMono-65" transform="scale(.015625)" d="m3475 1894v-281h-2491v-19q0-572 298-885 299-312 843-312 275 0 575 87 300 88 641 266v-572q-328-134-633-201-305-68-589-68-816 0-1276 489-459 490-459 1349 0 837 450 1337t1200 500q669 0 1055-453t386-1237zm-575 169q-12 506-239 770t-652 264q-415 0-684-275t-319-763l1894 4z"/><path id="DejaVuSansMono-72" transform="scale(.015625)" d="m3609 2778q-184 144-375 209-190 66-418 66-538 0-823-338-284-337-284-974v-1741h-578v3500h578v-684q144 372 442 570 299 198 708 198 213 0 397-53 185-53 353-165v-588z"/><path id="DejaVuSansMono-61" transform="scale(.015625)" d="m2194 1759h-191q-503 0-758-177-254-176-254-526 0-315 190-490 191-175 528-175 475 0 747 329 272 330 275 911v128h-537zm1115 238v-1997h-578v519q-184-313-464-462-279-148-679-148-535 0-854 302-318 302-318 808 0 584 392 887t1151 303h772v91q-3 419-213 608-209 189-668 189-294 0-594-85-300-84-584-246v575q319 122 611 182 292 61 567 61 434 0 742-128t499-384q118-156 168-386t50-689z"/><path id="DejaVuSansMono-67" transform="scale(.015625)" d="m2681 1778q0 647-211 983t-614 336q-422 0-644-336-221-336-221-983t223-986q224-339 649-339 396 0 607 340 211 341 211 985zm575-1553q0-788-372-1194-371-406-1093-406-238 0-498 44-259 43-518 128v569q306-144 556-213t460-69q465 0 677 254 213 253 213 803v25 390q-137-293-375-437-237-144-578-144-612 0-978 490-366 491-366 1313 0 825 366 1315 366 491 978 491 338 0 572-134t381-416v454h575v-3263z"/><path id="DejaVuSansMono-45" transform="scale(.015625)" d="m616 4666h2768v-532h-2137v-1381h2044v-531h-2044v-1691h2197v-531h-2828v4666z"/><path id="DejaVuSansMono-6e" transform="scale(.015625)" d="m3284 2169v-2169h-578v2169q0 472-166 693-165 222-518 222-403 0-621-286-217-285-217-820v-1978h-575v3500h575v-525q154 300 416 454 263 155 622 155 534 0 798-352 264-351 264-1063z"/><path id="DejaVuSansMono-63" transform="scale(.015625)" d="m3316 178q-232-134-477-201-245-68-501-68-813 0-1271 487-458 488-458 1351 0 862 458 1349 458 488 1271 488 253 0 493-66 241-65 485-202v-603q-228 203-458 293-230 91-520 91-541 0-832-350-290-350-290-1e3 0-647 292-999 292-351 830-351 300 0 537 92 238 92 441 286v-597z"/><path id="DejaVuSansMono-6f" transform="scale(.015625)" d="m1925 3097q-437 0-662-341-225-340-225-1009 0-666 225-1008t662-342q441 0 666 342t225 1008q0 669-225 1009-225 341-666 341zm0 487q728 0 1114-472 386-471 386-1365 0-897-385-1368-384-470-1115-470-728 0-1113 470-384 471-384 1368 0 894 384 1365 385 472 1113 472z"/><path id="DejaVuSansMono-64" transform="scale(.015625)" d="m2681 3053v1810h575v-4863h-575v441q-143-260-383-396-239-136-551-136-634 0-999 492-364 493-364 1358 0 854 366 1339 366 486 997 486 316 0 556-136 241-135 378-395zm-1690-1306q0-669 212-1010 213-340 628-340 416 0 633 343 217 344 217 1007 0 666-217 1008t-633 342q-415 0-628-341-212-340-212-1009z"/><path id="DejaVuSansMono-54" transform="scale(.015625)" d="m147 4666h3559v-532h-1459v-4134h-634v4134h-1466v532z"/><path id="DejaVuSansMono-69" transform="scale(.015625)" d="m800 3500h1472v-3053h1141v-447h-2857v447h1141v2606h-897v447zm897 1363h575v-729h-575v729z"/><path id="DejaVuSansMono-6d" transform="scale(.015625)" d="m2113 3144q106 225 270 332 164 108 395 108 422 0 595-327 174-326 174-1229v-2028h-525v2003q0 741-83 920-83 180-301 180-250 0-343-192-92-192-92-908v-2003h-525v2003q0 750-89 925t-320 175q-228 0-317-192t-89-908v-2003h-522v3500h522v-300q103 188 257 286 155 98 352 98 237 0 395-109t246-331z"/><path id="DejaVuSansMono-28" transform="scale(.015625)" d="m2766 4856q-416-712-621-1420-204-708-204-1427 0-715 204-1425 205-709 621-1428h-500q-472 744-704 1448-231 705-231 1405 0 697 231 1403 232 707 704 1444h500z"/><path id="DejaVuSansMono-73" transform="scale(.015625)" d="m3041 3378v-562q-247 143-497 215t-510 72q-390 0-583-127-192-126-192-385 0-235 144-351 144-115 716-224l231-44q428-81 648-325 221-244 221-634 0-519-369-812-369-292-1025-292-259 0-544 55-284 55-615 164v594q322-166 615-249 294-82 557-82 381 0 590 154 210 155 210 433 0 400-766 553l-25 7-216 43q-497 97-725 327t-228 626q0 504 340 777 341 273 973 273 281 0 540-52 260-51 510-154z"/><path id="DejaVuSansMono-29" transform="scale(.015625)" d="m1088 4856h500q471-737 702-1444 232-706 232-1403 0-703-232-1409-231-706-702-1444h-500q415 725 620 1434 205 710 205 1419 0 713-205 1422-205 710-620 1425z"/></defs><use xlink:href="#DejaVuSansMono-41"/><use x="60.205078" xlink:href="#DejaVuSansMono-76"/><use x="120.410156" xlink:href="#DejaVuSansMono-65"/><use x="180.615234" xlink:href="#DejaVuSansMono-72"/><use x="240.820312" xlink:href="#DejaVuSansMono-61"/><use x="301.025391" xlink:href="#DejaVuSansMono-67"/><use x="361.230469" xlink:href="#DejaVuSansMono-65"/><use x="421.435547" xlink:href="#DejaVuSansMono-20"/><use x="481.640625" xlink:href="#DejaVuSansMono-45"/><use x="541.845703" xlink:href="#DejaVuSansMono-6e"/><use x="602.050781" xlink:href="#DejaVuSansMono-63"/><use x="662.255859" xlink:href="#DejaVuSansMono-6f"/><use x="722.460938" xlink:href="#DejaVuSansMono-64"/><use x="782.666016" xlink:href="#DejaVuSansMono-65"/><use x="842.871094" xlink:href="#DejaVuSansMono-20"/><use x="903.076172" xlink:href="#DejaVuSansMono-54"/><use x="963.28125" xlink:href="#DejaVuSansMono-69"/><use x="1023.486328" xlink:href="#DejaVuSansMono-6d"/><use x="1083.691406" xlink:href="#DejaVuSansMono-65"/><use x="1143.896484" xlink:href="#DejaVuSansMono-20"/><use x="1204.101562" xlink:href="#DejaVuSansMono-28"/><use x="1264.306641" xlink:href="#DejaVuSansMono-6d"/><use x="1324.511719" xlink:href="#DejaVuSansMono-73"/><use x="1384.716797" xlink:href="#DejaVuSansMono-29"/></g></g></g><g id="matplotlib.axis_2"><g id="ytick_1"><g id="line2d_31"><path d="m62.28 360.21h642.83" clip-path="url(#p1ddd2aba57)" fill="none" stroke="#808080" stroke-dasharray="1.85,0.8" stroke-opacity=".5" stroke-width=".5"/></g><g id="line2d_32"><defs><path id="m97a8a4616c" d="m0 0h-3.5" stroke="#808080" stroke-width=".8"/></defs><use x="62.28" y="360.209673" fill="#808080" stroke="#808080" stroke-width=".8" xlink:href="#m97a8a4616c"/></g><g id="text_5"><!-- 0 --><g transform="translate(48.918 364.01) scale(.1 -.1)" fill="#808080"><use xlink:href="#DejaVuSans-30"/></g></g></g><g id="ytick_2"><g id="line2d_33"><path d="m62.28 296.82h642.83" clip-path="url(#p1ddd2aba57)" fill="none" stroke="#808080" stroke-dasharray="1.85,0.8" stroke-opacity=".5" stroke-width=".5"/></g><g id="line2d_34"><use x="62.28" y="296.820478" fill="#808080" stroke="#808080" stroke-width=".8" xlink:href="#m97a8a4616c"/></g><g id="text_6"><!-- 20 --><g transform="translate(42.555 300.62) scale(.1 -.1)" fill="#808080"><use xlink:href="#DejaVuSans-32"/><use x="63.623047" xlink:href="#DejaVuSans-30"/></g></g></g><g id="ytick_3"><g id="line2d_35"><path d="m62.28 233.43h642.83" clip-path="url(#p1ddd2aba57)" fill="none" stroke="#808080" stroke-dasharray="1.85,0.8" stroke-opacity=".5" stroke-width=".5"/></g><g id="line2d_36"><use x="62.28" y="233.431283" fill="#808080" stroke="#808080" stroke-width=".8" xlink:href="#m97a8a4616c"/></g><g id="text_7"><!-- 40 --><g transform="translate(42.555 237.23) scale(.1 -.1)" fill="#808080"><defs><path id="DejaVuSans-34" transform="scale(.015625)" d="m2419 4116-1594-2491h1594v2491zm-166 550h794v-3041h666v-525h-666v-1100h-628v1100h-2106v609l1940 2957z"/></defs><use xlink:href="#DejaVuSans-34"/><use x="63.623047" xlink:href="#DejaVuSans-30"/></g></g></g><g id="ytick_4"><g id="line2d_37"><path d="m62.28 170.04h642.83" clip-path="url(#p1ddd2aba57)" fill="none" stroke="#808080" stroke-dasharray="1.85,0.8" stroke-opacity=".5" stroke-width=".5"/></g><g id="line2d_38"><use x="62.28" y="170.042088" fill="#808080" stroke="#808080" stroke-width=".8" xlink:href="#m97a8a4616c"/></g><g id="text_8"><!-- 60 --><g transform="translate(42.555 173.84) scale(.1 -.1)" fill="#808080"><defs><path id="DejaVuSans-36" transform="scale(.015625)" d="m2113 2584q-425 0-674-291-248-290-248-796 0-503 248-796 249-292 674-292t673 292q248 293 248 796 0 506-248 796-248 291-673 291zm1253 1979v-575q-238 112-480 171-242 60-480 60-625 0-955-422-329-422-376-1275 184 272 462 417 279 145 613 145 703 0 1111-427 408-426 408-1160 0-719-425-1154-425-434-1131-434-810 0-1238 620-428 621-428 1799 0 1106 525 1764t1409 658q238 0 480-47t505-140z"/></defs><use xlink:href="#DejaVuSans-36"/><use x="63.623047" xlink:href="#DejaVuSans-30"/></g></g></g><g id="ytick_5"><g id="line2d_39"><path d="m62.28 106.65h642.83" clip-path="url(#p1ddd2aba57)" fill="none" stroke="#808080" stroke-dasharray="1.85,0.8" stroke-opacity=".5" stroke-width=".5"/></g><g id="line2d_40"><use x="62.28" y="106.652893" fill="#808080" stroke="#808080" stroke-width=".8" xlink:href="#m97a8a4616c"/></g><g id="text_9"><!-- 80 --><g transform="translate(42.555 110.45) scale(.1 -.1)" fill="#808080"><defs><path id="DejaVuSans-38" transform="scale(.015625)" d="m2034 2216q-450 0-708-241-257-241-257-662 0-422 257-663 258-241 708-241t709 242q260 243 260 662 0 421-258 662-257 241-711 241zm-631 268q-406 100-633 378-226 279-226 679 0 559 398 884 399 325 1092 325 697 0 1094-325t397-884q0-400-227-679-226-278-629-378 456-106 710-416 255-309 255-755 0-679-414-1042-414-362-1186-362-771 0-1186 362-414 363-414 1042 0 446 256 755 257 310 713 416zm-231 997q0-362 226-565 227-203 636-203 407 0 636 203 230 203 230 565 0 363-230 566-229 203-636 203-409 0-636-203-226-203-226-566z"/></defs><use xlink:href="#DejaVuSans-38"/><use x="63.623047" xlink:href="#DejaVuSans-30"/></g></g></g><g id="ytick_6"><g id="line2d_41"><path d="m62.28 43.264h642.83" clip-path="url(#p1ddd2aba57)" fill="none" stroke="#808080" stroke-dasharray="1.85,0.8" stroke-opacity=".5" stroke-width=".5"/></g><g id="line2d_42"><use x="62.28" y="43.263698" fill="#808080" stroke="#808080" stroke-width=".8" xlink:href="#m97a8a4616c"/></g><g id="text_10"><!-- 100 --><g transform="translate(36.192 47.063) scale(.1 -.1)" fill="#808080"><use xlink:href="#DejaVuSans-31"/><use x="63.623047" xlink:href="#DejaVuSans-30"/><use x="127.246094" xlink:href="#DejaVuSans-30"/></g></g></g><g id="text_11"><!-- W-XPSNR BD-rate (%) --><g transform="translate(24.113 261.53) rotate(-90) scale(.1 -.1)" fill="#dcdcdc"><defs><path id="DejaVuSansMono-57" transform="scale(.015625)" d="m0 4666h616l447-3788 531 2506h659l538-2512 447 3794h615l-697-4666h-597l-634 2772-631-2772h-597l-697 4666z"/><path id="DejaVuSansMono-2d" transform="scale(.015625)" d="m1113 2009h1628v-512h-1628v512z"/><path id="DejaVuSansMono-58" transform="scale(.015625)" d="m269 4666h678l1025-1760 1044 1760h678l-1397-2194 1497-2472h-678l-1144 2009-1234-2009h-682l1563 2472-1350 2194z"/><path id="DejaVuSansMono-50" transform="scale(.015625)" d="m1247 4147v-1753h731q438 0 683 231t245 647-244 645q-243 230-684 230h-731zm-631 519h1362q781 0 1184-355 404-355 404-1039 0-691-402-1044-401-353-1186-353h-731v-1875h-631v4666z"/><path id="DejaVuSansMono-53" transform="scale(.015625)" d="m3163 4506v-640q-288 184-577 278t-583 94q-447 0-706-208t-259-561q0-310 170-473 170-162 636-271l331-75q656-153 956-481t300-894q0-666-413-1016-412-350-1199-350-328 0-660 71-331 70-665 211v672q359-229 679-335 321-106 646-106 478 0 743 214 266 214 266 598 0 350-183 534-182 185-636 285l-337 78q-650 147-944 444t-294 797q0 625 420 1001 421 377 1118 377 269 0 565-61 297-61 626-183z"/><path id="DejaVuSansMono-4e" transform="scale(.015625)" d="m434 4666h800l1575-3841v3841h610v-4666h-800l-1575 3841v-3841h-610v4666z"/><path id="DejaVuSansMono-52" transform="scale(.015625)" d="m2375 2203q244-62 416-236 172-173 428-692l634-1275h-678l-556 1178q-241 503-433 648-192 146-502 146h-603v-1972h-634v4666h1300q769 0 1178-347t409-1003q0-463-252-755-251-292-707-358zm-1294 1944v-1656h691q453 0 675 203t222 622q0 403-236 617t-686 214h-666z"/><path id="DejaVuSansMono-42" transform="scale(.015625)" d="m1153 2228v-1709h747q550 0 784 192 235 192 235 633 0 456-247 670t-772 214h-747zm0 1919v-1406h735q456 0 660 175 205 175 205 565 0 353-202 509-201 157-663 157h-735zm-634 519h1381q716 0 1103-310 388-309 388-875 0-428-205-675t-614-309q459-69 720-393 261-323 261-823 0-634-416-958-415-323-1237-323h-1381v4666z"/><path id="DejaVuSansMono-44" transform="scale(.015625)" d="m1363 519q796 0 1112 392t316 1417q0 1035-314 1427t-1114 392h-300v-3628h300zm12 4147q1069 0 1575-569t506-1769q0-1194-506-1761t-1575-567h-947v4666h947z"/><path id="DejaVuSansMono-74" transform="scale(.015625)" d="m1919 4494v-994h1306v-447h-1306v-1900q0-387 147-541 147-153 512-153h647v-459h-703q-647 0-913 259-265 260-265 894v1900h-935v447h935v994h575z"/><path id="DejaVuSansMono-25" transform="scale(.015625)" d="m2175 997q0-244 164-410 164-165 408-165 241 0 408 167t167 408-169 409q-169 169-406 169-244 0-408-166-164-165-164-412zm-422 0q0 422 287 711 288 289 707 289 200 0 379-75 180-75 324-219 144-147 222-328t78-378q0-416-291-707-290-290-712-290-425 0-710 286-284 286-284 711zm-1375 456-109 300 3256 1306 128-300-3275-1306zm147 2022q0-247 164-411t411-164q241 0 409 167 169 167 169 408t-169 408q-168 167-409 167t-408-166q-167-165-167-409zm-422 0q0 422 287 711 288 289 710 289 200 0 383-75t323-216q141-140 217-323 77-183 77-386 0-419-291-708-290-289-709-289-422 0-710 287-287 288-287 710z"/></defs><use xlink:href="#DejaVuSansMono-57"/><use x="60.205078" xlink:href="#DejaVuSansMono-2d"/><use x="120.410156" xlink:href="#DejaVuSansMono-58"/><use x="180.615234" xlink:href="#DejaVuSansMono-50"/><use x="240.820312" xlink:href="#DejaVuSansMono-53"/><use x="301.025391" xlink:href="#DejaVuSansMono-4e"/><use x="361.230469" xlink:href="#DejaVuSansMono-52"/><use x="421.435547" xlink:href="#DejaVuSansMono-20"/><use x="481.640625" xlink:href="#DejaVuSansMono-42"/><use x="541.845703" xlink:href="#DejaVuSansMono-44"/><use x="602.050781" xlink:href="#DejaVuSansMono-2d"/><use x="662.255859" xlink:href="#DejaVuSansMono-72"/><use x="722.460938" xlink:href="#DejaVuSansMono-61"/><use x="782.666016" xlink:href="#DejaVuSansMono-74"/><use x="842.871094" xlink:href="#DejaVuSansMono-65"/><use x="903.076172" xlink:href="#DejaVuSansMono-20"/><use x="963.28125" xlink:href="#DejaVuSansMono-28"/><use x="1023.486328" xlink:href="#DejaVuSansMono-25"/><use x="1083.691406" xlink:href="#DejaVuSansMono-29"/></g></g></g><g id="line2d_43"><path d="m675.9 360.21-93.619-8.3418-67.561-6.2834-31.365-3.2986-63.335-31.724-51.87-10.342-76.527-28.065-27.903-6.5444-35.945-9.7379-23.14-6.738-36.572-34.929-32.382-62.053-13.725-42.834-10.758-12.375-15.387-30.967" clip-path="url(#p1ddd2aba57)" fill="none" stroke="#d6e6f4" stroke-linecap="square" stroke-width="1.5"/><defs><path id="m937394e151" d="m0 3c0.79561 0 1.5587-0.3161 2.1213-0.87868 0.56258-0.56258 0.87868-1.3257 0.87868-2.1213s-0.3161-1.5587-0.87868-2.1213c-0.56258-0.56258-1.3257-0.87868-2.1213-0.87868s-1.5587 0.3161-2.1213 0.87868c-0.56258 0.56258-0.87868 1.3257-0.87868 2.1213s0.3161 1.5587 0.87868 2.1213c0.56258 0.56258 1.3257 0.87868 2.1213 0.87868z" stroke="#d6e6f4"/></defs><g clip-path="url(#p1ddd2aba57)" fill="#d6e6f4" stroke="#d6e6f4"><use x="675.895181" y="360.209673" xlink:href="#m937394e151"/><use x="582.275714" y="351.867877" xlink:href="#m937394e151"/><use x="514.714849" y="345.584518" xlink:href="#m937394e151"/><use x="483.349777" y="342.285871" xlink:href="#m937394e151"/><use x="420.015174" y="310.562241" xlink:href="#m937394e151"/><use x="368.145412" y="300.220009" xlink:href="#m937394e151"/><use x="291.618737" y="272.154665" xlink:href="#m937394e151"/><use x="263.715682" y="265.610237" xlink:href="#m937394e151"/><use x="227.770595" y="255.872294" xlink:href="#m937394e151"/><use x="204.631075" y="249.134245" xlink:href="#m937394e151"/><use x="168.05927" y="214.205499" xlink:href="#m937394e151"/><use x="135.677259" y="152.152802" xlink:href="#m937394e151"/><use x="121.95257" y="109.318504" xlink:href="#m937394e151"/><use x="111.194976" y="96.943507" xlink:href="#m937394e151"/><use x="95.808383" y="65.976237" xlink:href="#m937394e151"/></g></g><g id="line2d_44"><path d="m670.13 359.77-60.858-2.3197-68.204-6.533-59.878-6.0488-70.713-32.249-75.011-16.572-70.067-31.842-28.966-3.3112h0.16217l-33.928-25.523-19.117-9.1807-48.016-103.15-11.515-21.214-26.619-34.254" clip-path="url(#p1ddd2aba57)" fill="none" stroke="#abd0e6" stroke-linecap="square" stroke-width="1.5"/><defs><path id="ma54bca8ec5" d="m0 3c0.79561 0 1.5587-0.3161 2.1213-0.87868 0.56258-0.56258 0.87868-1.3257 0.87868-2.1213s-0.3161-1.5587-0.87868-2.1213c-0.56258-0.56258-1.3257-0.87868-2.1213-0.87868s-1.5587 0.3161-2.1213 0.87868c-0.56258 0.56258-0.87868 1.3257-0.87868 2.1213s0.3161 1.5587 0.87868 2.1213c0.56258 0.56258 1.3257 0.87868 2.1213 0.87868z" stroke="#abd0e6"/></defs><g clip-path="url(#p1ddd2aba57)" fill="#abd0e6" stroke="#abd0e6"><use x="670.134842" y="359.765188" xlink:href="#ma54bca8ec5"/><use x="609.276686" y="357.445492" xlink:href="#ma54bca8ec5"/><use x="541.072674" y="350.912443" xlink:href="#ma54bca8ec5"/><use x="481.194608" y="344.863656" xlink:href="#ma54bca8ec5"/><use x="410.481336" y="312.614276" xlink:href="#ma54bca8ec5"/><use x="335.470081" y="296.042312" xlink:href="#ma54bca8ec5"/><use x="265.402771" y="264.20043" xlink:href="#ma54bca8ec5"/><use x="236.436314" y="260.889264" xlink:href="#ma54bca8ec5"/><use x="236.59848" y="260.889264" xlink:href="#ma54bca8ec5"/><use x="202.670824" y="235.365985" xlink:href="#ma54bca8ec5"/><use x="183.55422" y="226.185264" xlink:href="#ma54bca8ec5"/><use x="135.537893" y="123.033295" xlink:href="#ma54bca8ec5"/><use x="124.023243" y="101.819087" xlink:href="#ma54bca8ec5"/><use x="97.403793" y="67.564802" xlink:href="#ma54bca8ec5"/></g></g><g id="line2d_45"><path d="m650.1 359.82-60.664-3.5027-62.451-5.756-59.844-5.3923-68.578-33.018-53.136-8.394-91.533-41.099-28.451-9.6234h0.28053l-28.636-16.119-18.921-17.153-43.615-25.332-22.426-85.915-18-60.054" clip-path="url(#p1ddd2aba57)" fill="none" stroke="#6aaed6" stroke-linecap="square" stroke-width="1.5"/><defs><path id="m43c67b97c6" d="m0 3c0.79561 0 1.5587-0.3161 2.1213-0.87868 0.56258-0.56258 0.87868-1.3257 0.87868-2.1213s-0.3161-1.5587-0.87868-2.1213c-0.56258-0.56258-1.3257-0.87868-2.1213-0.87868s-1.5587 0.3161-2.1213 0.87868c-0.56258 0.56258-0.87868 1.3257-0.87868 2.1213s0.3161 1.5587 0.87868 2.1213c0.56258 0.56258 1.3257 0.87868 2.1213 0.87868z" stroke="#6aaed6"/></defs><g clip-path="url(#p1ddd2aba57)" fill="#6aaed6" stroke="#6aaed6"><use x="650.104825" y="359.824805" xlink:href="#m43c67b97c6"/><use x="589.441242" y="356.322108" xlink:href="#m43c67b97c6"/><use x="526.990242" y="350.566116" xlink:href="#m43c67b97c6"/><use x="467.146189" y="345.173787" xlink:href="#m43c67b97c6"/><use x="398.56851" y="312.156257" xlink:href="#m43c67b97c6"/><use x="345.432506" y="303.762292" xlink:href="#m43c67b97c6"/><use x="253.899091" y="262.663432" xlink:href="#m43c67b97c6"/><use x="225.448283" y="253.040001" xlink:href="#m43c67b97c6"/><use x="225.728816" y="253.040001" xlink:href="#m43c67b97c6"/><use x="197.092415" y="236.92108" xlink:href="#m43c67b97c6"/><use x="178.171376" y="219.768249" xlink:href="#m43c67b97c6"/><use x="134.556669" y="194.436406" xlink:href="#m43c67b97c6"/><use x="112.13102" y="108.52148" xlink:href="#m43c67b97c6"/><use x="94.130884" y="48.467127" xlink:href="#m43c67b97c6"/></g></g><g id="line2d_46"><path d="m649.25 359.75-57.827-3.4842-63.533-5.7079-60.698-5.2923-68.012-32.204-53.397-8.9603-91.119-38.947-27.09-10.068-32.06-17.409-17.822-16.126-43.778-24.233-21.019-84.712" clip-path="url(#p1ddd2aba57)" fill="none" stroke="#3787c0" stroke-linecap="square" stroke-width="1.5"/><defs><path id="mf903651b1c" d="m0 3c0.79561 0 1.5587-0.3161 2.1213-0.87868 0.56258-0.56258 0.87868-1.3257 0.87868-2.1213s-0.3161-1.5587-0.87868-2.1213c-0.56258-0.56258-1.3257-0.87868-2.1213-0.87868s-1.5587 0.3161-2.1213 0.87868c-0.56258 0.56258-0.87868 1.3257-0.87868 2.1213s0.3161 1.5587 0.87868 2.1213c0.56258 0.56258 1.3257 0.87868 2.1213 0.87868z" stroke="#3787c0"/></defs><g clip-path="url(#p1ddd2aba57)" fill="#3787c0" stroke="#3787c0"><use x="649.250998" y="359.74747" xlink:href="#mf903651b1c"/><use x="591.424049" y="356.263252" xlink:href="#mf903651b1c"/><use x="527.890834" y="350.555308" xlink:href="#mf903651b1c"/><use x="467.192335" y="345.263008" xlink:href="#mf903651b1c"/><use x="399.18069" y="313.059395" xlink:href="#mf903651b1c"/><use x="345.783281" y="304.09911" xlink:href="#mf903651b1c"/><use x="254.664748" y="265.151616" xlink:href="#mf903651b1c"/><use x="227.57519" y="255.08313" xlink:href="#mf903651b1c"/><use x="195.515452" y="237.674397" xlink:href="#mf903651b1c"/><use x="177.693404" y="221.547933" xlink:href="#mf903651b1c"/><use x="133.915561" y="197.314782" xlink:href="#mf903651b1c"/><use x="112.896782" y="112.603047" xlink:href="#mf903651b1c"/></g></g><g id="line2d_47"><path d="m642.36 358.13-39.428-2.6442-72.246-5.7931-72.966-8.9622-69.019-35.855-61.185-14.946-93.428-30.112-27.863-17.5-25.114-23.686-48.673-7.2085-17.661-57.427-23.283-68.877" clip-path="url(#p1ddd2aba57)" fill="none" stroke="#105ba4" stroke-linecap="square" stroke-width="1.5"/><defs><path id="m5a59a3334e" d="m0 3c0.79561 0 1.5587-0.3161 2.1213-0.87868 0.56258-0.56258 0.87868-1.3257 0.87868-2.1213s-0.3161-1.5587-0.87868-2.1213c-0.56258-0.56258-1.3257-0.87868-2.1213-0.87868s-1.5587 0.3161-2.1213 0.87868c-0.56258 0.56258-0.87868 1.3257-0.87868 2.1213s0.3161 1.5587 0.87868 2.1213c0.56258 0.56258 1.3257 0.87868 2.1213 0.87868z" stroke="#105ba4"/></defs><g clip-path="url(#p1ddd2aba57)" fill="#105ba4" stroke="#105ba4"><use x="642.364608" y="358.131331" xlink:href="#m5a59a3334e"/><use x="602.936708" y="355.487083" xlink:href="#m5a59a3334e"/><use x="530.690628" y="349.693976" xlink:href="#m5a59a3334e"/><use x="457.724685" y="340.731758" xlink:href="#m5a59a3334e"/><use x="388.706008" y="304.876864" xlink:href="#m5a59a3334e"/><use x="327.521419" y="289.930421" xlink:href="#m5a59a3334e"/><use x="234.093173" y="259.818176" xlink:href="#m5a59a3334e"/><use x="206.230551" y="242.31848" xlink:href="#m5a59a3334e"/><use x="181.116934" y="218.632315" xlink:href="#m5a59a3334e"/><use x="132.444273" y="211.423791" xlink:href="#m5a59a3334e"/><use x="114.783252" y="153.996793" xlink:href="#m5a59a3334e"/><use x="91.499771" y="85.120091" xlink:href="#m5a59a3334e"/></g></g><g id="patch_3"><path d="m62.28 375.8v-342.92" fill="none" stroke="#808080" stroke-linecap="square" stroke-width=".8"/></g><g id="patch_4"><path d="m705.11 375.8v-342.92" fill="none" stroke="#808080" stroke-linecap="square" stroke-width=".8"/></g><g id="patch_5"><path d="m62.28 375.8h642.83" fill="none" stroke="#808080" stroke-linecap="square" stroke-width=".8"/></g><g id="patch_6"><path d="m62.28 32.88h642.83" fill="none" stroke="#808080" stroke-linecap="square" stroke-width=".8"/></g><g id="text_12"><!-- (lower is better) --><g transform="translate(337.64 420.38) scale(.09 -.09)" fill="#d3d3d3" opacity=".7"><defs><path id="DejaVuSansMono-6c" transform="scale(.015625)" d="m1997 1269q0-388 142-585 142-196 420-196h672v-488h-728q-515 0-798 331-283 332-283 938v3178h-922v450h1497v-3628z"/><path id="DejaVuSansMono-77" transform="scale(.015625)" d="m0 3500h569l609-2828 500 1806h491l506-1806 609 2828h569l-819-3500h-550l-559 1919-556-1919h-550l-819 3500z"/><path id="DejaVuSansMono-62" transform="scale(.015625)" d="m2869 1747q0 669-213 1009-212 341-628 341-419 0-635-342-215-342-215-1008 0-663 215-1007 216-343 635-343 416 0 628 340 213 341 213 1010zm-1691 1306q138 256 380 393 242 138 561 138 631 0 993-486 363-485 363-1339 0-865-364-1358-364-492-998-492-313 0-552 136t-383 396v-441h-575v4863h575v-1810z"/></defs><use xlink:href="#DejaVuSansMono-28"/><use x="60.205078" xlink:href="#DejaVuSansMono-6c"/><use x="120.410156" xlink:href="#DejaVuSansMono-6f"/><use x="180.615234" xlink:href="#DejaVuSansMono-77"/><use x="240.820312" xlink:href="#DejaVuSansMono-65"/><use x="301.025391" xlink:href="#DejaVuSansMono-72"/><use x="361.230469" xlink:href="#DejaVuSansMono-20"/><use x="421.435547" xlink:href="#DejaVuSansMono-69"/><use x="481.640625" xlink:href="#DejaVuSansMono-73"/><use x="541.845703" xlink:href="#DejaVuSansMono-20"/><use x="602.050781" xlink:href="#DejaVuSansMono-62"/><use x="662.255859" xlink:href="#DejaVuSansMono-65"/><use x="722.460938" xlink:href="#DejaVuSansMono-74"/><use x="782.666016" xlink:href="#DejaVuSansMono-74"/><use x="842.871094" xlink:href="#DejaVuSansMono-65"/><use x="903.076172" xlink:href="#DejaVuSansMono-72"/><use x="963.28125" xlink:href="#DejaVuSansMono-29"/></g></g><g id="text_13"><!-- (lower is better) --><g transform="translate(45.707 262.06) rotate(-90) scale(.09 -.09)" fill="#d3d3d3" opacity=".7"><use xlink:href="#DejaVuSansMono-28"/><use x="60.205078" xlink:href="#DejaVuSansMono-6c"/><use x="120.410156" xlink:href="#DejaVuSansMono-6f"/><use x="180.615234" xlink:href="#DejaVuSansMono-77"/><use x="240.820312" xlink:href="#DejaVuSansMono-65"/><use x="301.025391" xlink:href="#DejaVuSansMono-72"/><use x="361.230469" xlink:href="#DejaVuSansMono-20"/><use x="421.435547" xlink:href="#DejaVuSansMono-69"/><use x="481.640625" xlink:href="#DejaVuSansMono-73"/><use x="541.845703" xlink:href="#DejaVuSansMono-20"/><use x="602.050781" xlink:href="#DejaVuSansMono-62"/><use x="662.255859" xlink:href="#DejaVuSansMono-65"/><use x="722.460938" xlink:href="#DejaVuSansMono-74"/><use x="782.666016" xlink:href="#DejaVuSansMono-74"/><use x="842.871094" xlink:href="#DejaVuSansMono-65"/><use x="903.076172" xlink:href="#DejaVuSansMono-72"/><use x="963.28125" xlink:href="#DejaVuSansMono-29"/></g></g><g id="text_14"><!-- BD-rate (W-XPSNR) vs Encoding Speed --><g transform="translate(257.27 20.88) scale(.12 -.12)" fill="#fff"><defs><path id="DejaVuSansMono-70" transform="scale(.015625)" d="m1172 441v-1772h-578v4831h578v-447q144 260 383 395 239 136 551 136 635 0 996-491 361-490 361-1359 0-853-363-1339-362-486-994-486-318 0-558 136-239 136-376 396zm1687 1306q0 669-211 1009-210 341-626 341-419 0-635-342-215-342-215-1008 0-663 215-1007 216-343 635-343 416 0 626 340 211 341 211 1010z"/></defs><use xlink:href="#DejaVuSansMono-42"/><use x="60.205078" xlink:href="#DejaVuSansMono-44"/><use x="120.410156" xlink:href="#DejaVuSansMono-2d"/><use x="180.615234" xlink:href="#DejaVuSansMono-72"/><use x="240.820312" xlink:href="#DejaVuSansMono-61"/><use x="301.025391" xlink:href="#DejaVuSansMono-74"/><use x="361.230469" xlink:href="#DejaVuSansMono-65"/><use x="421.435547" xlink:href="#DejaVuSansMono-20"/><use x="481.640625" xlink:href="#DejaVuSansMono-28"/><use x="541.845703" xlink:href="#DejaVuSansMono-57"/><use x="602.050781" xlink:href="#DejaVuSansMono-2d"/><use x="662.255859" xlink:href="#DejaVuSansMono-58"/><use x="722.460938" xlink:href="#DejaVuSansMono-50"/><use x="782.666016" xlink:href="#DejaVuSansMono-53"/><use x="842.871094" xlink:href="#DejaVuSansMono-4e"/><use x="903.076172" xlink:href="#DejaVuSansMono-52"/><use x="963.28125" xlink:href="#DejaVuSansMono-29"/><use x="1023.486328" xlink:href="#DejaVuSansMono-20"/><use x="1083.691406" xlink:href="#DejaVuSansMono-76"/><use x="1143.896484" xlink:href="#DejaVuSansMono-73"/><use x="1204.101562" xlink:href="#DejaVuSansMono-20"/><use x="1264.306641" xlink:href="#DejaVuSansMono-45"/><use x="1324.511719" xlink:href="#DejaVuSansMono-6e"/><use x="1384.716797" xlink:href="#DejaVuSansMono-63"/><use x="1444.921875" xlink:href="#DejaVuSansMono-6f"/><use x="1505.126953" xlink:href="#DejaVuSansMono-64"/><use x="1565.332031" xlink:href="#DejaVuSansMono-69"/><use x="1625.537109" xlink:href="#DejaVuSansMono-6e"/><use x="1685.742188" xlink:href="#DejaVuSansMono-67"/><use x="1745.947266" xlink:href="#DejaVuSansMono-20"/><use x="1806.152344" xlink:href="#DejaVuSansMono-53"/><use x="1866.357422" xlink:href="#DejaVuSansMono-70"/><use x="1926.5625" xlink:href="#DejaVuSansMono-65"/><use x="1986.767578" xlink:href="#DejaVuSansMono-65"/><use x="2046.972656" xlink:href="#DejaVuSansMono-64"/></g></g><g id="legend_1"><g id="patch_7"><path d="m590.4 114.27h107.71q2 0 2-2v-72.391q0-2-2-2h-107.71q-2 0-2 2v72.391q0 2 2 2z" opacity=".8" stroke="#ccc"/></g><g id="line2d_48"><path d="m592.4 45.978h10 10" fill="none" stroke="#d6e6f4" stroke-linecap="square" stroke-width="1.5"/><use x="602.400889" y="45.978437" fill="#d6e6f4" stroke="#d6e6f4" xlink:href="#m937394e151"/></g><g id="text_15"><!-- SVT-AV1 v2.0.0 --><g transform="translate(620.4 49.478) scale(.1 -.1)" fill="#fff"><defs><path id="DejaVuSans-53" transform="scale(.015625)" d="m3425 4513v-616q-359 172-678 256-319 85-616 85-515 0-795-200t-280-569q0-310 186-468 186-157 705-254l381-78q706-135 1042-474t336-907q0-679-455-1029-454-350-1332-350-331 0-705 75-373 75-773 222v650q384-215 753-325 369-109 725-109 540 0 834 212 294 213 294 607 0 343-211 537t-692 291l-385 75q-706 140-1022 440-315 300-315 835 0 619 436 975t1201 356q329 0 669-60 341-59 697-177z"/><path id="DejaVuSans-56" transform="scale(.015625)" d="m1831 0-1781 4666h659l1479-3928 1481 3928h656l-1778-4666h-716z"/><path id="DejaVuSans-54" transform="scale(.015625)" d="m-19 4666h3947v-532h-1656v-4134h-634v4134h-1657v532z"/><path id="DejaVuSans-2d" transform="scale(.015625)" d="m313 2009h1684v-512h-1684v512z"/><path id="DejaVuSans-41" transform="scale(.015625)" d="m2188 4044-857-2322h1716l-859 2322zm-357 622h716l1778-4666h-656l-425 1197h-2103l-425-1197h-666l1781 4666z"/><path id="DejaVuSans-76" transform="scale(.015625)" d="m191 3500h609l1094-2937 1094 2937h609l-1313-3500h-781l-1312 3500z"/><path id="DejaVuSans-2e" transform="scale(.015625)" d="m684 794h660v-794h-660v794z"/></defs><use xlink:href="#DejaVuSans-53"/><use x="63.476562" xlink:href="#DejaVuSans-56"/><use x="131.884766" xlink:href="#DejaVuSans-54"/><use x="183.84375" xlink:href="#DejaVuSans-2d"/><use x="217.677734" xlink:href="#DejaVuSans-41"/><use x="279.710938" xlink:href="#DejaVuSans-56"/><use x="348.119141" xlink:href="#DejaVuSans-31"/><use x="411.742188" xlink:href="#DejaVuSans-20"/><use x="443.529297" xlink:href="#DejaVuSans-76"/><use x="502.708984" xlink:href="#DejaVuSans-32"/><use x="566.332031" xlink:href="#DejaVuSans-2e"/><use x="598.119141" xlink:href="#DejaVuSans-30"/><use x="661.742188" xlink:href="#DejaVuSans-2e"/><use x="693.529297" xlink:href="#DejaVuSans-30"/></g></g><g id="line2d_49"><path d="m592.4 60.657h10 10" fill="none" stroke="#abd0e6" stroke-linecap="square" stroke-width="1.5"/><use x="602.400889" y="60.656563" fill="#abd0e6" stroke="#abd0e6" xlink:href="#ma54bca8ec5"/></g><g id="text_16"><!-- SVT-AV1 v2.1.2 --><g transform="translate(620.4 64.157) scale(.1 -.1)" fill="#fff"><use xlink:href="#DejaVuSans-53"/><use x="63.476562" xlink:href="#DejaVuSans-56"/><use x="131.884766" xlink:href="#DejaVuSans-54"/><use x="183.84375" xlink:href="#DejaVuSans-2d"/><use x="217.677734" xlink:href="#DejaVuSans-41"/><use x="279.710938" xlink:href="#DejaVuSans-56"/><use x="348.119141" xlink:href="#DejaVuSans-31"/><use x="411.742188" xlink:href="#DejaVuSans-20"/><use x="443.529297" xlink:href="#DejaVuSans-76"/><use x="502.708984" xlink:href="#DejaVuSans-32"/><use x="566.332031" xlink:href="#DejaVuSans-2e"/><use x="598.119141" xlink:href="#DejaVuSans-31"/><use x="661.742188" xlink:href="#DejaVuSans-2e"/><use x="693.529297" xlink:href="#DejaVuSans-32"/></g></g><g id="line2d_50"><path d="m592.4 75.335h10 10" fill="none" stroke="#6aaed6" stroke-linecap="square" stroke-width="1.5"/><use x="602.400889" y="75.334687" fill="#6aaed6" stroke="#6aaed6" xlink:href="#m43c67b97c6"/></g><g id="text_17"><!-- SVT-AV1 v2.2.1 --><g transform="translate(620.4 78.835) scale(.1 -.1)" fill="#fff"><use xlink:href="#DejaVuSans-53"/><use x="63.476562" xlink:href="#DejaVuSans-56"/><use x="131.884766" xlink:href="#DejaVuSans-54"/><use x="183.84375" xlink:href="#DejaVuSans-2d"/><use x="217.677734" xlink:href="#DejaVuSans-41"/><use x="279.710938" xlink:href="#DejaVuSans-56"/><use x="348.119141" xlink:href="#DejaVuSans-31"/><use x="411.742188" xlink:href="#DejaVuSans-20"/><use x="443.529297" xlink:href="#DejaVuSans-76"/><use x="502.708984" xlink:href="#DejaVuSans-32"/><use x="566.332031" xlink:href="#DejaVuSans-2e"/><use x="598.119141" xlink:href="#DejaVuSans-32"/><use x="661.742188" xlink:href="#DejaVuSans-2e"/><use x="693.529297" xlink:href="#DejaVuSans-31"/></g></g><g id="line2d_51"><path d="m592.4 90.013h10 10" fill="none" stroke="#3787c0" stroke-linecap="square" stroke-width="1.5"/><use x="602.400889" y="90.012812" fill="#3787c0" stroke="#3787c0" xlink:href="#mf903651b1c"/></g><g id="text_18"><!-- SVT-AV1 v2.3.0 --><g transform="translate(620.4 93.513) scale(.1 -.1)" fill="#fff"><use xlink:href="#DejaVuSans-53"/><use x="63.476562" xlink:href="#DejaVuSans-56"/><use x="131.884766" xlink:href="#DejaVuSans-54"/><use x="183.84375" xlink:href="#DejaVuSans-2d"/><use x="217.677734" xlink:href="#DejaVuSans-41"/><use x="279.710938" xlink:href="#DejaVuSans-56"/><use x="348.119141" xlink:href="#DejaVuSans-31"/><use x="411.742188" xlink:href="#DejaVuSans-20"/><use x="443.529297" xlink:href="#DejaVuSans-76"/><use x="502.708984" xlink:href="#DejaVuSans-32"/><use x="566.332031" xlink:href="#DejaVuSans-2e"/><use x="598.119141" xlink:href="#DejaVuSans-33"/><use x="661.742188" xlink:href="#DejaVuSans-2e"/><use x="693.529297" xlink:href="#DejaVuSans-30"/></g></g><g id="line2d_52"><path d="m592.4 104.69h10 10" fill="none" stroke="#105ba4" stroke-linecap="square" stroke-width="1.5"/><use x="602.400889" y="104.690938" fill="#105ba4" stroke="#105ba4" xlink:href="#m5a59a3334e"/></g><g id="text_19"><!-- SVT-AV1 v3.0.1 --><g transform="translate(620.4 108.19) scale(.1 -.1)" fill="#fff"><use xlink:href="#DejaVuSans-53"/><use x="63.476562" xlink:href="#DejaVuSans-56"/><use x="131.884766" xlink:href="#DejaVuSans-54"/><use x="183.84375" xlink:href="#DejaVuSans-2d"/><use x="217.677734" xlink:href="#DejaVuSans-41"/><use x="279.710938" xlink:href="#DejaVuSans-56"/><use x="348.119141" xlink:href="#DejaVuSans-31"/><use x="411.742188" xlink:href="#DejaVuSans-20"/><use x="443.529297" xlink:href="#DejaVuSans-76"/><use x="502.708984" xlink:href="#DejaVuSans-33"/><use x="566.332031" xlink:href="#DejaVuSans-2e"/><use x="598.119141" xlink:href="#DejaVuSans-30"/><use x="661.742188" xlink:href="#DejaVuSans-2e"/><use x="693.529297" xlink:href="#DejaVuSans-31"/></g></g></g></g></g><defs><clipPath id="p1ddd2aba57"><rect x="62.28" y="32.88" width="642.83" height="342.92"/></clipPath></defs></svg>
